{
	"asset":{
		"generator":"Khronos glTF Blender I/O v5.0.21",
		"version":"2.0"
	},
	"extensionsUsed":[
		"KHR_lights_punctual",
		"KHR_materials_emissive_strength"
	],
	"extensionsRequired":[
		"KHR_lights_punctual"
	],
	"extensions":{
		"KHR_lights_punctual":{
			"lights":[
				{
					"color":[
						0.8188204765319824,
						0.9974614381790161,
						1
					],
					"intensity":136.60000203549862,
					"type":"directional",
					"name":"Sun"
				},
				{
					"color":[
						0.9699696898460388,
						0,
						1
					],
					"intensity":1722.9397319882116,
					"type":"point",
					"name":"Point.001"
				},
				{
					"color":[
						0,
						0.19599315524101257,
						1
					],
					"intensity":1722.9397319882116,
					"type":"point",
					"name":"Point.004"
				}
			]
		}
	},
	"scene":0,
	"scenes":[
		{
			"name":"Scene",
			"nodes":[
				38,
				40,
				42
			]
		}
	],
	"nodes":[
		{
			"extensions":{
				"KHR_lights_punctual":{
					"light":0
				}
			},
			"name":"Sun",
			"scale":[
				7.864809036254883,
				7.864809989929199,
				7.864809513092041
			],
			"translation":[
				0,
				2.6971101760864258e-06,
				-0.02781963348388672
			]
		},
		{
			"camera":0,
			"children":[
				0
			],
			"name":"Camera",
			"rotation":[
				-0.2261674851179123,
				-0.3867393136024475,
				-0.09843408316373825,
				0.8885898590087891
			],
			"translation":[
				-26.48244857788086,
				19.329282760620117,
				24.38687515258789
			]
		},
		{
			"mesh":0,
			"name":"Cube",
			"scale":[
				3.9652159214019775,
				3.9652159214019775,
				55.542503356933594
			],
			"translation":[
				-7.424933433532715,
				3.9652152061462402,
				-52.30677032470703
			]
		},
		{
			"mesh":1,
			"name":"Cube.001",
			"rotation":[
				0,
				-1,
				0,
				1.947071694985425e-07
			],
			"scale":[
				3.9652159214019775,
				3.9652159214019775,
				55.542503356933594
			],
			"translation":[
				6.94450569152832,
				3.9652152061462402,
				-52.30677032470703
			]
		},
		{
			"mesh":2,
			"name":"Cube.002",
			"scale":[
				0.7357033491134644,
				0.3079878091812134,
				98.0072250366211
			],
			"translation":[
				2.6061904430389404,
				0,
				-15.38034439086914
			]
		},
		{
			"mesh":3,
			"name":"Cube.003",
			"scale":[
				0.7357033491134644,
				0.3079878091812134,
				98.0072250366211
			],
			"translation":[
				-3.0752854347229004,
				0,
				-15.38034439086914
			]
		},
		{
			"mesh":4,
			"name":"Cube.005"
		},
		{
			"mesh":5,
			"name":"Cube.006"
		},
		{
			"mesh":6,
			"name":"Cube.007"
		},
		{
			"mesh":7,
			"name":"Cube.008"
		},
		{
			"mesh":8,
			"name":"Cube.009"
		},
		{
			"children":[
				6,
				7,
				8,
				9,
				10
			],
			"mesh":9,
			"name":"Cube.004",
			"scale":[
				3.9652159214019775,
				3.9652159214019775,
				55.542503356933594
			],
			"translation":[
				-17.439727783203125,
				11.166769027709961,
				-74.15913391113281
			]
		},
		{
			"mesh":10,
			"name":"Cube.011",
			"scale":[
				1.0000050067901611,
				3.2616379261016846,
				1.0000238418579102
			],
			"translation":[
				8.923137664794922,
				1.8194702863693237,
				54.43271255493164
			]
		},
		{
			"mesh":11,
			"name":"Cube.012",
			"scale":[
				1.0000050067901611,
				3.2616379261016846,
				1.0000238418579102
			],
			"translation":[
				-7.398726940155029,
				-1.4065687656402588,
				54.10942077636719
			]
		},
		{
			"children":[
				12,
				13
			],
			"mesh":12,
			"name":"Cube.010",
			"rotation":[
				-0.003624187083914876,
				0.009333050809800625,
				0.0017035078490152955,
				0.9999484419822693
			],
			"scale":[
				0.9999949932098389,
				0.3065944314002991,
				0.9999759793281555
			],
			"translation":[
				-2.4159975051879883,
				2.0361783504486084,
				-230.33880615234375
			]
		},
		{
			"mesh":13,
			"name":"Cylinder",
			"scale":[
				0.07693842053413391,
				0.15272092819213867,
				0.07693842053413391
			],
			"translation":[
				-2.856423854827881,
				0.2856268882751465,
				-6.475946426391602
			]
		},
		{
			"mesh":14,
			"name":"Cylinder.001",
			"scale":[
				0.07693842053413391,
				0.15272092819213867,
				0.07693842053413391
			],
			"translation":[
				2.3684139251708984,
				0.2856268882751465,
				-6.475946426391602
			]
		},
		{
			"mesh":15,
			"name":"Cylinder.006",
			"translation":[
				1.5625404119491577,
				0.04168548434972763,
				-12.280991554260254
			]
		},
		{
			"extras":{
				"bounds":true
			},
			"name":"Empty",
			"scale":[
				11.039864540100098,
				11.039864540100098,
				0.3800722360610962
			],
			"translation":[
				0,
				0,
				3.262479066848755
			]
		},
		{
			"extras":{
				"bounds":true
			},
			"name":"Empty.001",
			"rotation":[
				0,
				0.7071067094802856,
				0,
				0.7071068286895752
			],
			"scale":[
				58.802127838134766,
				11.039864540100098,
				4.2434983253479
			],
			"translation":[
				-7.400437831878662,
				0,
				-54.860206604003906
			]
		},
		{
			"extras":{
				"bounds":true
			},
			"name":"Empty.002",
			"rotation":[
				0,
				0.7071067094802856,
				0,
				0.7071068286895752
			],
			"scale":[
				58.802127838134766,
				11.039864540100098,
				4.2434983253479
			],
			"translation":[
				7.221108913421631,
				0,
				-54.860206604003906
			]
		},
		{
			"extras":{
				"bounds":true
			},
			"name":"Empty.005",
			"scale":[
				18.40525245666504,
				11.039864540100098,
				0.3800722360610962
			],
			"translation":[
				-22.827136993408203,
				6.556528091430664,
				-113.60618591308594
			]
		},
		{
			"extras":{
				"bounds":true
			},
			"name":"Empty.006",
			"scale":[
				18.40525245666504,
				11.039864540100098,
				0.3800722360610962
			],
			"translation":[
				-22.827136993408203,
				6.556528091430664,
				-113.60618591308594
			]
		},
		{
			"extras":{
				"bounds":true
			},
			"name":"Empty.007",
			"rotation":[
				0.00482912128791213,
				-0.7186855673789978,
				0.0074147325940430164,
				0.6952789425849915
			],
			"scale":[
				107.31539916992188,
				11.040092468261719,
				0.387360155582428
			],
			"translation":[
				-29.733198165893555,
				10.613551139831543,
				-154.7628173828125
			]
		},
		{
			"extras":{
				"bounds":true
			},
			"name":"Empty.008",
			"scale":[
				18.40525245666504,
				11.039864540100098,
				0.3800722360610962
			],
			"translation":[
				-22.827136993408203,
				6.556528091430664,
				-113.60618591308594
			]
		},
		{
			"extras":{
				"bounds":true
			},
			"name":"Empty.009",
			"scale":[
				18.40525245666504,
				11.039864540100098,
				0.3800722360610962
			],
			"translation":[
				-22.827136993408203,
				6.556528091430664,
				-113.60618591308594
			]
		},
		{
			"extras":{
				"bounds":true
			},
			"name":"Empty.010",
			"rotation":[
				0.00482912128791213,
				-0.7186855673789978,
				0.0074147325940430164,
				0.6952789425849915
			],
			"scale":[
				107.31539916992188,
				11.040092468261719,
				0.387360155582428
			],
			"translation":[
				-29.733198165893555,
				10.613551139831543,
				-154.7628173828125
			]
		},
		{
			"extras":{
				"bounds":true
			},
			"name":"Empty.011",
			"scale":[
				18.40525245666504,
				11.039864540100098,
				0.3800722360610962
			],
			"translation":[
				29.620981216430664,
				6.707587242126465,
				-113.6439437866211
			]
		},
		{
			"extras":{
				"bounds":true
			},
			"name":"Empty.012",
			"scale":[
				18.40525245666504,
				11.039864540100098,
				0.3800722360610962
			],
			"translation":[
				29.620981216430664,
				6.707587242126465,
				-113.6439437866211
			]
		},
		{
			"extras":{
				"bounds":true
			},
			"name":"Empty.013",
			"rotation":[
				-0.0003764208813663572,
				-0.6948975324630737,
				0.0004147854051552713,
				0.7191086411476135
			],
			"scale":[
				107.31539916992188,
				11.040091514587402,
				0.38736018538475037
			],
			"translation":[
				18.327747344970703,
				11.084619522094727,
				-154.30747985839844
			]
		},
		{
			"extras":{
				"bounds":true
			},
			"name":"Empty.014",
			"scale":[
				18.40525245666504,
				11.039864540100098,
				0.3800722360610962
			],
			"translation":[
				29.620981216430664,
				6.707587242126465,
				-113.6439437866211
			]
		},
		{
			"extras":{
				"bounds":true
			},
			"name":"Empty.015",
			"scale":[
				18.40525245666504,
				11.039864540100098,
				0.3800722360610962
			],
			"translation":[
				29.620981216430664,
				6.707587242126465,
				-113.6439437866211
			]
		},
		{
			"extras":{
				"bounds":true
			},
			"name":"Empty.016",
			"rotation":[
				-0.0003764208813663572,
				-0.6948975324630737,
				0.0004147854051552713,
				0.7191086411476135
			],
			"scale":[
				107.31539916992188,
				11.040091514587402,
				0.38736018538475037
			],
			"translation":[
				18.327747344970703,
				11.084619522094727,
				-154.30747985839844
			]
		},
		{
			"mesh":16,
			"name":"Plane.001",
			"rotation":[
				-0.0036241873167455196,
				0.0093330517411232,
				0.0017035080818459392,
				0.9999485015869141
			],
			"scale":[
				363.85711669921875,
				363.8571472167969,
				363.8570861816406
			],
			"translation":[
				-14.401962280273438,
				0.6305118799209595,
				-21.176681518554688
			]
		},
		{
			"extensions":{
				"KHR_lights_punctual":{
					"light":1
				}
			},
			"name":"Point",
			"rotation":[
				-0.7071068286895752,
				0,
				0,
				0.7071068286895752
			],
			"translation":[
				-2.012235164642334,
				5.34878396987915,
				-6.496341228485107
			]
		},
		{
			"extensions":{
				"KHR_lights_punctual":{
					"light":2
				}
			},
			"name":"Point.001",
			"rotation":[
				-0.7071068286895752,
				0,
				0,
				0.7071068286895752
			],
			"translation":[
				1.54384446144104,
				5.34878396987915,
				-10.782858848571777
			]
		},
		{
			"extensions":{
				"KHR_lights_punctual":{
					"light":2
				}
			},
			"name":"Point.002",
			"rotation":[
				-0.7071068286895752,
				0,
				0,
				0.7071068286895752
			],
			"translation":[
				1.5039856433868408,
				5.34878396987915,
				-17.75815773010254
			]
		},
		{
			"mesh":17,
			"name":"Text",
			"rotation":[
				0,
				-0.7071068286895752,
				0.7071068286895752,
				1.3767879636361613e-07
			],
			"translation":[
				2.5590224266052246,
				1.5926592350006104,
				4.244413375854492
			]
		},
		{
			"children":[
				1,
				2,
				3,
				4,
				5,
				11,
				14,
				15,
				16,
				17,
				18,
				19,
				20,
				21,
				22,
				23,
				24,
				25,
				26,
				27,
				28,
				29,
				30,
				31,
				32,
				33,
				34,
				35,
				36,
				37
			],
			"name":"Soba"
		},
		{
			"extras":{
				"bounds":true
			},
			"name":"Empty.003",
			"scale":[
				11.039864540100098,
				11.039864540100098,
				0.3800722360610962
			],
			"translation":[
				0,
				0,
				3.262479066848755
			]
		},
		{
			"children":[
				39
			],
			"name":"Soba.001"
		},
		{
			"extras":{
				"bounds":true
			},
			"name":"Empty.004",
			"scale":[
				11.039864540100098,
				11.039864540100098,
				0.3800722360610962
			],
			"translation":[
				0,
				0,
				3.262479066848755
			]
		},
		{
			"children":[
				41
			],
			"name":"Soba.002"
		}
	],
	"cameras":[
		{
			"name":"Camera",
			"perspective":{
				"aspectRatio":1.7777777777777777,
				"yfov":0.39959652046304894,
				"zfar":1000,
				"znear":0.10000000149011612
			},
			"type":"perspective"
		}
	],
	"materials":[
		{
			"doubleSided":true,
			"name":"Material.033",
			"pbrMetallicRoughness":{
				"baseColorFactor":[
					0.7472608089447021,
					0.7472608089447021,
					0.7472608089447021,
					1
				],
				"metallicFactor":0.22480618953704834,
				"roughnessFactor":0.23126614093780518
			}
		},
		{
			"doubleSided":true,
			"name":"Material.036",
			"pbrMetallicRoughness":{
				"baseColorFactor":[
					0.800000011920929,
					0.800000011920929,
					0.800000011920929,
					1
				],
				"metallicFactor":0,
				"roughnessFactor":0.5
			}
		},
		{
			"doubleSided":true,
			"name":"Material.035",
			"pbrMetallicRoughness":{
				"baseColorFactor":[
					0.800000011920929,
					0.800000011920929,
					0.800000011920929,
					1
				],
				"metallicFactor":0,
				"roughnessFactor":0.5
			}
		},
		{
			"doubleSided":true,
			"name":"Material.038",
			"pbrMetallicRoughness":{
				"baseColorFactor":[
					0.3162073493003845,
					0.3162073493003845,
					0.3162073493003845,
					1
				],
				"metallicFactor":0,
				"roughnessFactor":0.5
			}
		},
		{
			"doubleSided":true,
			"emissiveFactor":[
				1,
				1,
				1
			],
			"extensions":{
				"KHR_materials_emissive_strength":{
					"emissiveStrength":20
				}
			},
			"name":"Material.041",
			"pbrMetallicRoughness":{
				"baseColorFactor":[
					0.7230703830718994,
					0,
					1,
					1
				],
				"metallicFactor":0,
				"roughnessFactor":0.5
			}
		},
		{
			"doubleSided":true,
			"emissiveFactor":[
				1,
				1,
				1
			],
			"extensions":{
				"KHR_materials_emissive_strength":{
					"emissiveStrength":20
				}
			},
			"name":"Material.037",
			"pbrMetallicRoughness":{
				"baseColorFactor":[
					0,
					0.6738818287849426,
					1,
					1
				],
				"metallicFactor":0,
				"roughnessFactor":0.5
			}
		},
		{
			"doubleSided":true,
			"name":"Material.040",
			"pbrMetallicRoughness":{
				"baseColorFactor":[
					0,
					0,
					0,
					1
				],
				"roughnessFactor":0
			}
		},
		{
			"doubleSided":true,
			"name":"Material",
			"pbrMetallicRoughness":{
				"baseColorFactor":[
					0.001554909162223339,
					0.0015508634969592094,
					0.0015272552845999599,
					1
				],
				"metallicFactor":0,
				"roughnessFactor":0.8701754212379456
			}
		},
		{
			"doubleSided":true,
			"emissiveFactor":[
				1,
				1,
				1
			],
			"extensions":{
				"KHR_materials_emissive_strength":{
					"emissiveStrength":20
				}
			},
			"name":"Material.039",
			"pbrMetallicRoughness":{
				"baseColorFactor":[
					1,
					0,
					1,
					1
				],
				"metallicFactor":0,
				"roughnessFactor":0.5
			}
		}
	],
	"meshes":[
		{
			"name":"Cube.007",
			"primitives":[
				{
					"attributes":{
						"POSITION":0,
						"NORMAL":1,
						"TEXCOORD_0":2
					},
					"indices":3,
					"material":0
				}
			]
		},
		{
			"name":"Cube.009",
			"primitives":[
				{
					"attributes":{
						"POSITION":4,
						"NORMAL":5,
						"TEXCOORD_0":6
					},
					"indices":3,
					"material":0
				}
			]
		},
		{
			"name":"Cube.010",
			"primitives":[
				{
					"attributes":{
						"POSITION":7,
						"NORMAL":8,
						"TEXCOORD_0":9
					},
					"indices":10,
					"material":1
				}
			]
		},
		{
			"name":"Cube.011",
			"primitives":[
				{
					"attributes":{
						"POSITION":11,
						"NORMAL":12,
						"TEXCOORD_0":13
					},
					"indices":10,
					"material":2
				}
			]
		},
		{
			"name":"Cube.002",
			"primitives":[
				{
					"attributes":{
						"POSITION":14,
						"NORMAL":15,
						"TEXCOORD_0":16
					},
					"indices":17,
					"material":0
				}
			]
		},
		{
			"name":"Cube.003",
			"primitives":[
				{
					"attributes":{
						"POSITION":18,
						"NORMAL":19,
						"TEXCOORD_0":20
					},
					"indices":17,
					"material":0
				}
			]
		},
		{
			"name":"Cube.004",
			"primitives":[
				{
					"attributes":{
						"POSITION":21,
						"NORMAL":22,
						"TEXCOORD_0":23
					},
					"indices":17,
					"material":0
				}
			]
		},
		{
			"name":"Cube.005",
			"primitives":[
				{
					"attributes":{
						"POSITION":24,
						"NORMAL":25,
						"TEXCOORD_0":26
					},
					"indices":17,
					"material":0
				}
			]
		},
		{
			"name":"Cube.006",
			"primitives":[
				{
					"attributes":{
						"POSITION":27,
						"NORMAL":28,
						"TEXCOORD_0":29
					},
					"indices":30,
					"material":0
				}
			]
		},
		{
			"name":"Cube.001",
			"primitives":[
				{
					"attributes":{
						"POSITION":31,
						"NORMAL":32,
						"TEXCOORD_0":33
					},
					"indices":34,
					"material":0
				}
			]
		},
		{
			"name":"Cube.008",
			"primitives":[
				{
					"attributes":{
						"POSITION":35,
						"NORMAL":36,
						"TEXCOORD_0":37
					},
					"indices":10
				}
			]
		},
		{
			"name":"Cube.012",
			"primitives":[
				{
					"attributes":{
						"POSITION":38,
						"NORMAL":39,
						"TEXCOORD_0":40
					},
					"indices":10
				}
			]
		},
		{
			"name":"Cube",
			"primitives":[
				{
					"attributes":{
						"POSITION":41,
						"NORMAL":42,
						"TEXCOORD_0":43
					},
					"indices":44
				}
			]
		},
		{
			"name":"Cylinder.001",
			"primitives":[
				{
					"attributes":{
						"POSITION":45,
						"NORMAL":46,
						"TEXCOORD_0":47
					},
					"indices":48,
					"material":3
				},
				{
					"attributes":{
						"POSITION":49,
						"NORMAL":50,
						"TEXCOORD_0":51
					},
					"indices":52,
					"material":4
				}
			]
		},
		{
			"name":"Cylinder.002",
			"primitives":[
				{
					"attributes":{
						"POSITION":53,
						"NORMAL":54,
						"TEXCOORD_0":55
					},
					"indices":56,
					"material":3
				},
				{
					"attributes":{
						"POSITION":57,
						"NORMAL":58,
						"TEXCOORD_0":59
					},
					"indices":60,
					"material":5
				}
			]
		},
		{
			"name":"Cylinder.007",
			"primitives":[
				{
					"attributes":{
						"POSITION":61,
						"NORMAL":62,
						"TEXCOORD_0":63
					},
					"indices":64,
					"material":6
				}
			]
		},
		{
			"name":"Plane.001",
			"primitives":[
				{
					"attributes":{
						"POSITION":65,
						"NORMAL":66,
						"TEXCOORD_0":67
					},
					"indices":68,
					"material":7
				}
			]
		},
		{
			"name":"Text",
			"primitives":[
				{
					"attributes":{
						"POSITION":69,
						"NORMAL":70,
						"TEXCOORD_0":71
					},
					"indices":72,
					"material":8
				}
			]
		}
	],
	"accessors":[
		{
			"bufferView":0,
			"componentType":5126,
			"count":350,
			"max":[
				1,
				7.592008113861084,
				1
			],
			"min":[
				-1,
				-1,
				-1
			],
			"type":"VEC3"
		},
		{
			"bufferView":1,
			"componentType":5126,
			"count":350,
			"type":"VEC3"
		},
		{
			"bufferView":2,
			"componentType":5126,
			"count":350,
			"type":"VEC2"
		},
		{
			"bufferView":3,
			"componentType":5123,
			"count":756,
			"type":"SCALAR"
		},
		{
			"bufferView":4,
			"componentType":5126,
			"count":350,
			"max":[
				1,
				7.592008113861084,
				1
			],
			"min":[
				-1,
				-1,
				-1
			],
			"type":"VEC3"
		},
		{
			"bufferView":5,
			"componentType":5126,
			"count":350,
			"type":"VEC3"
		},
		{
			"bufferView":6,
			"componentType":5126,
			"count":350,
			"type":"VEC2"
		},
		{
			"bufferView":7,
			"componentType":5126,
			"count":24,
			"max":[
				1,
				1,
				1
			],
			"min":[
				-1,
				-1,
				-1
			],
			"type":"VEC3"
		},
		{
			"bufferView":8,
			"componentType":5126,
			"count":24,
			"type":"VEC3"
		},
		{
			"bufferView":9,
			"componentType":5126,
			"count":24,
			"type":"VEC2"
		},
		{
			"bufferView":10,
			"componentType":5123,
			"count":36,
			"type":"SCALAR"
		},
		{
			"bufferView":11,
			"componentType":5126,
			"count":24,
			"max":[
				1,
				1,
				1
			],
			"min":[
				-1,
				-1,
				-1
			],
			"type":"VEC3"
		},
		{
			"bufferView":12,
			"componentType":5126,
			"count":24,
			"type":"VEC3"
		},
		{
			"bufferView":13,
			"componentType":5126,
			"count":24,
			"type":"VEC2"
		},
		{
			"bufferView":14,
			"componentType":5126,
			"count":96,
			"max":[
				12.182406425476074,
				11.641010284423828,
				-2.4480233192443848
			],
			"min":[
				2.491549015045166,
				-0.7745417356491089,
				-3.096994400024414
			],
			"type":"VEC3"
		},
		{
			"bufferView":15,
			"componentType":5126,
			"count":96,
			"type":"VEC3"
		},
		{
			"bufferView":16,
			"componentType":5126,
			"count":96,
			"type":"VEC2"
		},
		{
			"bufferView":17,
			"componentType":5123,
			"count":132,
			"type":"SCALAR"
		},
		{
			"bufferView":18,
			"componentType":5126,
			"count":96,
			"max":[
				11.331819534301758,
				4.9805731773376465,
				-2.3268768787384033
			],
			"min":[
				5.815366268157959,
				-0.8397032022476196,
				-2.6974194049835205
			],
			"type":"VEC3"
		},
		{
			"bufferView":19,
			"componentType":5126,
			"count":96,
			"type":"VEC3"
		},
		{
			"bufferView":20,
			"componentType":5126,
			"count":96,
			"type":"VEC2"
		},
		{
			"bufferView":21,
			"componentType":5126,
			"count":96,
			"max":[
				0.2782309055328369,
				7.889298915863037,
				-2.901620388031006
			],
			"min":[
				-4.369531631469727,
				-0.7745529413223267,
				-3.3737339973449707
			],
			"type":"VEC3"
		},
		{
			"bufferView":22,
			"componentType":5126,
			"count":96,
			"type":"VEC3"
		},
		{
			"bufferView":23,
			"componentType":5126,
			"count":96,
			"type":"VEC2"
		},
		{
			"bufferView":24,
			"componentType":5126,
			"count":96,
			"max":[
				8.433667182922363,
				29.314340591430664,
				-2.634136438369751
			],
			"min":[
				3.956066846847534,
				11.641011238098145,
				-3.005011796951294
			],
			"type":"VEC3"
		},
		{
			"bufferView":25,
			"componentType":5126,
			"count":96,
			"type":"VEC3"
		},
		{
			"bufferView":26,
			"componentType":5126,
			"count":96,
			"type":"VEC2"
		},
		{
			"bufferView":27,
			"componentType":5126,
			"count":96,
			"max":[
				8.96369743347168,
				24.951602935791016,
				-2.5744943618774414
			],
			"min":[
				5.987144947052002,
				11.641010284423828,
				-2.7303647994995117
			],
			"type":"VEC3"
		},
		{
			"bufferView":28,
			"componentType":5126,
			"count":96,
			"type":"VEC3"
		},
		{
			"bufferView":29,
			"componentType":5126,
			"count":96,
			"type":"VEC2"
		},
		{
			"bufferView":30,
			"componentType":5123,
			"count":132,
			"type":"SCALAR"
		},
		{
			"bufferView":31,
			"componentType":5126,
			"count":6954,
			"max":[
				6.487600326538086,
				48.68467330932617,
				-2.370656967163086
			],
			"min":[
				-2.7844080924987793,
				-0.774551272392273,
				-3.1865949630737305
			],
			"type":"VEC3"
		},
		{
			"bufferView":32,
			"componentType":5126,
			"count":6954,
			"type":"VEC3"
		},
		{
			"bufferView":33,
			"componentType":5126,
			"count":6954,
			"type":"VEC2"
		},
		{
			"bufferView":34,
			"componentType":5123,
			"count":15492,
			"type":"SCALAR"
		},
		{
			"bufferView":35,
			"componentType":5126,
			"count":24,
			"max":[
				0.3617137372493744,
				3.4311740398406982,
				5.889929294586182
			],
			"min":[
				-0.3617137372493744,
				-3.4311740398406982,
				-5.889929294586182
			],
			"type":"VEC3"
		},
		{
			"bufferView":36,
			"componentType":5126,
			"count":24,
			"type":"VEC3"
		},
		{
			"bufferView":37,
			"componentType":5126,
			"count":24,
			"type":"VEC2"
		},
		{
			"bufferView":38,
			"componentType":5126,
			"count":24,
			"max":[
				0.3617137372493744,
				3.4311740398406982,
				5.889929294586182
			],
			"min":[
				-0.3617137372493744,
				-3.4311740398406982,
				-5.889929294586182
			],
			"type":"VEC3"
		},
		{
			"bufferView":39,
			"componentType":5126,
			"count":24,
			"type":"VEC3"
		},
		{
			"bufferView":40,
			"componentType":5126,
			"count":24,
			"type":"VEC2"
		},
		{
			"bufferView":41,
			"componentType":5126,
			"count":200,
			"max":[
				39.544822692871094,
				24.021841049194336,
				60.612850189208984
			],
			"min":[
				-39.544822692871094,
				-38.423526763916016,
				-48.36664581298828
			],
			"type":"VEC3"
		},
		{
			"bufferView":42,
			"componentType":5126,
			"count":200,
			"type":"VEC3"
		},
		{
			"bufferView":43,
			"componentType":5126,
			"count":200,
			"type":"VEC2"
		},
		{
			"bufferView":44,
			"componentType":5123,
			"count":312,
			"type":"SCALAR"
		},
		{
			"bufferView":45,
			"componentType":5126,
			"count":2112,
			"max":[
				1.0000005960464478,
				33.73912048339844,
				1
			],
			"min":[
				-1,
				-1,
				-1129.392578125
			],
			"type":"VEC3"
		},
		{
			"bufferView":46,
			"componentType":5126,
			"count":2112,
			"type":"VEC3"
		},
		{
			"bufferView":47,
			"componentType":5126,
			"count":2112,
			"type":"VEC2"
		},
		{
			"bufferView":48,
			"componentType":5123,
			"count":4092,
			"type":"SCALAR"
		},
		{
			"bufferView":49,
			"componentType":5126,
			"count":264,
			"max":[
				9.993083953857422,
				32.65214538574219,
				0.3185283839702606
			],
			"min":[
				-0.010755777359008789,
				1.2095136642456055,
				-1129.23876953125
			],
			"type":"VEC3"
		},
		{
			"bufferView":50,
			"componentType":5126,
			"count":264,
			"type":"VEC3"
		},
		{
			"bufferView":51,
			"componentType":5126,
			"count":264,
			"type":"VEC2"
		},
		{
			"bufferView":52,
			"componentType":5123,
			"count":396,
			"type":"SCALAR"
		},
		{
			"bufferView":53,
			"componentType":5126,
			"count":2112,
			"max":[
				1.5871925354003906,
				40.952022552490234,
				1.0000152587890625
			],
			"min":[
				-0.41280806064605713,
				-1.2137868404388428,
				-868.0861206054688
			],
			"type":"VEC3"
		},
		{
			"bufferView":54,
			"componentType":5126,
			"count":2112,
			"type":"VEC3"
		},
		{
			"bufferView":55,
			"componentType":5126,
			"count":2112,
			"type":"VEC2"
		},
		{
			"bufferView":56,
			"componentType":5123,
			"count":4092,
			"type":"SCALAR"
		},
		{
			"bufferView":57,
			"componentType":5126,
			"count":264,
			"max":[
				0.5979483127593994,
				39.63267135620117,
				0.510823130607605
			],
			"min":[
				-9.405891418457031,
				12.232654571533203,
				-867.6392211914062
			],
			"type":"VEC3"
		},
		{
			"bufferView":58,
			"componentType":5126,
			"count":264,
			"type":"VEC3"
		},
		{
			"bufferView":59,
			"componentType":5126,
			"count":264,
			"type":"VEC2"
		},
		{
			"bufferView":60,
			"componentType":5123,
			"count":396,
			"type":"SCALAR"
		},
		{
			"bufferView":61,
			"componentType":5126,
			"count":160,
			"max":[
				1.0478307008743286,
				0,
				9.896492958068848
			],
			"min":[
				-4.73078727722168,
				0,
				-1
			],
			"type":"VEC3"
		},
		{
			"bufferView":62,
			"componentType":5126,
			"count":160,
			"type":"VEC3"
		},
		{
			"bufferView":63,
			"componentType":5126,
			"count":160,
			"type":"VEC2"
		},
		{
			"bufferView":64,
			"componentType":5123,
			"count":450,
			"type":"SCALAR"
		},
		{
			"bufferView":65,
			"componentType":5126,
			"count":4,
			"max":[
				1,
				0,
				1
			],
			"min":[
				-1,
				0,
				-1
			],
			"type":"VEC3"
		},
		{
			"bufferView":66,
			"componentType":5126,
			"count":4,
			"type":"VEC3"
		},
		{
			"bufferView":67,
			"componentType":5126,
			"count":4,
			"type":"VEC2"
		},
		{
			"bufferView":68,
			"componentType":5123,
			"count":6,
			"type":"SCALAR"
		},
		{
			"bufferView":69,
			"componentType":5126,
			"count":1123,
			"max":[
				5.87600040435791,
				0,
				0.23000000417232513
			],
			"min":[
				0.04100000113248825,
				0,
				-0.4580000340938568
			],
			"type":"VEC3"
		},
		{
			"bufferView":70,
			"componentType":5126,
			"count":1123,
			"type":"VEC3"
		},
		{
			"bufferView":71,
			"componentType":5126,
			"count":1123,
			"type":"VEC2"
		},
		{
			"bufferView":72,
			"componentType":5123,
			"count":3333,
			"type":"SCALAR"
		}
	],
	"bufferViews":[
		{
			"buffer":0,
			"byteLength":4200,
			"byteOffset":0,
			"target":34962
		},
		{
			"buffer":0,
			"byteLength":4200,
			"byteOffset":4200,
			"target":34962
		},
		{
			"buffer":0,
			"byteLength":2800,
			"byteOffset":8400,
			"target":34962
		},
		{
			"buffer":0,
			"byteLength":1512,
			"byteOffset":11200,
			"target":34963
		},
		{
			"buffer":0,
			"byteLength":4200,
			"byteOffset":12712,
			"target":34962
		},
		{
			"buffer":0,
			"byteLength":4200,
			"byteOffset":16912,
			"target":34962
		},
		{
			"buffer":0,
			"byteLength":2800,
			"byteOffset":21112,
			"target":34962
		},
		{
			"buffer":0,
			"byteLength":288,
			"byteOffset":23912,
			"target":34962
		},
		{
			"buffer":0,
			"byteLength":288,
			"byteOffset":24200,
			"target":34962
		},
		{
			"buffer":0,
			"byteLength":192,
			"byteOffset":24488,
			"target":34962
		},
		{
			"buffer":0,
			"byteLength":72,
			"byteOffset":24680,
			"target":34963
		},
		{
			"buffer":0,
			"byteLength":288,
			"byteOffset":24752,
			"target":34962
		},
		{
			"buffer":0,
			"byteLength":288,
			"byteOffset":25040,
			"target":34962
		},
		{
			"buffer":0,
			"byteLength":192,
			"byteOffset":25328,
			"target":34962
		},
		{
			"buffer":0,
			"byteLength":1152,
			"byteOffset":25520,
			"target":34962
		},
		{
			"buffer":0,
			"byteLength":1152,
			"byteOffset":26672,
			"target":34962
		},
		{
			"buffer":0,
			"byteLength":768,
			"byteOffset":27824,
			"target":34962
		},
		{
			"buffer":0,
			"byteLength":264,
			"byteOffset":28592,
			"target":34963
		},
		{
			"buffer":0,
			"byteLength":1152,
			"byteOffset":28856,
			"target":34962
		},
		{
			"buffer":0,
			"byteLength":1152,
			"byteOffset":30008,
			"target":34962
		},
		{
			"buffer":0,
			"byteLength":768,
			"byteOffset":31160,
			"target":34962
		},
		{
			"buffer":0,
			"byteLength":1152,
			"byteOffset":31928,
			"target":34962
		},
		{
			"buffer":0,
			"byteLength":1152,
			"byteOffset":33080,
			"target":34962
		},
		{
			"buffer":0,
			"byteLength":768,
			"byteOffset":34232,
			"target":34962
		},
		{
			"buffer":0,
			"byteLength":1152,
			"byteOffset":35000,
			"target":34962
		},
		{
			"buffer":0,
			"byteLength":1152,
			"byteOffset":36152,
			"target":34962
		},
		{
			"buffer":0,
			"byteLength":768,
			"byteOffset":37304,
			"target":34962
		},
		{
			"buffer":0,
			"byteLength":1152,
			"byteOffset":38072,
			"target":34962
		},
		{
			"buffer":0,
			"byteLength":1152,
			"byteOffset":39224,
			"target":34962
		},
		{
			"buffer":0,
			"byteLength":768,
			"byteOffset":40376,
			"target":34962
		},
		{
			"buffer":0,
			"byteLength":264,
			"byteOffset":41144,
			"target":34963
		},
		{
			"buffer":0,
			"byteLength":83448,
			"byteOffset":41408,
			"target":34962
		},
		{
			"buffer":0,
			"byteLength":83448,
			"byteOffset":124856,
			"target":34962
		},
		{
			"buffer":0,
			"byteLength":55632,
			"byteOffset":208304,
			"target":34962
		},
		{
			"buffer":0,
			"byteLength":30984,
			"byteOffset":263936,
			"target":34963
		},
		{
			"buffer":0,
			"byteLength":288,
			"byteOffset":294920,
			"target":34962
		},
		{
			"buffer":0,
			"byteLength":288,
			"byteOffset":295208,
			"target":34962
		},
		{
			"buffer":0,
			"byteLength":192,
			"byteOffset":295496,
			"target":34962
		},
		{
			"buffer":0,
			"byteLength":288,
			"byteOffset":295688,
			"target":34962
		},
		{
			"buffer":0,
			"byteLength":288,
			"byteOffset":295976,
			"target":34962
		},
		{
			"buffer":0,
			"byteLength":192,
			"byteOffset":296264,
			"target":34962
		},
		{
			"buffer":0,
			"byteLength":2400,
			"byteOffset":296456,
			"target":34962
		},
		{
			"buffer":0,
			"byteLength":2400,
			"byteOffset":298856,
			"target":34962
		},
		{
			"buffer":0,
			"byteLength":1600,
			"byteOffset":301256,
			"target":34962
		},
		{
			"buffer":0,
			"byteLength":624,
			"byteOffset":302856,
			"target":34963
		},
		{
			"buffer":0,
			"byteLength":25344,
			"byteOffset":303480,
			"target":34962
		},
		{
			"buffer":0,
			"byteLength":25344,
			"byteOffset":328824,
			"target":34962
		},
		{
			"buffer":0,
			"byteLength":16896,
			"byteOffset":354168,
			"target":34962
		},
		{
			"buffer":0,
			"byteLength":8184,
			"byteOffset":371064,
			"target":34963
		},
		{
			"buffer":0,
			"byteLength":3168,
			"byteOffset":379248,
			"target":34962
		},
		{
			"buffer":0,
			"byteLength":3168,
			"byteOffset":382416,
			"target":34962
		},
		{
			"buffer":0,
			"byteLength":2112,
			"byteOffset":385584,
			"target":34962
		},
		{
			"buffer":0,
			"byteLength":792,
			"byteOffset":387696,
			"target":34963
		},
		{
			"buffer":0,
			"byteLength":25344,
			"byteOffset":388488,
			"target":34962
		},
		{
			"buffer":0,
			"byteLength":25344,
			"byteOffset":413832,
			"target":34962
		},
		{
			"buffer":0,
			"byteLength":16896,
			"byteOffset":439176,
			"target":34962
		},
		{
			"buffer":0,
			"byteLength":8184,
			"byteOffset":456072,
			"target":34963
		},
		{
			"buffer":0,
			"byteLength":3168,
			"byteOffset":464256,
			"target":34962
		},
		{
			"buffer":0,
			"byteLength":3168,
			"byteOffset":467424,
			"target":34962
		},
		{
			"buffer":0,
			"byteLength":2112,
			"byteOffset":470592,
			"target":34962
		},
		{
			"buffer":0,
			"byteLength":792,
			"byteOffset":472704,
			"target":34963
		},
		{
			"buffer":0,
			"byteLength":1920,
			"byteOffset":473496,
			"target":34962
		},
		{
			"buffer":0,
			"byteLength":1920,
			"byteOffset":475416,
			"target":34962
		},
		{
			"buffer":0,
			"byteLength":1280,
			"byteOffset":477336,
			"target":34962
		},
		{
			"buffer":0,
			"byteLength":900,
			"byteOffset":478616,
			"target":34963
		},
		{
			"buffer":0,
			"byteLength":48,
			"byteOffset":479516,
			"target":34962
		},
		{
			"buffer":0,
			"byteLength":48,
			"byteOffset":479564,
			"target":34962
		},
		{
			"buffer":0,
			"byteLength":32,
			"byteOffset":479612,
			"target":34962
		},
		{
			"buffer":0,
			"byteLength":12,
			"byteOffset":479644,
			"target":34963
		},
		{
			"buffer":0,
			"byteLength":13476,
			"byteOffset":479656,
			"target":34962
		},
		{
			"buffer":0,
			"byteLength":13476,
			"byteOffset":493132,
			"target":34962
		},
		{
			"buffer":0,
			"byteLength":8984,
			"byteOffset":506608,
			"target":34962
		},
		{
			"buffer":0,
			"byteLength":6666,
			"byteOffset":515592,
			"target":34963
		}
	],
	"buffers":[
		{
			"byteLength":522260,
			"uri":"ulica.bin"
		}
	]
}
