{
	"asset":{
		"generator":"Khronos glTF Blender I/O v5.0.21",
		"version":"2.0"
	},
	"extensionsUsed":[
		"KHR_lights_punctual",
		"KHR_materials_emissive_strength",
		"KHR_materials_specular"
	],
	"extensionsRequired":[
		"KHR_lights_punctual"
	],
	"extensions":{
		"KHR_lights_punctual":{
			"lights":[
				{
					"color":[
						0.8188204765319824,
						0.9974614381790161,
						1
					],
					"intensity":136.60000203549862,
					"type":"directional",
					"name":"Sun"
				},
				{
					"color":[
						0.9699696898460388,
						0,
						1
					],
					"intensity":1722.9397319882116,
					"type":"point",
					"name":"Point.001"
				},
				{
					"color":[
						0,
						0.19599315524101257,
						1
					],
					"intensity":1722.9397319882116,
					"type":"point",
					"name":"Point.004"
				}
			]
		}
	},
	"scene":1,
	"scenes":[
		{
			"name":"Scene",
			"nodes":[
				58
			]
		},
		{
			"name":"Scene.001",
			"nodes":[
				116
			]
		}
	],
	"nodes":[
		{
			"extensions":{
				"KHR_lights_punctual":{
					"light":0
				}
			},
			"name":"Sun",
			"scale":[
				7.864809036254883,
				7.864809989929199,
				7.864809513092041
			],
			"translation":[
				-6.408939043467399e-06,
				0,
				-0.027820587158203125
			]
		},
		{
			"camera":0,
			"children":[
				0
			],
			"name":"Camera",
			"rotation":[
				-0.2261674851179123,
				-0.3867393136024475,
				-0.09843408316373825,
				0.8885898590087891
			],
			"translation":[
				-26.48244857788086,
				19.329282760620117,
				24.386878967285156
			]
		},
		{
			"mesh":0,
			"name":"Cube",
			"scale":[
				3.9652159214019775,
				3.9652159214019775,
				55.542503356933594
			],
			"translation":[
				-7.424933433532715,
				3.9652152061462402,
				-52.30677032470703
			]
		},
		{
			"mesh":1,
			"name":"Cube.001",
			"rotation":[
				0,
				-1,
				0,
				1.947071694985425e-07
			],
			"scale":[
				3.9652159214019775,
				3.9652159214019775,
				55.542503356933594
			],
			"translation":[
				6.94450569152832,
				3.9652152061462402,
				-52.30677032470703
			]
		},
		{
			"mesh":2,
			"name":"Cube.002",
			"scale":[
				0.7235602736473083,
				0.302904337644577,
				174.43841552734375
			],
			"translation":[
				2.6061904430389404,
				0,
				-15.38034439086914
			]
		},
		{
			"mesh":3,
			"name":"Cube.003",
			"scale":[
				0.7357033491134644,
				0.3079878091812134,
				174.41981506347656
			],
			"translation":[
				-3.0752854347229004,
				0,
				-15.38034439086914
			]
		},
		{
			"mesh":4,
			"name":"Cube.005",
			"scale":[
				0.6237892508506775,
				0.999952495098114,
				0.9950863122940063
			],
			"translation":[
				2.698901891708374,
				0.03043382242321968,
				-0.022087853401899338
			]
		},
		{
			"mesh":5,
			"name":"Cube.006"
		},
		{
			"mesh":6,
			"name":"Cube.007"
		},
		{
			"mesh":7,
			"name":"Cube.008"
		},
		{
			"mesh":8,
			"name":"Cube.009"
		},
		{
			"children":[
				6,
				7,
				8,
				9,
				10
			],
			"mesh":9,
			"name":"Cube.004",
			"rotation":[
				0.0003400547429919243,
				-0.01622104085981846,
				0.00971212051808834,
				0.9998211860656738
			],
			"scale":[
				9.28205394744873,
				9.28205394744873,
				130.01779174804688
			],
			"translation":[
				-37.54722213745117,
				1.3764526844024658,
				147.16610717773438
			]
		},
		{
			"mesh":10,
			"name":"Cube.010",
			"rotation":[
				0.0003400547429919243,
				-0.01622104085981846,
				0.00971212051808834,
				0.9998212456703186
			],
			"scale":[
				1.0622203350067139,
				1.0084148645401,
				1.062239646911621
			],
			"translation":[
				-0.48778462409973145,
				16.330778121948242,
				-169.6006317138672
			]
		},
		{
			"mesh":11,
			"name":"Cube.011",
			"translation":[
				8.441839218139648,
				0.4900911748409271,
				-163.12721252441406
			]
		},
		{
			"mesh":12,
			"name":"Cylinder",
			"scale":[
				0.07693842053413391,
				0.15272092819213867,
				0.07693842053413391
			],
			"translation":[
				-2.856423854827881,
				0.2856268882751465,
				-6.475944519042969
			]
		},
		{
			"mesh":13,
			"name":"Cylinder.001",
			"scale":[
				0.07693842053413391,
				0.15272092819213867,
				0.07693842053413391
			],
			"translation":[
				2.3684139251708984,
				0.2856268882751465,
				-6.475944519042969
			]
		},
		{
			"mesh":14,
			"name":"Cylinder.006",
			"translation":[
				1.5625404119491577,
				0.04168548434972763,
				-12.280990600585938
			]
		},
		{
			"extras":{
				"bounds":true
			},
			"name":"Empty",
			"scale":[
				11.039864540100098,
				11.039864540100098,
				0.3800722360610962
			],
			"translation":[
				0,
				0,
				3.262481689453125
			]
		},
		{
			"extras":{
				"bounds":true
			},
			"name":"Empty.001",
			"scale":[
				4.027822017669678,
				11.039864540100098,
				58.45466995239258
			],
			"translation":[
				-7.400437831878662,
				0,
				-54.860206604003906
			]
		},
		{
			"extras":{
				"bounds":true
			},
			"name":"Empty.002",
			"scale":[
				4.050830841064453,
				11.039864540100098,
				58.521034240722656
			],
			"translation":[
				6.701746940612793,
				0,
				-54.860206604003906
			]
		},
		{
			"extras":{
				"bounds":true
			},
			"name":"Empty.003",
			"scale":[
				7.490573883056641,
				10.010481834411621,
				48.530860900878906
			],
			"translation":[
				27.561786651611328,
				11.017130851745605,
				-161.06936645507812
			]
		},
		{
			"extras":{
				"bounds":true
			},
			"name":"Empty.004",
			"scale":[
				18.40525245666504,
				11.039864540100098,
				0.3800722360610962
			],
			"translation":[
				28.164512634277344,
				10.006953239440918,
				-112.85673522949219
			]
		},
		{
			"extras":{
				"bounds":true
			},
			"name":"Empty.005",
			"scale":[
				9.583291053771973,
				11.040037155151367,
				63.733726501464844
			],
			"translation":[
				-29.146202087402344,
				8.281402587890625,
				-176.90170288085938
			]
		},
		{
			"extras":{
				"bounds":true
			},
			"name":"Empty.006",
			"scale":[
				18.40525245666504,
				11.039864540100098,
				0.3800722360610962
			],
			"translation":[
				-24.273906707763672,
				8.995645523071289,
				-112.99516296386719
			]
		},
		{
			"extras":{
				"bounds":true
			},
			"name":"Empty.031",
			"scale":[
				4.050830841064453,
				11.039864540100098,
				58.521034240722656
			],
			"translation":[
				6.701746940612793,
				0,
				-54.860206604003906
			]
		},
		{
			"extras":{
				"bounds":true
			},
			"name":"Empty.032",
			"rotation":[
				0,
				0,
				-1,
				0
			],
			"scale":[
				-4.9491119384765625,
				-0.39966636896133423,
				-155.25888061523438
			],
			"translation":[
				0,
				-0.3990561366081238,
				-33.047035217285156
			]
		},
		{
			"mesh":15,
			"name":"Plane",
			"scale":[
				363.85711669921875,
				363.85711669921875,
				363.85711669921875
			]
		},
		{
			"extensions":{
				"KHR_lights_punctual":{
					"light":1
				}
			},
			"name":"Point",
			"rotation":[
				-0.7071068286895752,
				0,
				0,
				0.7071068286895752
			],
			"translation":[
				-2.012235164642334,
				5.34878396987915,
				-6.496341705322266
			]
		},
		{
			"extensions":{
				"KHR_lights_punctual":{
					"light":2
				}
			},
			"name":"Point.001",
			"rotation":[
				-0.7071068286895752,
				0,
				0,
				0.7071068286895752
			],
			"translation":[
				1.54384446144104,
				5.34878396987915,
				-10.782859802246094
			]
		},
		{
			"extensions":{
				"KHR_lights_punctual":{
					"light":2
				}
			},
			"name":"Point.002",
			"rotation":[
				-0.7071068286895752,
				0,
				0,
				0.7071068286895752
			],
			"translation":[
				1.5039856433868408,
				5.34878396987915,
				-17.758155822753906
			]
		},
		{
			"mesh":16,
			"name":"Object_2"
		},
		{
			"mesh":17,
			"name":"Object_3"
		},
		{
			"mesh":18,
			"name":"Object_4"
		},
		{
			"mesh":19,
			"name":"Object_5"
		},
		{
			"children":[
				30,
				31,
				32,
				33
			],
			"name":"7bcd02a0e3bf42bb947936073f915f34.obj.cleaner.materialmerger.gles"
		},
		{
			"children":[
				34
			],
			"name":"Sketchfab_model",
			"rotation":[
				-0.7071070075035095,
				0,
				0,
				0.7071065902709961
			],
			"scale":[
				1.635441541671753,
				1.635441780090332,
				1.635441780090332
			],
			"translation":[
				10.841293334960938,
				-0.7777564525604248,
				-144.1439208984375
			]
		},
		{
			"mesh":20,
			"name":"Object_2.001",
			"translation":[
				0,
				3.970360921812244e-06,
				0
			]
		},
		{
			"mesh":21,
			"name":"Object_3.001",
			"translation":[
				0,
				3.970360921812244e-06,
				0
			]
		},
		{
			"mesh":22,
			"name":"Object_4.001",
			"translation":[
				0,
				3.970360921812244e-06,
				0
			]
		},
		{
			"mesh":23,
			"name":"Object_5.001",
			"translation":[
				0,
				3.970360921812244e-06,
				0
			]
		},
		{
			"children":[
				36,
				37,
				38,
				39
			],
			"name":"7bcd02a0e3bf42bb947936073f915f34.obj.cleaner.materialmerger.gles.001",
			"translation":[
				0,
				3.970360921812244e-06,
				0
			]
		},
		{
			"children":[
				40
			],
			"name":"Sketchfab_model.001",
			"rotation":[
				-0.7071070075035095,
				0,
				0,
				0.7071065902709961
			],
			"scale":[
				1.635441541671753,
				1.635441780090332,
				1.635441780090332
			],
			"translation":[
				-8.146156311035156,
				-0.5398961305618286,
				-145.7698974609375
			]
		},
		{
			"mesh":24,
			"name":"Object_2.002"
		},
		{
			"mesh":25,
			"name":"Object_3.002"
		},
		{
			"mesh":26,
			"name":"Object_4.002"
		},
		{
			"mesh":27,
			"name":"Object_5.002"
		},
		{
			"children":[
				42,
				43,
				44,
				45
			],
			"name":"7bcd02a0e3bf42bb947936073f915f34.obj.cleaner.materialmerger.gles.002"
		},
		{
			"children":[
				46
			],
			"name":"Sketchfab_model.002",
			"rotation":[
				-0.7071070075035095,
				0,
				0,
				0.7071065902709961
			],
			"scale":[
				1.635441541671753,
				1.635441780090332,
				1.635441780090332
			],
			"translation":[
				-9.267009735107422,
				-1.0653588771820068,
				-122.64598846435547
			]
		},
		{
			"mesh":28,
			"name":"Object_2.003",
			"translation":[
				0,
				4.033063305541873e-06,
				0
			]
		},
		{
			"mesh":29,
			"name":"Object_3.003",
			"translation":[
				0,
				4.033063305541873e-06,
				0
			]
		},
		{
			"mesh":30,
			"name":"Object_4.003",
			"translation":[
				0,
				4.033063305541873e-06,
				0
			]
		},
		{
			"mesh":31,
			"name":"Object_5.003",
			"translation":[
				0,
				4.033063305541873e-06,
				0
			]
		},
		{
			"children":[
				48,
				49,
				50,
				51
			],
			"name":"7bcd02a0e3bf42bb947936073f915f34.obj.cleaner.materialmerger.gles.003",
			"translation":[
				0,
				4.033063305541873e-06,
				0
			]
		},
		{
			"children":[
				52
			],
			"name":"Sketchfab_model.003",
			"rotation":[
				-0.7071070075035095,
				0,
				0,
				0.7071065902709961
			],
			"scale":[
				1.635441541671753,
				1.635441780090332,
				1.635441780090332
			],
			"translation":[
				10.281315803527832,
				-0.7573683857917786,
				-122.4513168334961
			]
		},
		{
			"mesh":32,
			"name":"Text",
			"rotation":[
				0,
				-0.7071068286895752,
				0.7071068286895752,
				1.3767879636361613e-07
			],
			"translation":[
				2.5590224266052246,
				1.5926592350006104,
				4.244415283203125
			]
		},
		{
			"mesh":33,
			"name":"Text.001",
			"rotation":[
				0,
				-0.7071068286895752,
				0.7071068286895752,
				1.3767879636361613e-07
			],
			"translation":[
				2.5590224266052246,
				1.5926592350006104,
				4.244415283203125
			]
		},
		{
			"mesh":34,
			"name":"Text.006",
			"rotation":[
				0.7071068286895752,
				0,
				0,
				0.7071068286895752
			],
			"translation":[
				-2.7436866760253906,
				2.101026773452759,
				-70.39850616455078
			]
		},
		{
			"extras":{
				"bounds":true,
				"layer":"TRIGGER",
				"mask":"PLAYER",
				"triggerAction":"EnterTower",
				"trigger":true
			},
			"name":"trigger",
			"scale":[
				9.213372230529785,
				10.010481834411621,
				0.9244204163551331
			],
			"translation":[
				-0.22071218490600586,
				8.831733703613281,
				-163.40866088867188
			]
		},
		{
			"children":[
				1,
				2,
				3,
				4,
				5,
				11,
				12,
				13,
				14,
				15,
				16,
				17,
				18,
				19,
				20,
				21,
				22,
				23,
				24,
				25,
				26,
				27,
				28,
				29,
				35,
				41,
				47,
				53,
				54,
				55,
				56,
				57
			],
			"name":"Soba.001",
			"translation":[
				0,
				0,
				65.34021759033203
			]
		},
		{
			"mesh":35,
			"name":"Cube.013",
			"scale":[
				21.300479888916016,
				29.76193618774414,
				29.76193618774414
			],
			"translation":[
				-2.436706066131592,
				21.930667877197266,
				-6.301962852478027
			]
		},
		{
			"mesh":36,
			"name":"Cube.014",
			"rotation":[
				0,
				1,
				0,
				7.549790836947068e-08
			],
			"scale":[
				21.300479888916016,
				29.76193618774414,
				29.76193618774414
			],
			"translation":[
				-114.94024658203125,
				21.759178161621094,
				-432.6536560058594
			]
		},
		{
			"mesh":37,
			"name":"Cube.015",
			"rotation":[
				0,
				-1,
				0,
				7.549789415861596e-08
			],
			"scale":[
				53.296810150146484,
				29.76193618774414,
				96.9335708618164
			],
			"translation":[
				-2.6052513122558594,
				22.26995849609375,
				-121.0305404663086
			]
		},
		{
			"mesh":38,
			"name":"Cube.016",
			"rotation":[
				-1,
				0,
				0,
				4.371139183945161e-08
			],
			"scale":[
				-20.375802993774414,
				-20.375802993774414,
				-71.28324890136719
			],
			"translation":[
				-52.304805755615234,
				4.864696979522705,
				-123.15794372558594
			]
		},
		{
			"extras":{
				"prop1":1.0,
				"autocollision":true
			},
			"mesh":39,
			"name":"Cube.017",
			"rotation":[
				0,
				0,
				1,
				4.371139183945161e-08
			],
			"scale":[
				-20.375802993774414,
				-20.375802993774414,
				-71.28324890136719
			],
			"translation":[
				44.32474136352539,
				4.864696979522705,
				-123.15794372558594
			]
		},
		{
			"mesh":40,
			"name":"Cube.018",
			"scale":[
				29.76193618774414,
				29.76193618774414,
				29.76193618774414
			],
			"translation":[
				-76.16368865966797,
				0.7620816826820374,
				-123.5745620727539
			]
		},
		{
			"mesh":41,
			"name":"Cube.019",
			"scale":[
				29.76193618774414,
				29.76193618774414,
				29.76193618774414
			],
			"translation":[
				67.31476593017578,
				0.7620816826820374,
				-123.5745620727539
			]
		},
		{
			"mesh":42,
			"name":"Cube.020",
			"rotation":[
				0,
				1,
				0,
				7.549790126404332e-08
			],
			"scale":[
				29.76193618774414,
				29.76193618774414,
				29.76193618774414
			],
			"translation":[
				-47.710121154785156,
				12.377326011657715,
				-71.37026977539062
			]
		},
		{
			"mesh":43,
			"name":"Cube.021",
			"rotation":[
				0,
				1,
				0,
				7.549790126404332e-08
			],
			"scale":[
				29.76193618774414,
				29.76193618774414,
				29.76193618774414
			],
			"translation":[
				-46.30411148071289,
				14.53374195098877,
				-161.732421875
			]
		},
		{
			"mesh":44,
			"name":"Cube.022",
			"rotation":[
				0,
				1,
				0,
				7.549790126404332e-08
			],
			"scale":[
				29.76193618774414,
				29.76193618774414,
				29.76193618774414
			],
			"translation":[
				-46.670997619628906,
				14.125323295593262,
				-93.40990447998047
			]
		},
		{
			"mesh":45,
			"name":"Cube.023",
			"scale":[
				29.76193618774414,
				29.76193618774414,
				29.76193618774414
			],
			"translation":[
				37.6891975402832,
				13.447361946105957,
				-173.34153747558594
			]
		},
		{
			"extras":{
				"autocollision":true
			},
			"mesh":46,
			"name":"Cube.024",
			"scale":[
				29.76193618774414,
				29.76193618774414,
				29.76193618774414
			],
			"translation":[
				40.995399475097656,
				14.40028190612793,
				-101.57987976074219
			]
		},
		{
			"mesh":47,
			"name":"Cube.025",
			"scale":[
				29.76193618774414,
				29.76193618774414,
				29.76193618774414
			],
			"translation":[
				40.858863830566406,
				12.260337829589844,
				-144.07371520996094
			]
		},
		{
			"mesh":48,
			"name":"Cube.026",
			"scale":[
				29.76193618774414,
				29.76193618774414,
				29.76193618774414
			],
			"translation":[
				36.5120849609375,
				13.769560813903809,
				-74.42302703857422
			]
		},
		{
			"mesh":49,
			"name":"Cube.027",
			"scale":[
				29.76193618774414,
				29.76193618774414,
				29.76193618774414
			],
			"translation":[
				-69.64432525634766,
				20.792081832885742,
				-231.26792907714844
			]
		},
		{
			"mesh":50,
			"name":"Cube.028",
			"scale":[
				29.76193618774414,
				29.76193618774414,
				29.76193618774414
			],
			"translation":[
				-0.9055942296981812,
				7.127900123596191,
				-242.4622344970703
			]
		},
		{
			"mesh":51,
			"name":"Cube.029",
			"scale":[
				29.76193618774414,
				29.76193618774414,
				29.76193618774414
			]
		},
		{
			"mesh":52,
			"name":"Cube.030",
			"scale":[
				29.76193618774414,
				29.76193618774414,
				29.76193618774414
			],
			"translation":[
				-2.7747724056243896,
				16.17046546936035,
				-34.050880432128906
			]
		},
		{
			"mesh":53,
			"name":"Cube.031",
			"scale":[
				44.570037841796875,
				40.523895263671875,
				43.85967254638672
			],
			"translation":[
				-5.579878807067871,
				17.89629554748535,
				-209.89324951171875
			]
		},
		{
			"mesh":54,
			"name":"Cube.032",
			"scale":[
				52.260005950927734,
				48.3672981262207,
				52.34871292114258
			],
			"translation":[
				-115.516357421875,
				8.968249320983887,
				-254.3544464111328
			]
		},
		{
			"mesh":55,
			"name":"Cube.033",
			"scale":[
				30.226041793823242,
				33.82732009887695,
				37.53322219848633
			],
			"translation":[
				-114.73339080810547,
				13.119221687316895,
				-406.1126403808594
			]
		},
		{
			"extras":{
				"spawnpoint":true,
				"spawnType":"meele"
			},
			"name":"Empty.007",
			"rotation":[
				0,
				-1,
				0,
				4.371139183945161e-08
			],
			"scale":[
				13.333332061767578,
				13.333332061767578,
				13.333332061767578
			],
			"translation":[
				-5.706514358520508,
				1.5181300113908947e-05,
				-115.8792953491211
			]
		},
		{
			"extras":{
				"bounds":true
			},
			"name":"Empty.008",
			"scale":[
				20.4302921295166,
				26.927404403686523,
				69.3580551147461
			],
			"translation":[
				49.01096725463867,
				23.537220001220703,
				-119.85870361328125
			]
		},
		{
			"extras":{
				"bounds":true
			},
			"name":"Empty.009",
			"scale":[
				20.4302921295166,
				26.927404403686523,
				69.3580551147461
			],
			"translation":[
				-57.62828063964844,
				23.537220001220703,
				-119.85870361328125
			]
		},
		{
			"extras":{
				"bounds":true
			},
			"name":"Empty.010",
			"scale":[
				-7.459526538848877,
				-9.831757545471191,
				-10.024252891540527
			],
			"translation":[
				-0.9621116518974304,
				9.529176712036133,
				-244.45472717285156
			]
		},
		{
			"extras":{
				"bounds":true
			},
			"name":"Empty.011",
			"rotation":[
				1,
				0,
				0,
				0
			],
			"scale":[
				-3.190596580505371,
				-26.927400588989258,
				-93.31144714355469
			],
			"translation":[
				-82.1001205444336,
				23.537221908569336,
				-119.7555923461914
			]
		},
		{
			"extras":{
				"bounds":true
			},
			"name":"Empty.012",
			"rotation":[
				1,
				0,
				0,
				0
			],
			"scale":[
				-3.190596580505371,
				-26.927400588989258,
				-93.31144714355469
			],
			"translation":[
				79.9434585571289,
				23.537221908569336,
				-119.7555923461914
			]
		},
		{
			"extras":{
				"bounds":true
			},
			"name":"Empty.013",
			"rotation":[
				1,
				0,
				0,
				0
			],
			"scale":[
				-3.190596580505371,
				-26.927400588989258,
				-94.3774185180664
			],
			"translation":[
				-70.12200927734375,
				23.537221908569336,
				-346.7888488769531
			]
		},
		{
			"extras":{
				"bounds":true
			},
			"name":"Empty.014",
			"rotation":[
				1,
				0,
				0,
				0
			],
			"scale":[
				-3.190596580505371,
				-26.927400588989258,
				-93.31144714355469
			],
			"translation":[
				-162.42510986328125,
				23.537221908569336,
				-346.7888488769531
			]
		},
		{
			"extras":{
				"bounds":true
			},
			"name":"Empty.015",
			"rotation":[
				1,
				0,
				0,
				0
			],
			"scale":[
				-3.190596580505371,
				-26.927400588989258,
				-27.62923240661621
			],
			"translation":[
				-150.6418914794922,
				23.537221908569336,
				-230.08941650390625
			]
		},
		{
			"extras":{
				"bounds":true
			},
			"name":"Empty.016",
			"rotation":[
				0,
				1,
				0,
				0
			],
			"scale":[
				1.5052684545516968,
				26.927400588989258,
				24.7324275970459
			],
			"translation":[
				9.776589393615723,
				23.537221908569336,
				-234.45481872558594
			]
		},
		{
			"extras":{
				"bounds":true
			},
			"name":"Empty.017",
			"rotation":[
				1,
				0,
				0,
				0
			],
			"scale":[
				-3.190596580505371,
				-26.927400588989258,
				-31.604080200195312
			],
			"translation":[
				-84.03009033203125,
				23.537221908569336,
				-433.6850891113281
			]
		},
		{
			"extras":{
				"bounds":true
			},
			"name":"Empty.018",
			"rotation":[
				1,
				0,
				0,
				0
			],
			"scale":[
				-3.190596580505371,
				-26.927400588989258,
				-30.356536865234375
			],
			"translation":[
				-147.279296875,
				23.537221908569336,
				-433.6850891113281
			]
		},
		{
			"extras":{
				"bounds":true
			},
			"name":"Empty.019",
			"rotation":[
				1,
				0,
				0,
				0
			],
			"scale":[
				-3.190596580505371,
				-26.927400588989258,
				-33.102745056152344
			],
			"translation":[
				29.570714950561523,
				23.537221908569336,
				-5.8720927238464355
			]
		},
		{
			"extras":{
				"bounds":true
			},
			"name":"Empty.020",
			"rotation":[
				1,
				0,
				0,
				0
			],
			"scale":[
				-3.190596580505371,
				-26.927400588989258,
				-27.658109664916992
			],
			"translation":[
				-35.10004425048828,
				23.537221908569336,
				-5.8720927238464355
			]
		},
		{
			"extras":{
				"bounds":true
			},
			"name":"Empty.021",
			"rotation":[
				1,
				0,
				0,
				0
			],
			"scale":[
				-22.087793350219727,
				-26.927400588989258,
				-0.848362922668457
			],
			"translation":[
				-83.7090072631836,
				23.537221908569336,
				-404.5553894042969
			]
		},
		{
			"extras":{
				"bounds":true
			},
			"name":"Empty.022",
			"rotation":[
				1,
				0,
				0,
				0
			],
			"scale":[
				-21.120018005371094,
				-26.927400588989258,
				-0.848362922668457
			],
			"translation":[
				-144.58062744140625,
				23.537221908569336,
				-404.5553894042969
			]
		},
		{
			"extras":{
				"bounds":true
			},
			"name":"Empty.023",
			"scale":[
				19.595060348510742,
				26.927400588989258,
				0.848362922668457
			],
			"translation":[
				-150.0327911376953,
				23.537221908569336,
				-253.09396362304688
			]
		},
		{
			"extras":{
				"bounds":true
			},
			"name":"Empty.024",
			"rotation":[
				1,
				0,
				0,
				0
			],
			"scale":[
				-54.291717529296875,
				-26.927400588989258,
				-0.848362922668457
			],
			"translation":[
				-46.735958099365234,
				23.537221908569336,
				-255.55264282226562
			]
		},
		{
			"extras":{
				"bounds":true
			},
			"name":"Empty.025",
			"rotation":[
				1,
				0,
				0,
				0
			],
			"scale":[
				-84.78591918945312,
				-26.927400588989258,
				-0.848362922668457
			],
			"translation":[
				-103.3076171875,
				23.537221908569336,
				-210.5333251953125
			]
		},
		{
			"extras":{
				"bounds":true
			},
			"name":"Empty.026",
			"rotation":[
				1,
				0,
				0,
				0
			],
			"scale":[
				-55.157901763916016,
				-26.927400588989258,
				-0.848362922668457
			],
			"translation":[
				62.56245040893555,
				23.537221908569336,
				-210.5333251953125
			]
		},
		{
			"extras":{
				"bounds":true
			},
			"name":"Empty.027",
			"rotation":[
				1,
				0,
				0,
				0
			],
			"scale":[
				-41.84300231933594,
				-26.927400588989258,
				-0.848362922668457
			],
			"translation":[
				48.924869537353516,
				23.537221908569336,
				-34.63707733154297
			]
		},
		{
			"extras":{
				"bounds":true
			},
			"name":"Empty.028",
			"scale":[
				38.53133773803711,
				26.927400588989258,
				0.848362922668457
			],
			"translation":[
				-50.815460205078125,
				23.537221908569336,
				-34.63707733154297
			]
		},
		{
			"extras":{
				"bounds":true
			},
			"name":"Empty.029",
			"rotation":[
				1,
				0,
				0,
				0
			],
			"scale":[
				-41.84300231933594,
				-26.927400588989258,
				-0.848362922668457
			],
			"translation":[
				-3.8134419918060303,
				23.537221908569336,
				20.823898315429688
			]
		},
		{
			"extras":{
				"bounds":true
			},
			"name":"Empty.030",
			"rotation":[
				1,
				0,
				0,
				0
			],
			"scale":[
				-41.84300231933594,
				-26.927400588989258,
				-0.848362922668457
			],
			"translation":[
				-110.49053192138672,
				23.537221908569336,
				-457.89337158203125
			]
		},
		{
			"extras":{
				"bounds":true
			},
			"name":"Empty.033",
			"rotation":[
				1,
				0,
				0,
				0
			],
			"scale":[
				-248.5541229248047,
				-3.8483073711395264,
				-362.6637268066406
			],
			"translation":[
				8.797513008117676,
				-3.3528096675872803,
				-131.6744842529297
			]
		},
		{
			"extras":{
				"spawnpoint":true,
				"spawnType":"Ranged"
			},
			"name":"Empty.034",
			"scale":[
				13.333332061767578,
				13.333332061767578,
				13.333332061767578
			],
			"translation":[
				-94.26786804199219,
				-3.7953254832245875e-06,
				-335.76495361328125
			]
		},
		{
			"extras":{
				"spawnpoint":true,
				"spawnType":"Ranged"
			},
			"name":"Empty.035",
			"scale":[
				13.333332061767578,
				13.333332061767578,
				13.333332061767578
			],
			"translation":[
				-117.5589599609375,
				0,
				-335.16259765625
			]
		},
		{
			"extras":{
				"spawnpoint":true,
				"spawnType":"Ranged"
			},
			"name":"Empty.036",
			"scale":[
				13.333332061767578,
				13.333332061767578,
				13.333332061767578
			],
			"translation":[
				-138.22206115722656,
				-3.7953254832245875e-06,
				-335.1396484375
			]
		},
		{
			"extras":{
				"spawnpoint":true,
				"spawnType":"player"
			},
			"name":"Empty.037",
			"scale":[
				13.333332061767578,
				13.333332061767578,
				13.333332061767578
			],
			"translation":[
				-3.113478183746338,
				1.5181300113908947e-05,
				-13.567567825317383
			]
		},
		{
			"extras":{
				"spawnpoint":true,
				"spawnType":"katana"
			},
			"name":"Empty.039",
			"rotation":[
				0,
				0.7071068286895752,
				0,
				0.7071068286895752
			],
			"scale":[
				0.13333331048488617,
				0.13333331048488617,
				0.13333331048488617
			],
			"translation":[
				1.6079826354980469,
				0,
				-87.2004623413086
			]
		},
		{
			"mesh":56,
			"name":"Plane.002",
			"scale":[
				254.69998168945312,
				254.69998168945312,
				399.024169921875
			],
			"translation":[
				0,
				0,
				-169.8156280517578
			]
		},
		{
			"mesh":57,
			"name":"Text.002",
			"rotation":[
				0.7071067690849304,
				0,
				0,
				0.7071068286895752
			],
			"scale":[
				8.423043251037598,
				8.423043251037598,
				8.423043251037598
			],
			"translation":[
				-27.969446182250977,
				27.400915145874023,
				-102.10186004638672
			]
		},
		{
			"mesh":58,
			"name":"Text.003",
			"scale":[
				5.140045166015625,
				5.140045166015625,
				5.140045166015625
			],
			"translation":[
				-14.66844367980957,
				3.6041088104248047,
				-95.68803405761719
			]
		},
		{
			"mesh":59,
			"name":"Text.004",
			"rotation":[
				0.7071067690849304,
				0,
				0,
				0.7071068286895752
			],
			"scale":[
				8.423043251037598,
				8.423043251037598,
				8.423043251037598
			],
			"translation":[
				-129.56361389160156,
				33.55461502075195,
				-404.85699462890625
			]
		},
		{
			"mesh":60,
			"name":"Text.005",
			"rotation":[
				0.7071068286895752,
				0,
				0,
				0.7071068286895752
			],
			"scale":[
				6.155694961547852,
				6.155694961547852,
				6.155694961547852
			],
			"translation":[
				-82.48587799072266,
				27.400915145874023,
				-250.91152954101562
			]
		},
		{
			"extras":{
				"bounds":true,
				"prop":1.0,
				"trigger":"EnterLevel1"
			},
			"name":"trigger.001",
			"rotation":[
				1,
				0,
				0,
				0
			],
			"scale":[
				-41.84300231933594,
				-26.927400588989258,
				-0.848362922668457
			],
			"translation":[
				-110.49053192138672,
				23.537221908569336,
				-404.3155822753906
			]
		},
		{
			"children":[
				59,
				60,
				61,
				62,
				63,
				64,
				65,
				66,
				67,
				68,
				69,
				70,
				71,
				72,
				73,
				74,
				75,
				76,
				77,
				78,
				79,
				80,
				81,
				82,
				83,
				84,
				85,
				86,
				87,
				88,
				89,
				90,
				91,
				92,
				93,
				94,
				95,
				96,
				97,
				98,
				99,
				100,
				101,
				102,
				103,
				104,
				105,
				106,
				107,
				108,
				109,
				110,
				111,
				112,
				113,
				114,
				115
			],
			"name":"Soba",
			"scale":[
				0.07500000298023224,
				0.07500000298023224,
				0.07500000298023224
			]
		}
	],
	"cameras":[
		{
			"name":"Camera",
			"perspective":{
				"aspectRatio":1.7777777777777777,
				"yfov":0.39959652046304894,
				"zfar":1000,
				"znear":0.10000000149011612
			},
			"type":"perspective"
		}
	],
	"materials":[
		{
			"doubleSided":true,
			"name":"Material.033",
			"pbrMetallicRoughness":{
				"baseColorFactor":[
					0.7472608089447021,
					0.7472608089447021,
					0.7472608089447021,
					1
				],
				"metallicFactor":0.22480618953704834,
				"roughnessFactor":0.23126614093780518
			}
		},
		{
			"doubleSided":true,
			"name":"Material.036",
			"pbrMetallicRoughness":{
				"baseColorFactor":[
					0.800000011920929,
					0.800000011920929,
					0.800000011920929,
					1
				],
				"metallicFactor":0,
				"roughnessFactor":0.5
			}
		},
		{
			"doubleSided":true,
			"name":"Material.035",
			"pbrMetallicRoughness":{
				"baseColorFactor":[
					0.800000011920929,
					0.800000011920929,
					0.800000011920929,
					1
				],
				"metallicFactor":0,
				"roughnessFactor":0.5
			}
		},
		{
			"doubleSided":true,
			"name":"Material.001",
			"pbrMetallicRoughness":{
				"baseColorFactor":[
					0.7472608089447021,
					0.7472608089447021,
					0.7472608089447021,
					1
				],
				"metallicFactor":0.22480618953704834,
				"roughnessFactor":0.23126614093780518
			}
		},
		{
			"doubleSided":true,
			"name":"Material.007",
			"pbrMetallicRoughness":{
				"baseColorFactor":[
					0,
					0,
					0,
					1
				],
				"metallicFactor":0,
				"roughnessFactor":0.5
			}
		},
		{
			"doubleSided":true,
			"name":"Material.038",
			"pbrMetallicRoughness":{
				"baseColorFactor":[
					0.3162073493003845,
					0.3162073493003845,
					0.3162073493003845,
					1
				],
				"metallicFactor":0,
				"roughnessFactor":0.5
			}
		},
		{
			"doubleSided":true,
			"emissiveFactor":[
				1,
				1,
				1
			],
			"extensions":{
				"KHR_materials_emissive_strength":{
					"emissiveStrength":20
				}
			},
			"name":"Material.041",
			"pbrMetallicRoughness":{
				"baseColorFactor":[
					0.7230703830718994,
					0,
					1,
					1
				],
				"metallicFactor":0,
				"roughnessFactor":0.5
			}
		},
		{
			"doubleSided":true,
			"emissiveFactor":[
				1,
				1,
				1
			],
			"extensions":{
				"KHR_materials_emissive_strength":{
					"emissiveStrength":20
				}
			},
			"name":"Material.037",
			"pbrMetallicRoughness":{
				"baseColorFactor":[
					0,
					0.6738818287849426,
					1,
					1
				],
				"metallicFactor":0,
				"roughnessFactor":0.5
			}
		},
		{
			"doubleSided":true,
			"name":"Material.040",
			"pbrMetallicRoughness":{
				"baseColorFactor":[
					0,
					0,
					0,
					1
				],
				"roughnessFactor":0
			}
		},
		{
			"doubleSided":true,
			"name":"Material",
			"pbrMetallicRoughness":{
				"baseColorFactor":[
					0.001554909162223339,
					0.0015508634969592094,
					0.0015272552845999599,
					1
				],
				"metallicFactor":0,
				"roughnessFactor":0.8701754212379456
			}
		},
		{
			"doubleSided":true,
			"name":"Material.003",
			"pbrMetallicRoughness":{
				"baseColorFactor":[
					0.284912109375,
					0.293212890625,
					0.294921875,
					1
				],
				"metallicFactor":0
			}
		},
		{
			"doubleSided":true,
			"name":"Material.004",
			"pbrMetallicRoughness":{
				"baseColorFactor":[
					0.5972017645835876,
					0.1384316086769104,
					0.35153260827064514,
					1
				],
				"metallicFactor":0
			}
		},
		{
			"doubleSided":true,
			"name":"Material.005",
			"pbrMetallicRoughness":{
				"baseColorFactor":[
					1,
					0.22696587443351746,
					0.5906188488006592,
					1
				],
				"metallicFactor":0
			}
		},
		{
			"doubleSided":true,
			"name":"Material.006",
			"pbrMetallicRoughness":{
				"baseColorFactor":[
					1,
					0.2345505803823471,
					0.3613067865371704,
					1
				],
				"metallicFactor":0
			}
		},
		{
			"doubleSided":true,
			"emissiveFactor":[
				1,
				1,
				1
			],
			"extensions":{
				"KHR_materials_emissive_strength":{
					"emissiveStrength":20
				}
			},
			"name":"Material.039",
			"pbrMetallicRoughness":{
				"baseColorFactor":[
					1,
					0,
					1,
					1
				],
				"metallicFactor":0,
				"roughnessFactor":0.5
			}
		},
		{
			"doubleSided":true,
			"extensions":{
				"KHR_materials_specular":{
					"specularFactor":0.6070175170898438
				}
			},
			"name":"Material.009",
			"pbrMetallicRoughness":{
				"baseColorFactor":[
					0.010960094630718231,
					0.013702084310352802,
					0.023153364658355713,
					1
				],
				"metallicFactor":0,
				"roughnessFactor":0.40175437927246094
			}
		},
		{
			"doubleSided":true,
			"name":"Material.002",
			"pbrMetallicRoughness":{
				"baseColorFactor":[
					0.001554909162223339,
					0.0015508634969592094,
					0.0015272552845999599,
					1
				],
				"metallicFactor":0,
				"roughnessFactor":0.8701754212379456
			}
		},
		{
			"doubleSided":true,
			"emissiveFactor":[
				1,
				1,
				1
			],
			"extensions":{
				"KHR_materials_emissive_strength":{
					"emissiveStrength":20
				}
			},
			"name":"Material.008",
			"pbrMetallicRoughness":{
				"baseColorFactor":[
					1,
					0,
					1,
					1
				],
				"metallicFactor":0,
				"roughnessFactor":0.5
			}
		}
	],
	"meshes":[
		{
			"name":"Cube.007",
			"primitives":[
				{
					"attributes":{
						"POSITION":0,
						"NORMAL":1,
						"TEXCOORD_0":2
					},
					"indices":3,
					"material":0
				}
			]
		},
		{
			"name":"Cube.009",
			"primitives":[
				{
					"attributes":{
						"POSITION":4,
						"NORMAL":5,
						"TEXCOORD_0":6
					},
					"indices":3,
					"material":0
				}
			]
		},
		{
			"name":"Cube.010",
			"primitives":[
				{
					"attributes":{
						"POSITION":7,
						"NORMAL":8,
						"TEXCOORD_0":9
					},
					"indices":10,
					"material":1
				}
			]
		},
		{
			"name":"Cube.011",
			"primitives":[
				{
					"attributes":{
						"POSITION":11,
						"NORMAL":12,
						"TEXCOORD_0":13
					},
					"indices":10,
					"material":2
				}
			]
		},
		{
			"name":"Cube.002",
			"primitives":[
				{
					"attributes":{
						"POSITION":14,
						"NORMAL":15,
						"TEXCOORD_0":16
					},
					"indices":17,
					"material":3
				}
			]
		},
		{
			"name":"Cube.003",
			"primitives":[
				{
					"attributes":{
						"POSITION":18,
						"NORMAL":19,
						"TEXCOORD_0":20
					},
					"indices":17,
					"material":3
				}
			]
		},
		{
			"name":"Cube.004",
			"primitives":[
				{
					"attributes":{
						"POSITION":21,
						"NORMAL":22,
						"TEXCOORD_0":23
					},
					"indices":17,
					"material":3
				}
			]
		},
		{
			"name":"Cube.005",
			"primitives":[
				{
					"attributes":{
						"POSITION":24,
						"NORMAL":25,
						"TEXCOORD_0":26
					},
					"indices":17,
					"material":3
				}
			]
		},
		{
			"name":"Cube.006",
			"primitives":[
				{
					"attributes":{
						"POSITION":27,
						"NORMAL":28,
						"TEXCOORD_0":29
					},
					"indices":30,
					"material":3
				}
			]
		},
		{
			"name":"Cube.001",
			"primitives":[
				{
					"attributes":{
						"POSITION":31,
						"NORMAL":32,
						"TEXCOORD_0":33
					},
					"indices":34,
					"material":3
				}
			]
		},
		{
			"name":"Cube",
			"primitives":[
				{
					"attributes":{
						"POSITION":35,
						"NORMAL":36,
						"TEXCOORD_0":37
					},
					"indices":10,
					"material":4
				}
			]
		},
		{
			"name":"Cube.008",
			"primitives":[
				{
					"attributes":{
						"POSITION":38,
						"NORMAL":39,
						"TEXCOORD_0":40
					},
					"indices":10
				}
			]
		},
		{
			"name":"Cylinder.001",
			"primitives":[
				{
					"attributes":{
						"POSITION":41,
						"NORMAL":42,
						"TEXCOORD_0":43
					},
					"indices":44,
					"material":5
				},
				{
					"attributes":{
						"POSITION":45,
						"NORMAL":46,
						"TEXCOORD_0":47
					},
					"indices":48,
					"material":6
				}
			]
		},
		{
			"name":"Cylinder.002",
			"primitives":[
				{
					"attributes":{
						"POSITION":49,
						"NORMAL":50,
						"TEXCOORD_0":51
					},
					"indices":52,
					"material":5
				},
				{
					"attributes":{
						"POSITION":53,
						"NORMAL":54,
						"TEXCOORD_0":55
					},
					"indices":56,
					"material":7
				}
			]
		},
		{
			"name":"Cylinder.007",
			"primitives":[
				{
					"attributes":{
						"POSITION":57,
						"NORMAL":58,
						"TEXCOORD_0":59
					},
					"indices":60,
					"material":8
				}
			]
		},
		{
			"name":"Plane",
			"primitives":[
				{
					"attributes":{
						"POSITION":61,
						"NORMAL":62,
						"TEXCOORD_0":63
					},
					"indices":64,
					"material":9
				}
			]
		},
		{
			"name":"Object_0",
			"primitives":[
				{
					"attributes":{
						"POSITION":65,
						"NORMAL":66
					},
					"indices":67,
					"material":10
				}
			]
		},
		{
			"name":"Object_1",
			"primitives":[
				{
					"attributes":{
						"POSITION":68,
						"NORMAL":69,
						"TEXCOORD_0":70
					},
					"indices":71,
					"material":11
				}
			]
		},
		{
			"name":"Object_2",
			"primitives":[
				{
					"attributes":{
						"POSITION":72,
						"NORMAL":73,
						"TEXCOORD_0":74
					},
					"indices":75,
					"material":12
				}
			]
		},
		{
			"name":"Object_3",
			"primitives":[
				{
					"attributes":{
						"POSITION":76,
						"NORMAL":77,
						"TEXCOORD_0":78
					},
					"indices":79,
					"material":13
				}
			]
		},
		{
			"name":"Object_0.001",
			"primitives":[
				{
					"attributes":{
						"POSITION":80,
						"NORMAL":81
					},
					"indices":67,
					"material":10
				}
			]
		},
		{
			"name":"Object_1.001",
			"primitives":[
				{
					"attributes":{
						"POSITION":82,
						"NORMAL":83,
						"TEXCOORD_0":84
					},
					"indices":71,
					"material":11
				}
			]
		},
		{
			"name":"Object_2.001",
			"primitives":[
				{
					"attributes":{
						"POSITION":85,
						"NORMAL":86,
						"TEXCOORD_0":87
					},
					"indices":75,
					"material":12
				}
			]
		},
		{
			"name":"Object_3.001",
			"primitives":[
				{
					"attributes":{
						"POSITION":88,
						"NORMAL":89,
						"TEXCOORD_0":90
					},
					"indices":79,
					"material":13
				}
			]
		},
		{
			"name":"Object_0.002",
			"primitives":[
				{
					"attributes":{
						"POSITION":91,
						"NORMAL":92
					},
					"indices":67,
					"material":10
				}
			]
		},
		{
			"name":"Object_1.002",
			"primitives":[
				{
					"attributes":{
						"POSITION":93,
						"NORMAL":94,
						"TEXCOORD_0":95
					},
					"indices":71,
					"material":11
				}
			]
		},
		{
			"name":"Object_2.002",
			"primitives":[
				{
					"attributes":{
						"POSITION":96,
						"NORMAL":97,
						"TEXCOORD_0":98
					},
					"indices":75,
					"material":12
				}
			]
		},
		{
			"name":"Object_3.002",
			"primitives":[
				{
					"attributes":{
						"POSITION":99,
						"NORMAL":100,
						"TEXCOORD_0":101
					},
					"indices":79,
					"material":13
				}
			]
		},
		{
			"name":"Object_0.003",
			"primitives":[
				{
					"attributes":{
						"POSITION":102,
						"NORMAL":103
					},
					"indices":67,
					"material":10
				}
			]
		},
		{
			"name":"Object_1.003",
			"primitives":[
				{
					"attributes":{
						"POSITION":104,
						"NORMAL":105,
						"TEXCOORD_0":106
					},
					"indices":71,
					"material":11
				}
			]
		},
		{
			"name":"Object_2.003",
			"primitives":[
				{
					"attributes":{
						"POSITION":107,
						"NORMAL":108,
						"TEXCOORD_0":109
					},
					"indices":75,
					"material":12
				}
			]
		},
		{
			"name":"Object_3.003",
			"primitives":[
				{
					"attributes":{
						"POSITION":110,
						"NORMAL":111,
						"TEXCOORD_0":112
					},
					"indices":79,
					"material":13
				}
			]
		},
		{
			"name":"Text",
			"primitives":[
				{
					"attributes":{
						"POSITION":113,
						"NORMAL":114,
						"TEXCOORD_0":115
					},
					"indices":116,
					"material":14
				}
			]
		},
		{
			"name":"Text.001",
			"primitives":[
				{
					"attributes":{
						"POSITION":117,
						"NORMAL":118,
						"TEXCOORD_0":119
					},
					"indices":116,
					"material":14
				}
			]
		},
		{
			"name":"Text.006",
			"primitives":[
				{
					"attributes":{
						"POSITION":120,
						"NORMAL":121,
						"TEXCOORD_0":122
					},
					"indices":123,
					"material":14
				}
			]
		},
		{
			"name":"Cube.016",
			"primitives":[
				{
					"attributes":{
						"POSITION":124,
						"NORMAL":125,
						"TEXCOORD_0":126
					},
					"indices":127
				}
			]
		},
		{
			"name":"Cube.014",
			"primitives":[
				{
					"attributes":{
						"POSITION":128,
						"NORMAL":129,
						"TEXCOORD_0":130
					},
					"indices":131
				}
			]
		},
		{
			"name":"Cube.015",
			"primitives":[
				{
					"attributes":{
						"POSITION":132,
						"NORMAL":133,
						"TEXCOORD_0":134
					},
					"indices":135,
					"material":15
				}
			]
		},
		{
			"name":"Cube.018",
			"primitives":[
				{
					"attributes":{
						"POSITION":136,
						"NORMAL":137,
						"TEXCOORD_0":138
					},
					"indices":139
				}
			]
		},
		{
			"name":"Cube.017",
			"primitives":[
				{
					"attributes":{
						"POSITION":140,
						"NORMAL":141,
						"TEXCOORD_0":142
					},
					"indices":139
				}
			]
		},
		{
			"name":"Cube.019",
			"primitives":[
				{
					"attributes":{
						"POSITION":143,
						"NORMAL":144,
						"TEXCOORD_0":145
					},
					"indices":10
				}
			]
		},
		{
			"name":"Cube.020",
			"primitives":[
				{
					"attributes":{
						"POSITION":146,
						"NORMAL":147,
						"TEXCOORD_0":148
					},
					"indices":10
				}
			]
		},
		{
			"name":"Cube.021",
			"primitives":[
				{
					"attributes":{
						"POSITION":149,
						"NORMAL":150,
						"TEXCOORD_0":151
					},
					"indices":10
				}
			]
		},
		{
			"name":"Cube.022",
			"primitives":[
				{
					"attributes":{
						"POSITION":152,
						"NORMAL":153,
						"TEXCOORD_0":154
					},
					"indices":10
				}
			]
		},
		{
			"name":"Cube.023",
			"primitives":[
				{
					"attributes":{
						"POSITION":155,
						"NORMAL":156,
						"TEXCOORD_0":157
					},
					"indices":10
				}
			]
		},
		{
			"name":"Cube.024",
			"primitives":[
				{
					"attributes":{
						"POSITION":158,
						"NORMAL":159,
						"TEXCOORD_0":160
					},
					"indices":10
				}
			]
		},
		{
			"name":"Cube.025",
			"primitives":[
				{
					"attributes":{
						"POSITION":161,
						"NORMAL":162,
						"TEXCOORD_0":163
					},
					"indices":10
				}
			]
		},
		{
			"name":"Cube.026",
			"primitives":[
				{
					"attributes":{
						"POSITION":164,
						"NORMAL":165,
						"TEXCOORD_0":166
					},
					"indices":10
				}
			]
		},
		{
			"name":"Cube.027",
			"primitives":[
				{
					"attributes":{
						"POSITION":167,
						"NORMAL":168,
						"TEXCOORD_0":169
					},
					"indices":10
				}
			]
		},
		{
			"name":"Cube.028",
			"primitives":[
				{
					"attributes":{
						"POSITION":170,
						"NORMAL":171,
						"TEXCOORD_0":172
					},
					"indices":173
				}
			]
		},
		{
			"name":"Cube.029",
			"primitives":[
				{
					"attributes":{
						"POSITION":174,
						"NORMAL":175,
						"TEXCOORD_0":176
					},
					"indices":10
				}
			]
		},
		{
			"name":"Cube.030",
			"primitives":[
				{
					"attributes":{
						"POSITION":177,
						"NORMAL":178,
						"TEXCOORD_0":179
					},
					"indices":180
				}
			]
		},
		{
			"name":"Cube.031",
			"primitives":[
				{
					"attributes":{
						"POSITION":181,
						"NORMAL":182,
						"TEXCOORD_0":183
					},
					"indices":184
				}
			]
		},
		{
			"name":"Cube.032",
			"primitives":[
				{
					"attributes":{
						"POSITION":185,
						"NORMAL":186,
						"TEXCOORD_0":187
					},
					"indices":184
				}
			]
		},
		{
			"name":"Cube.033",
			"primitives":[
				{
					"attributes":{
						"POSITION":188,
						"NORMAL":189,
						"TEXCOORD_0":190
					},
					"indices":184
				}
			]
		},
		{
			"name":"Cube.034",
			"primitives":[
				{
					"attributes":{
						"POSITION":191,
						"NORMAL":192,
						"TEXCOORD_0":193
					},
					"indices":184
				}
			]
		},
		{
			"name":"Plane.002",
			"primitives":[
				{
					"attributes":{
						"POSITION":194,
						"NORMAL":195,
						"TEXCOORD_0":196
					},
					"indices":64,
					"material":16
				}
			]
		},
		{
			"name":"Text.002",
			"primitives":[
				{
					"attributes":{
						"POSITION":197,
						"NORMAL":198,
						"TEXCOORD_0":199
					},
					"indices":200,
					"material":17
				}
			]
		},
		{
			"name":"Text.003",
			"primitives":[
				{
					"attributes":{
						"POSITION":201,
						"NORMAL":202,
						"TEXCOORD_0":203
					},
					"indices":204,
					"material":17
				}
			]
		},
		{
			"name":"Text.004",
			"primitives":[
				{
					"attributes":{
						"POSITION":205,
						"NORMAL":206,
						"TEXCOORD_0":207
					},
					"indices":208,
					"material":17
				}
			]
		},
		{
			"name":"Text.005",
			"primitives":[
				{
					"attributes":{
						"POSITION":209,
						"NORMAL":210,
						"TEXCOORD_0":211
					},
					"indices":212,
					"material":17
				}
			]
		}
	],
	"accessors":[
		{
			"bufferView":0,
			"componentType":5126,
			"count":350,
			"max":[
				1,
				7.592008113861084,
				1
			],
			"min":[
				-1,
				-1,
				-1
			],
			"type":"VEC3"
		},
		{
			"bufferView":1,
			"componentType":5126,
			"count":350,
			"type":"VEC3"
		},
		{
			"bufferView":2,
			"componentType":5126,
			"count":350,
			"type":"VEC2"
		},
		{
			"bufferView":3,
			"componentType":5123,
			"count":756,
			"type":"SCALAR"
		},
		{
			"bufferView":4,
			"componentType":5126,
			"count":350,
			"max":[
				1,
				7.592008113861084,
				1
			],
			"min":[
				-1,
				-1,
				-1
			],
			"type":"VEC3"
		},
		{
			"bufferView":5,
			"componentType":5126,
			"count":350,
			"type":"VEC3"
		},
		{
			"bufferView":6,
			"componentType":5126,
			"count":350,
			"type":"VEC2"
		},
		{
			"bufferView":7,
			"componentType":5126,
			"count":24,
			"max":[
				1,
				1,
				1
			],
			"min":[
				-1,
				-1,
				-1
			],
			"type":"VEC3"
		},
		{
			"bufferView":8,
			"componentType":5126,
			"count":24,
			"type":"VEC3"
		},
		{
			"bufferView":9,
			"componentType":5126,
			"count":24,
			"type":"VEC2"
		},
		{
			"bufferView":10,
			"componentType":5123,
			"count":36,
			"type":"SCALAR"
		},
		{
			"bufferView":11,
			"componentType":5126,
			"count":24,
			"max":[
				1,
				1,
				1
			],
			"min":[
				-1,
				-1,
				-1
			],
			"type":"VEC3"
		},
		{
			"bufferView":12,
			"componentType":5126,
			"count":24,
			"type":"VEC3"
		},
		{
			"bufferView":13,
			"componentType":5126,
			"count":24,
			"type":"VEC2"
		},
		{
			"bufferView":14,
			"componentType":5126,
			"count":96,
			"max":[
				12.182406425476074,
				11.641010284423828,
				-2.4480233192443848
			],
			"min":[
				2.491549015045166,
				-0.7745417356491089,
				-3.096994400024414
			],
			"type":"VEC3"
		},
		{
			"bufferView":15,
			"componentType":5126,
			"count":96,
			"type":"VEC3"
		},
		{
			"bufferView":16,
			"componentType":5126,
			"count":96,
			"type":"VEC2"
		},
		{
			"bufferView":17,
			"componentType":5123,
			"count":132,
			"type":"SCALAR"
		},
		{
			"bufferView":18,
			"componentType":5126,
			"count":96,
			"max":[
				11.331819534301758,
				4.9805731773376465,
				-2.3268768787384033
			],
			"min":[
				5.815366268157959,
				-0.8397032022476196,
				-2.6974194049835205
			],
			"type":"VEC3"
		},
		{
			"bufferView":19,
			"componentType":5126,
			"count":96,
			"type":"VEC3"
		},
		{
			"bufferView":20,
			"componentType":5126,
			"count":96,
			"type":"VEC2"
		},
		{
			"bufferView":21,
			"componentType":5126,
			"count":96,
			"max":[
				0.2782309055328369,
				7.889298915863037,
				-2.901620388031006
			],
			"min":[
				-4.369531631469727,
				-0.7745529413223267,
				-3.3737339973449707
			],
			"type":"VEC3"
		},
		{
			"bufferView":22,
			"componentType":5126,
			"count":96,
			"type":"VEC3"
		},
		{
			"bufferView":23,
			"componentType":5126,
			"count":96,
			"type":"VEC2"
		},
		{
			"bufferView":24,
			"componentType":5126,
			"count":96,
			"max":[
				8.433667182922363,
				29.314340591430664,
				-2.634136438369751
			],
			"min":[
				3.956066846847534,
				11.641011238098145,
				-3.005011796951294
			],
			"type":"VEC3"
		},
		{
			"bufferView":25,
			"componentType":5126,
			"count":96,
			"type":"VEC3"
		},
		{
			"bufferView":26,
			"componentType":5126,
			"count":96,
			"type":"VEC2"
		},
		{
			"bufferView":27,
			"componentType":5126,
			"count":96,
			"max":[
				8.96369743347168,
				24.951602935791016,
				-2.5744943618774414
			],
			"min":[
				5.987144947052002,
				11.641010284423828,
				-2.7303647994995117
			],
			"type":"VEC3"
		},
		{
			"bufferView":28,
			"componentType":5126,
			"count":96,
			"type":"VEC3"
		},
		{
			"bufferView":29,
			"componentType":5126,
			"count":96,
			"type":"VEC2"
		},
		{
			"bufferView":30,
			"componentType":5123,
			"count":132,
			"type":"SCALAR"
		},
		{
			"bufferView":31,
			"componentType":5126,
			"count":6928,
			"max":[
				6.487600326538086,
				48.68467330932617,
				-2.370656967163086
			],
			"min":[
				-2.7844080924987793,
				-0.774551272392273,
				-3.1865949630737305
			],
			"type":"VEC3"
		},
		{
			"bufferView":32,
			"componentType":5126,
			"count":6928,
			"type":"VEC3"
		},
		{
			"bufferView":33,
			"componentType":5126,
			"count":6928,
			"type":"VEC2"
		},
		{
			"bufferView":34,
			"componentType":5123,
			"count":15441,
			"type":"SCALAR"
		},
		{
			"bufferView":35,
			"componentType":5126,
			"count":24,
			"max":[
				7.804692268371582,
				16.150257110595703,
				2.6931750774383545
			],
			"min":[
				-7.804692268371582,
				-16.150257110595703,
				-2.6931750774383545
			],
			"type":"VEC3"
		},
		{
			"bufferView":36,
			"componentType":5126,
			"count":24,
			"type":"VEC3"
		},
		{
			"bufferView":37,
			"componentType":5126,
			"count":24,
			"type":"VEC2"
		},
		{
			"bufferView":38,
			"componentType":5126,
			"count":24,
			"max":[
				0.7579243183135986,
				0.4900932312011719,
				3.3156509399414062
			],
			"min":[
				-0.7579243183135986,
				-0.4900932312011719,
				-3.3156509399414062
			],
			"type":"VEC3"
		},
		{
			"bufferView":39,
			"componentType":5126,
			"count":24,
			"type":"VEC3"
		},
		{
			"bufferView":40,
			"componentType":5126,
			"count":24,
			"type":"VEC2"
		},
		{
			"bufferView":41,
			"componentType":5126,
			"count":2112,
			"max":[
				1.0000005960464478,
				33.73912048339844,
				1
			],
			"min":[
				-1,
				-1,
				-1129.392578125
			],
			"type":"VEC3"
		},
		{
			"bufferView":42,
			"componentType":5126,
			"count":2112,
			"type":"VEC3"
		},
		{
			"bufferView":43,
			"componentType":5126,
			"count":2112,
			"type":"VEC2"
		},
		{
			"bufferView":44,
			"componentType":5123,
			"count":4092,
			"type":"SCALAR"
		},
		{
			"bufferView":45,
			"componentType":5126,
			"count":264,
			"max":[
				9.993083953857422,
				32.65214538574219,
				0.3185283839702606
			],
			"min":[
				-0.010755777359008789,
				1.2095136642456055,
				-1129.23876953125
			],
			"type":"VEC3"
		},
		{
			"bufferView":46,
			"componentType":5126,
			"count":264,
			"type":"VEC3"
		},
		{
			"bufferView":47,
			"componentType":5126,
			"count":264,
			"type":"VEC2"
		},
		{
			"bufferView":48,
			"componentType":5123,
			"count":396,
			"type":"SCALAR"
		},
		{
			"bufferView":49,
			"componentType":5126,
			"count":2112,
			"max":[
				1.5871925354003906,
				40.952022552490234,
				1.0000152587890625
			],
			"min":[
				-0.41280806064605713,
				-1.2137868404388428,
				-868.0861206054688
			],
			"type":"VEC3"
		},
		{
			"bufferView":50,
			"componentType":5126,
			"count":2112,
			"type":"VEC3"
		},
		{
			"bufferView":51,
			"componentType":5126,
			"count":2112,
			"type":"VEC2"
		},
		{
			"bufferView":52,
			"componentType":5123,
			"count":4092,
			"type":"SCALAR"
		},
		{
			"bufferView":53,
			"componentType":5126,
			"count":264,
			"max":[
				0.5979483127593994,
				39.63267135620117,
				0.510823130607605
			],
			"min":[
				-9.405891418457031,
				12.232654571533203,
				-867.6392211914062
			],
			"type":"VEC3"
		},
		{
			"bufferView":54,
			"componentType":5126,
			"count":264,
			"type":"VEC3"
		},
		{
			"bufferView":55,
			"componentType":5126,
			"count":264,
			"type":"VEC2"
		},
		{
			"bufferView":56,
			"componentType":5123,
			"count":396,
			"type":"SCALAR"
		},
		{
			"bufferView":57,
			"componentType":5126,
			"count":160,
			"max":[
				1.0478307008743286,
				0,
				9.896492958068848
			],
			"min":[
				-4.73078727722168,
				0,
				-1
			],
			"type":"VEC3"
		},
		{
			"bufferView":58,
			"componentType":5126,
			"count":160,
			"type":"VEC3"
		},
		{
			"bufferView":59,
			"componentType":5126,
			"count":160,
			"type":"VEC2"
		},
		{
			"bufferView":60,
			"componentType":5123,
			"count":450,
			"type":"SCALAR"
		},
		{
			"bufferView":61,
			"componentType":5126,
			"count":4,
			"max":[
				1,
				0,
				1
			],
			"min":[
				-1,
				0,
				-1
			],
			"type":"VEC3"
		},
		{
			"bufferView":62,
			"componentType":5126,
			"count":4,
			"type":"VEC3"
		},
		{
			"bufferView":63,
			"componentType":5126,
			"count":4,
			"type":"VEC2"
		},
		{
			"bufferView":64,
			"componentType":5123,
			"count":6,
			"type":"SCALAR"
		},
		{
			"bufferView":65,
			"componentType":5126,
			"count":1421,
			"max":[
				2.134927988052368,
				1.9815800189971924,
				3.4820780754089355
			],
			"min":[
				-1.9348750114440918,
				-1.2242560386657715,
				0.2614530026912689
			],
			"type":"VEC3"
		},
		{
			"bufferView":66,
			"componentType":5126,
			"count":1421,
			"type":"VEC3"
		},
		{
			"bufferView":67,
			"componentType":5123,
			"count":2955,
			"type":"SCALAR"
		},
		{
			"bufferView":68,
			"componentType":5126,
			"count":4320,
			"max":[
				2.634058952331543,
				2.2330639362335205,
				4.519735813140869
			],
			"min":[
				-2.1382288932800293,
				-1.6556169986724854,
				2.019942045211792
			],
			"type":"VEC3"
		},
		{
			"bufferView":69,
			"componentType":5126,
			"count":4320,
			"type":"VEC3"
		},
		{
			"bufferView":70,
			"componentType":5126,
			"count":4320,
			"type":"VEC2"
		},
		{
			"bufferView":71,
			"componentType":5123,
			"count":4320,
			"type":"SCALAR"
		},
		{
			"bufferView":72,
			"componentType":5126,
			"count":540,
			"max":[
				1.8788130283355713,
				2.3921959400177,
				4.520246982574463
			],
			"min":[
				-2.338876962661743,
				-1.6003930568695068,
				2.1637039184570312
			],
			"type":"VEC3"
		},
		{
			"bufferView":73,
			"componentType":5126,
			"count":540,
			"type":"VEC3"
		},
		{
			"bufferView":74,
			"componentType":5126,
			"count":540,
			"type":"VEC2"
		},
		{
			"bufferView":75,
			"componentType":5123,
			"count":540,
			"type":"SCALAR"
		},
		{
			"bufferView":76,
			"componentType":5126,
			"count":3076,
			"max":[
				2.5417699813842773,
				2.430954933166504,
				4.528809070587158
			],
			"min":[
				-2.293256998062134,
				-1.3857090473175049,
				2.3168230056762695
			],
			"type":"VEC3"
		},
		{
			"bufferView":77,
			"componentType":5126,
			"count":3076,
			"type":"VEC3"
		},
		{
			"bufferView":78,
			"componentType":5126,
			"count":3076,
			"type":"VEC2"
		},
		{
			"bufferView":79,
			"componentType":5123,
			"count":4320,
			"type":"SCALAR"
		},
		{
			"bufferView":80,
			"componentType":5126,
			"count":1421,
			"max":[
				2.134927988052368,
				1.9815800189971924,
				3.4820780754089355
			],
			"min":[
				-1.9348750114440918,
				-1.2242560386657715,
				0.2614530026912689
			],
			"type":"VEC3"
		},
		{
			"bufferView":81,
			"componentType":5126,
			"count":1421,
			"type":"VEC3"
		},
		{
			"bufferView":82,
			"componentType":5126,
			"count":4320,
			"max":[
				2.634058952331543,
				2.2330639362335205,
				4.519735813140869
			],
			"min":[
				-2.1382288932800293,
				-1.6556169986724854,
				2.019942045211792
			],
			"type":"VEC3"
		},
		{
			"bufferView":83,
			"componentType":5126,
			"count":4320,
			"type":"VEC3"
		},
		{
			"bufferView":84,
			"componentType":5126,
			"count":4320,
			"type":"VEC2"
		},
		{
			"bufferView":85,
			"componentType":5126,
			"count":540,
			"max":[
				1.8788130283355713,
				2.3921959400177,
				4.520246982574463
			],
			"min":[
				-2.338876962661743,
				-1.6003930568695068,
				2.1637039184570312
			],
			"type":"VEC3"
		},
		{
			"bufferView":86,
			"componentType":5126,
			"count":540,
			"type":"VEC3"
		},
		{
			"bufferView":87,
			"componentType":5126,
			"count":540,
			"type":"VEC2"
		},
		{
			"bufferView":88,
			"componentType":5126,
			"count":3076,
			"max":[
				2.5417699813842773,
				2.430954933166504,
				4.528809070587158
			],
			"min":[
				-2.293256998062134,
				-1.3857090473175049,
				2.3168230056762695
			],
			"type":"VEC3"
		},
		{
			"bufferView":89,
			"componentType":5126,
			"count":3076,
			"type":"VEC3"
		},
		{
			"bufferView":90,
			"componentType":5126,
			"count":3076,
			"type":"VEC2"
		},
		{
			"bufferView":91,
			"componentType":5126,
			"count":1421,
			"max":[
				2.134927988052368,
				1.9815800189971924,
				3.4820780754089355
			],
			"min":[
				-1.9348750114440918,
				-1.2242560386657715,
				0.2614530026912689
			],
			"type":"VEC3"
		},
		{
			"bufferView":92,
			"componentType":5126,
			"count":1421,
			"type":"VEC3"
		},
		{
			"bufferView":93,
			"componentType":5126,
			"count":4320,
			"max":[
				2.634058952331543,
				2.2330639362335205,
				4.519735813140869
			],
			"min":[
				-2.1382288932800293,
				-1.6556169986724854,
				2.019942045211792
			],
			"type":"VEC3"
		},
		{
			"bufferView":94,
			"componentType":5126,
			"count":4320,
			"type":"VEC3"
		},
		{
			"bufferView":95,
			"componentType":5126,
			"count":4320,
			"type":"VEC2"
		},
		{
			"bufferView":96,
			"componentType":5126,
			"count":540,
			"max":[
				1.8788130283355713,
				2.3921959400177,
				4.520246982574463
			],
			"min":[
				-2.338876962661743,
				-1.6003930568695068,
				2.1637039184570312
			],
			"type":"VEC3"
		},
		{
			"bufferView":97,
			"componentType":5126,
			"count":540,
			"type":"VEC3"
		},
		{
			"bufferView":98,
			"componentType":5126,
			"count":540,
			"type":"VEC2"
		},
		{
			"bufferView":99,
			"componentType":5126,
			"count":3076,
			"max":[
				2.5417699813842773,
				2.430954933166504,
				4.528809070587158
			],
			"min":[
				-2.293256998062134,
				-1.3857090473175049,
				2.3168230056762695
			],
			"type":"VEC3"
		},
		{
			"bufferView":100,
			"componentType":5126,
			"count":3076,
			"type":"VEC3"
		},
		{
			"bufferView":101,
			"componentType":5126,
			"count":3076,
			"type":"VEC2"
		},
		{
			"bufferView":102,
			"componentType":5126,
			"count":1421,
			"max":[
				2.134927988052368,
				1.9815800189971924,
				3.4820780754089355
			],
			"min":[
				-1.9348750114440918,
				-1.2242560386657715,
				0.2614530026912689
			],
			"type":"VEC3"
		},
		{
			"bufferView":103,
			"componentType":5126,
			"count":1421,
			"type":"VEC3"
		},
		{
			"bufferView":104,
			"componentType":5126,
			"count":4320,
			"max":[
				2.634058952331543,
				2.2330639362335205,
				4.519735813140869
			],
			"min":[
				-2.1382288932800293,
				-1.6556169986724854,
				2.019942045211792
			],
			"type":"VEC3"
		},
		{
			"bufferView":105,
			"componentType":5126,
			"count":4320,
			"type":"VEC3"
		},
		{
			"bufferView":106,
			"componentType":5126,
			"count":4320,
			"type":"VEC2"
		},
		{
			"bufferView":107,
			"componentType":5126,
			"count":540,
			"max":[
				1.8788130283355713,
				2.3921959400177,
				4.520246982574463
			],
			"min":[
				-2.338876962661743,
				-1.6003930568695068,
				2.1637039184570312
			],
			"type":"VEC3"
		},
		{
			"bufferView":108,
			"componentType":5126,
			"count":540,
			"type":"VEC3"
		},
		{
			"bufferView":109,
			"componentType":5126,
			"count":540,
			"type":"VEC2"
		},
		{
			"bufferView":110,
			"componentType":5126,
			"count":3076,
			"max":[
				2.5417699813842773,
				2.430954933166504,
				4.528809070587158
			],
			"min":[
				-2.293256998062134,
				-1.3857090473175049,
				2.3168230056762695
			],
			"type":"VEC3"
		},
		{
			"bufferView":111,
			"componentType":5126,
			"count":3076,
			"type":"VEC3"
		},
		{
			"bufferView":112,
			"componentType":5126,
			"count":3076,
			"type":"VEC2"
		},
		{
			"bufferView":113,
			"componentType":5126,
			"count":1123,
			"max":[
				5.87600040435791,
				0,
				0.23000000417232513
			],
			"min":[
				0.04100000113248825,
				0,
				-0.4580000340938568
			],
			"type":"VEC3"
		},
		{
			"bufferView":114,
			"componentType":5126,
			"count":1123,
			"type":"VEC3"
		},
		{
			"bufferView":115,
			"componentType":5126,
			"count":1123,
			"type":"VEC2"
		},
		{
			"bufferView":116,
			"componentType":5123,
			"count":3333,
			"type":"SCALAR"
		},
		{
			"bufferView":117,
			"componentType":5126,
			"count":1123,
			"max":[
				5.87600040435791,
				0,
				0.23000000417232513
			],
			"min":[
				0.04100000113248825,
				0,
				-0.4580000340938568
			],
			"type":"VEC3"
		},
		{
			"bufferView":118,
			"componentType":5126,
			"count":1123,
			"type":"VEC3"
		},
		{
			"bufferView":119,
			"componentType":5126,
			"count":1123,
			"type":"VEC2"
		},
		{
			"bufferView":120,
			"componentType":5126,
			"count":639,
			"max":[
				5.504000186920166,
				0,
				0.009000000543892384
			],
			"min":[
				0.017000000923871994,
				0,
				-0.6820000410079956
			],
			"type":"VEC3"
		},
		{
			"bufferView":121,
			"componentType":5126,
			"count":639,
			"type":"VEC3"
		},
		{
			"bufferView":122,
			"componentType":5126,
			"count":639,
			"type":"VEC2"
		},
		{
			"bufferView":123,
			"componentType":5123,
			"count":1881,
			"type":"SCALAR"
		},
		{
			"bufferView":124,
			"componentType":5126,
			"count":22,
			"max":[
				1.5067071914672852,
				0.74826979637146,
				0.8968861103057861
			],
			"min":[
				-1.5067071914672852,
				-0.74826979637146,
				-0.8968861103057861
			],
			"type":"VEC3"
		},
		{
			"bufferView":125,
			"componentType":5126,
			"count":22,
			"type":"VEC3"
		},
		{
			"bufferView":126,
			"componentType":5126,
			"count":22,
			"type":"VEC2"
		},
		{
			"bufferView":127,
			"componentType":5123,
			"count":42,
			"type":"SCALAR"
		},
		{
			"bufferView":128,
			"componentType":5126,
			"count":44,
			"max":[
				2.911968231201172,
				0.774573564529419,
				2.210358142852783
			],
			"min":[
				-12.583625793457031,
				-0.74826979637146,
				-16.632583618164062
			],
			"type":"VEC3"
		},
		{
			"bufferView":129,
			"componentType":5126,
			"count":44,
			"type":"VEC3"
		},
		{
			"bufferView":130,
			"componentType":5126,
			"count":44,
			"type":"VEC2"
		},
		{
			"bufferView":131,
			"componentType":5123,
			"count":72,
			"type":"SCALAR"
		},
		{
			"bufferView":132,
			"componentType":5126,
			"count":134,
			"max":[
				3.046109676361084,
				0.74826979637146,
				2.930204391479492
			],
			"min":[
				-1.5067071914672852,
				-1.2184076309204102,
				-0.8968861103057861
			],
			"type":"VEC3"
		},
		{
			"bufferView":133,
			"componentType":5126,
			"count":134,
			"type":"VEC3"
		},
		{
			"bufferView":134,
			"componentType":5126,
			"count":134,
			"type":"VEC2"
		},
		{
			"bufferView":135,
			"componentType":5123,
			"count":297,
			"type":"SCALAR"
		},
		{
			"bufferView":136,
			"componentType":5126,
			"count":24,
			"max":[
				0.7711740732192993,
				0.3160719871520996,
				0.8546100854873657
			],
			"min":[
				-0.7711740732192993,
				-0.3160719871520996,
				-0.8546100854873657
			],
			"type":"VEC3"
		},
		{
			"bufferView":137,
			"componentType":5126,
			"count":24,
			"type":"VEC3"
		},
		{
			"bufferView":138,
			"componentType":5126,
			"count":24,
			"type":"VEC2"
		},
		{
			"bufferView":139,
			"componentType":5123,
			"count":36,
			"type":"SCALAR"
		},
		{
			"bufferView":140,
			"componentType":5126,
			"count":24,
			"max":[
				0.7711740732192993,
				0.3160719871520996,
				0.8546100854873657
			],
			"min":[
				-0.7711740732192993,
				-0.3160719871520996,
				-0.8546100854873657
			],
			"type":"VEC3"
		},
		{
			"bufferView":141,
			"componentType":5126,
			"count":24,
			"type":"VEC3"
		},
		{
			"bufferView":142,
			"componentType":5126,
			"count":24,
			"type":"VEC2"
		},
		{
			"bufferView":143,
			"componentType":5126,
			"count":24,
			"max":[
				0.0934748649597168,
				0.025605440139770508,
				2.0231759548187256
			],
			"min":[
				-0.0934748649597168,
				-0.025605440139770508,
				-2.0231759548187256
			],
			"type":"VEC3"
		},
		{
			"bufferView":144,
			"componentType":5126,
			"count":24,
			"type":"VEC3"
		},
		{
			"bufferView":145,
			"componentType":5126,
			"count":24,
			"type":"VEC2"
		},
		{
			"bufferView":146,
			"componentType":5126,
			"count":24,
			"max":[
				0.0934748649597168,
				0.025605440139770508,
				2.0231759548187256
			],
			"min":[
				-0.0934748649597168,
				-0.025605440139770508,
				-2.0231759548187256
			],
			"type":"VEC3"
		},
		{
			"bufferView":147,
			"componentType":5126,
			"count":24,
			"type":"VEC3"
		},
		{
			"bufferView":148,
			"componentType":5126,
			"count":24,
			"type":"VEC2"
		},
		{
			"bufferView":149,
			"componentType":5126,
			"count":24,
			"max":[
				0.12168765068054199,
				0.0360332727432251,
				0.10501396656036377
			],
			"min":[
				-0.12168765068054199,
				-0.0360332727432251,
				-0.10501396656036377
			],
			"type":"VEC3"
		},
		{
			"bufferView":150,
			"componentType":5126,
			"count":24,
			"type":"VEC3"
		},
		{
			"bufferView":151,
			"componentType":5126,
			"count":24,
			"type":"VEC2"
		},
		{
			"bufferView":152,
			"componentType":5126,
			"count":24,
			"max":[
				0.14434814453125,
				0.10848832130432129,
				0.18983864784240723
			],
			"min":[
				-0.14434814453125,
				-0.10848832130432129,
				-0.18983864784240723
			],
			"type":"VEC3"
		},
		{
			"bufferView":153,
			"componentType":5126,
			"count":24,
			"type":"VEC3"
		},
		{
			"bufferView":154,
			"componentType":5126,
			"count":24,
			"type":"VEC2"
		},
		{
			"bufferView":155,
			"componentType":5126,
			"count":24,
			"max":[
				0.1372087001800537,
				0.09476542472839355,
				0.1447354555130005
			],
			"min":[
				-0.1372087001800537,
				-0.09476542472839355,
				-0.1447354555130005
			],
			"type":"VEC3"
		},
		{
			"bufferView":156,
			"componentType":5126,
			"count":24,
			"type":"VEC3"
		},
		{
			"bufferView":157,
			"componentType":5126,
			"count":24,
			"type":"VEC2"
		},
		{
			"bufferView":158,
			"componentType":5126,
			"count":24,
			"max":[
				0.10182279348373413,
				0.07198643684387207,
				0.14509820938110352
			],
			"min":[
				-0.10182279348373413,
				-0.07198643684387207,
				-0.14509820938110352
			],
			"type":"VEC3"
		},
		{
			"bufferView":159,
			"componentType":5126,
			"count":24,
			"type":"VEC3"
		},
		{
			"bufferView":160,
			"componentType":5126,
			"count":24,
			"type":"VEC2"
		},
		{
			"bufferView":161,
			"componentType":5126,
			"count":24,
			"max":[
				0.1280221939086914,
				0.10400378704071045,
				0.19173455238342285
			],
			"min":[
				-0.1280221939086914,
				-0.10400378704071045,
				-0.19173455238342285
			],
			"type":"VEC3"
		},
		{
			"bufferView":162,
			"componentType":5126,
			"count":24,
			"type":"VEC3"
		},
		{
			"bufferView":163,
			"componentType":5126,
			"count":24,
			"type":"VEC2"
		},
		{
			"bufferView":164,
			"componentType":5126,
			"count":24,
			"max":[
				0.07968735694885254,
				0.03210151195526123,
				0.15809106826782227
			],
			"min":[
				-0.07968735694885254,
				-0.03210151195526123,
				-0.15809106826782227
			],
			"type":"VEC3"
		},
		{
			"bufferView":165,
			"componentType":5126,
			"count":24,
			"type":"VEC3"
		},
		{
			"bufferView":166,
			"componentType":5126,
			"count":24,
			"type":"VEC2"
		},
		{
			"bufferView":167,
			"componentType":5126,
			"count":24,
			"max":[
				0.10808563232421875,
				0.08281207084655762,
				0.2071220874786377
			],
			"min":[
				-0.10808563232421875,
				-0.08281207084655762,
				-0.2071220874786377
			],
			"type":"VEC3"
		},
		{
			"bufferView":168,
			"componentType":5126,
			"count":24,
			"type":"VEC3"
		},
		{
			"bufferView":169,
			"componentType":5126,
			"count":24,
			"type":"VEC2"
		},
		{
			"bufferView":170,
			"componentType":5126,
			"count":28,
			"max":[
				2.725773572921753,
				0.7835514545440674,
				0.7161126136779785
			],
			"min":[
				-2.725773572921753,
				-0.7835514545440674,
				-0.7161126136779785
			],
			"type":"VEC3"
		},
		{
			"bufferView":171,
			"componentType":5126,
			"count":28,
			"type":"VEC3"
		},
		{
			"bufferView":172,
			"componentType":5126,
			"count":28,
			"type":"VEC2"
		},
		{
			"bufferView":173,
			"componentType":5123,
			"count":66,
			"type":"SCALAR"
		},
		{
			"bufferView":174,
			"componentType":5126,
			"count":24,
			"max":[
				0.2682003974914551,
				0.23949718475341797,
				0.21766448020935059
			],
			"min":[
				-0.2682003974914551,
				-0.23949718475341797,
				-0.21766448020935059
			],
			"type":"VEC3"
		},
		{
			"bufferView":175,
			"componentType":5126,
			"count":24,
			"type":"VEC3"
		},
		{
			"bufferView":176,
			"componentType":5126,
			"count":24,
			"type":"VEC2"
		},
		{
			"bufferView":177,
			"componentType":5126,
			"count":14,
			"max":[
				0,
				0,
				0
			],
			"min":[
				0,
				0,
				0
			],
			"type":"VEC3"
		},
		{
			"bufferView":178,
			"componentType":5126,
			"count":14,
			"type":"VEC3"
		},
		{
			"bufferView":179,
			"componentType":5126,
			"count":14,
			"type":"VEC2"
		},
		{
			"bufferView":180,
			"componentType":5123,
			"count":36,
			"type":"SCALAR"
		},
		{
			"bufferView":181,
			"componentType":5126,
			"count":16,
			"max":[
				0.2916327118873596,
				0.5433275699615479,
				0.04060933366417885
			],
			"min":[
				-0.2916327118873596,
				-0.5433275699615479,
				-0.00028803572058677673
			],
			"type":"VEC3"
		},
		{
			"bufferView":182,
			"componentType":5126,
			"count":16,
			"type":"VEC3"
		},
		{
			"bufferView":183,
			"componentType":5126,
			"count":16,
			"type":"VEC2"
		},
		{
			"bufferView":184,
			"componentType":5123,
			"count":24,
			"type":"SCALAR"
		},
		{
			"bufferView":185,
			"componentType":5126,
			"count":16,
			"max":[
				0.2916327118873596,
				0.5433275699615479,
				0.04060933366417885
			],
			"min":[
				-0.2916327118873596,
				-0.5433275699615479,
				-0.00028803572058677673
			],
			"type":"VEC3"
		},
		{
			"bufferView":186,
			"componentType":5126,
			"count":16,
			"type":"VEC3"
		},
		{
			"bufferView":187,
			"componentType":5126,
			"count":16,
			"type":"VEC2"
		},
		{
			"bufferView":188,
			"componentType":5126,
			"count":16,
			"max":[
				0.2916327118873596,
				0.5433275699615479,
				0.04060933366417885
			],
			"min":[
				-0.2916327118873596,
				-0.5433275699615479,
				-0.00028803572058677673
			],
			"type":"VEC3"
		},
		{
			"bufferView":189,
			"componentType":5126,
			"count":16,
			"type":"VEC3"
		},
		{
			"bufferView":190,
			"componentType":5126,
			"count":16,
			"type":"VEC2"
		},
		{
			"bufferView":191,
			"componentType":5126,
			"count":16,
			"max":[
				0.2916327118873596,
				0.5433275699615479,
				0.04060933366417885
			],
			"min":[
				-0.2916327118873596,
				-0.5433275699615479,
				-0.00028803572058677673
			],
			"type":"VEC3"
		},
		{
			"bufferView":192,
			"componentType":5126,
			"count":16,
			"type":"VEC3"
		},
		{
			"bufferView":193,
			"componentType":5126,
			"count":16,
			"type":"VEC2"
		},
		{
			"bufferView":194,
			"componentType":5126,
			"count":4,
			"max":[
				1,
				0,
				1
			],
			"min":[
				-1,
				0,
				-1
			],
			"type":"VEC3"
		},
		{
			"bufferView":195,
			"componentType":5126,
			"count":4,
			"type":"VEC3"
		},
		{
			"bufferView":196,
			"componentType":5126,
			"count":4,
			"type":"VEC2"
		},
		{
			"bufferView":197,
			"componentType":5126,
			"count":567,
			"max":[
				6.119999885559082,
				0,
				0.009000000543892384
			],
			"min":[
				0.07400000095367432,
				0,
				-0.6820000410079956
			],
			"type":"VEC3"
		},
		{
			"bufferView":198,
			"componentType":5126,
			"count":567,
			"type":"VEC3"
		},
		{
			"bufferView":199,
			"componentType":5126,
			"count":567,
			"type":"VEC2"
		},
		{
			"bufferView":200,
			"componentType":5123,
			"count":1629,
			"type":"SCALAR"
		},
		{
			"bufferView":201,
			"componentType":5126,
			"count":650,
			"max":[
				5.142000675201416,
				0,
				0.23000000417232513
			],
			"min":[
				0.04500000178813934,
				0,
				-0.6910000443458557
			],
			"type":"VEC3"
		},
		{
			"bufferView":202,
			"componentType":5126,
			"count":650,
			"type":"VEC3"
		},
		{
			"bufferView":203,
			"componentType":5126,
			"count":650,
			"type":"VEC2"
		},
		{
			"bufferView":204,
			"componentType":5123,
			"count":1908,
			"type":"SCALAR"
		},
		{
			"bufferView":205,
			"componentType":5126,
			"count":524,
			"max":[
				3.4260001182556152,
				0,
				0.009000000543892384
			],
			"min":[
				0,
				0,
				-0.6860000491142273
			],
			"type":"VEC3"
		},
		{
			"bufferView":206,
			"componentType":5126,
			"count":524,
			"type":"VEC3"
		},
		{
			"bufferView":207,
			"componentType":5126,
			"count":524,
			"type":"VEC2"
		},
		{
			"bufferView":208,
			"componentType":5123,
			"count":1554,
			"type":"SCALAR"
		},
		{
			"bufferView":209,
			"componentType":5126,
			"count":1749,
			"max":[
				12.039000511169434,
				0,
				0.009000000543892384
			],
			"min":[
				0.07000000029802322,
				0,
				-0.6820000410079956
			],
			"type":"VEC3"
		},
		{
			"bufferView":210,
			"componentType":5126,
			"count":1749,
			"type":"VEC3"
		},
		{
			"bufferView":211,
			"componentType":5126,
			"count":1749,
			"type":"VEC2"
		},
		{
			"bufferView":212,
			"componentType":5123,
			"count":5157,
			"type":"SCALAR"
		}
	],
	"bufferViews":[
		{
			"buffer":0,
			"byteLength":4200,
			"byteOffset":0,
			"target":34962
		},
		{
			"buffer":0,
			"byteLength":4200,
			"byteOffset":4200,
			"target":34962
		},
		{
			"buffer":0,
			"byteLength":2800,
			"byteOffset":8400,
			"target":34962
		},
		{
			"buffer":0,
			"byteLength":1512,
			"byteOffset":11200,
			"target":34963
		},
		{
			"buffer":0,
			"byteLength":4200,
			"byteOffset":12712,
			"target":34962
		},
		{
			"buffer":0,
			"byteLength":4200,
			"byteOffset":16912,
			"target":34962
		},
		{
			"buffer":0,
			"byteLength":2800,
			"byteOffset":21112,
			"target":34962
		},
		{
			"buffer":0,
			"byteLength":288,
			"byteOffset":23912,
			"target":34962
		},
		{
			"buffer":0,
			"byteLength":288,
			"byteOffset":24200,
			"target":34962
		},
		{
			"buffer":0,
			"byteLength":192,
			"byteOffset":24488,
			"target":34962
		},
		{
			"buffer":0,
			"byteLength":72,
			"byteOffset":24680,
			"target":34963
		},
		{
			"buffer":0,
			"byteLength":288,
			"byteOffset":24752,
			"target":34962
		},
		{
			"buffer":0,
			"byteLength":288,
			"byteOffset":25040,
			"target":34962
		},
		{
			"buffer":0,
			"byteLength":192,
			"byteOffset":25328,
			"target":34962
		},
		{
			"buffer":0,
			"byteLength":1152,
			"byteOffset":25520,
			"target":34962
		},
		{
			"buffer":0,
			"byteLength":1152,
			"byteOffset":26672,
			"target":34962
		},
		{
			"buffer":0,
			"byteLength":768,
			"byteOffset":27824,
			"target":34962
		},
		{
			"buffer":0,
			"byteLength":264,
			"byteOffset":28592,
			"target":34963
		},
		{
			"buffer":0,
			"byteLength":1152,
			"byteOffset":28856,
			"target":34962
		},
		{
			"buffer":0,
			"byteLength":1152,
			"byteOffset":30008,
			"target":34962
		},
		{
			"buffer":0,
			"byteLength":768,
			"byteOffset":31160,
			"target":34962
		},
		{
			"buffer":0,
			"byteLength":1152,
			"byteOffset":31928,
			"target":34962
		},
		{
			"buffer":0,
			"byteLength":1152,
			"byteOffset":33080,
			"target":34962
		},
		{
			"buffer":0,
			"byteLength":768,
			"byteOffset":34232,
			"target":34962
		},
		{
			"buffer":0,
			"byteLength":1152,
			"byteOffset":35000,
			"target":34962
		},
		{
			"buffer":0,
			"byteLength":1152,
			"byteOffset":36152,
			"target":34962
		},
		{
			"buffer":0,
			"byteLength":768,
			"byteOffset":37304,
			"target":34962
		},
		{
			"buffer":0,
			"byteLength":1152,
			"byteOffset":38072,
			"target":34962
		},
		{
			"buffer":0,
			"byteLength":1152,
			"byteOffset":39224,
			"target":34962
		},
		{
			"buffer":0,
			"byteLength":768,
			"byteOffset":40376,
			"target":34962
		},
		{
			"buffer":0,
			"byteLength":264,
			"byteOffset":41144,
			"target":34963
		},
		{
			"buffer":0,
			"byteLength":83136,
			"byteOffset":41408,
			"target":34962
		},
		{
			"buffer":0,
			"byteLength":83136,
			"byteOffset":124544,
			"target":34962
		},
		{
			"buffer":0,
			"byteLength":55424,
			"byteOffset":207680,
			"target":34962
		},
		{
			"buffer":0,
			"byteLength":30882,
			"byteOffset":263104,
			"target":34963
		},
		{
			"buffer":0,
			"byteLength":288,
			"byteOffset":293988,
			"target":34962
		},
		{
			"buffer":0,
			"byteLength":288,
			"byteOffset":294276,
			"target":34962
		},
		{
			"buffer":0,
			"byteLength":192,
			"byteOffset":294564,
			"target":34962
		},
		{
			"buffer":0,
			"byteLength":288,
			"byteOffset":294756,
			"target":34962
		},
		{
			"buffer":0,
			"byteLength":288,
			"byteOffset":295044,
			"target":34962
		},
		{
			"buffer":0,
			"byteLength":192,
			"byteOffset":295332,
			"target":34962
		},
		{
			"buffer":0,
			"byteLength":25344,
			"byteOffset":295524,
			"target":34962
		},
		{
			"buffer":0,
			"byteLength":25344,
			"byteOffset":320868,
			"target":34962
		},
		{
			"buffer":0,
			"byteLength":16896,
			"byteOffset":346212,
			"target":34962
		},
		{
			"buffer":0,
			"byteLength":8184,
			"byteOffset":363108,
			"target":34963
		},
		{
			"buffer":0,
			"byteLength":3168,
			"byteOffset":371292,
			"target":34962
		},
		{
			"buffer":0,
			"byteLength":3168,
			"byteOffset":374460,
			"target":34962
		},
		{
			"buffer":0,
			"byteLength":2112,
			"byteOffset":377628,
			"target":34962
		},
		{
			"buffer":0,
			"byteLength":792,
			"byteOffset":379740,
			"target":34963
		},
		{
			"buffer":0,
			"byteLength":25344,
			"byteOffset":380532,
			"target":34962
		},
		{
			"buffer":0,
			"byteLength":25344,
			"byteOffset":405876,
			"target":34962
		},
		{
			"buffer":0,
			"byteLength":16896,
			"byteOffset":431220,
			"target":34962
		},
		{
			"buffer":0,
			"byteLength":8184,
			"byteOffset":448116,
			"target":34963
		},
		{
			"buffer":0,
			"byteLength":3168,
			"byteOffset":456300,
			"target":34962
		},
		{
			"buffer":0,
			"byteLength":3168,
			"byteOffset":459468,
			"target":34962
		},
		{
			"buffer":0,
			"byteLength":2112,
			"byteOffset":462636,
			"target":34962
		},
		{
			"buffer":0,
			"byteLength":792,
			"byteOffset":464748,
			"target":34963
		},
		{
			"buffer":0,
			"byteLength":1920,
			"byteOffset":465540,
			"target":34962
		},
		{
			"buffer":0,
			"byteLength":1920,
			"byteOffset":467460,
			"target":34962
		},
		{
			"buffer":0,
			"byteLength":1280,
			"byteOffset":469380,
			"target":34962
		},
		{
			"buffer":0,
			"byteLength":900,
			"byteOffset":470660,
			"target":34963
		},
		{
			"buffer":0,
			"byteLength":48,
			"byteOffset":471560,
			"target":34962
		},
		{
			"buffer":0,
			"byteLength":48,
			"byteOffset":471608,
			"target":34962
		},
		{
			"buffer":0,
			"byteLength":32,
			"byteOffset":471656,
			"target":34962
		},
		{
			"buffer":0,
			"byteLength":12,
			"byteOffset":471688,
			"target":34963
		},
		{
			"buffer":0,
			"byteLength":17052,
			"byteOffset":471700,
			"target":34962
		},
		{
			"buffer":0,
			"byteLength":17052,
			"byteOffset":488752,
			"target":34962
		},
		{
			"buffer":0,
			"byteLength":5910,
			"byteOffset":505804,
			"target":34963
		},
		{
			"buffer":0,
			"byteLength":51840,
			"byteOffset":511716,
			"target":34962
		},
		{
			"buffer":0,
			"byteLength":51840,
			"byteOffset":563556,
			"target":34962
		},
		{
			"buffer":0,
			"byteLength":34560,
			"byteOffset":615396,
			"target":34962
		},
		{
			"buffer":0,
			"byteLength":8640,
			"byteOffset":649956,
			"target":34963
		},
		{
			"buffer":0,
			"byteLength":6480,
			"byteOffset":658596,
			"target":34962
		},
		{
			"buffer":0,
			"byteLength":6480,
			"byteOffset":665076,
			"target":34962
		},
		{
			"buffer":0,
			"byteLength":4320,
			"byteOffset":671556,
			"target":34962
		},
		{
			"buffer":0,
			"byteLength":1080,
			"byteOffset":675876,
			"target":34963
		},
		{
			"buffer":0,
			"byteLength":36912,
			"byteOffset":676956,
			"target":34962
		},
		{
			"buffer":0,
			"byteLength":36912,
			"byteOffset":713868,
			"target":34962
		},
		{
			"buffer":0,
			"byteLength":24608,
			"byteOffset":750780,
			"target":34962
		},
		{
			"buffer":0,
			"byteLength":8640,
			"byteOffset":775388,
			"target":34963
		},
		{
			"buffer":0,
			"byteLength":17052,
			"byteOffset":784028,
			"target":34962
		},
		{
			"buffer":0,
			"byteLength":17052,
			"byteOffset":801080,
			"target":34962
		},
		{
			"buffer":0,
			"byteLength":51840,
			"byteOffset":818132,
			"target":34962
		},
		{
			"buffer":0,
			"byteLength":51840,
			"byteOffset":869972,
			"target":34962
		},
		{
			"buffer":0,
			"byteLength":34560,
			"byteOffset":921812,
			"target":34962
		},
		{
			"buffer":0,
			"byteLength":6480,
			"byteOffset":956372,
			"target":34962
		},
		{
			"buffer":0,
			"byteLength":6480,
			"byteOffset":962852,
			"target":34962
		},
		{
			"buffer":0,
			"byteLength":4320,
			"byteOffset":969332,
			"target":34962
		},
		{
			"buffer":0,
			"byteLength":36912,
			"byteOffset":973652,
			"target":34962
		},
		{
			"buffer":0,
			"byteLength":36912,
			"byteOffset":1010564,
			"target":34962
		},
		{
			"buffer":0,
			"byteLength":24608,
			"byteOffset":1047476,
			"target":34962
		},
		{
			"buffer":0,
			"byteLength":17052,
			"byteOffset":1072084,
			"target":34962
		},
		{
			"buffer":0,
			"byteLength":17052,
			"byteOffset":1089136,
			"target":34962
		},
		{
			"buffer":0,
			"byteLength":51840,
			"byteOffset":1106188,
			"target":34962
		},
		{
			"buffer":0,
			"byteLength":51840,
			"byteOffset":1158028,
			"target":34962
		},
		{
			"buffer":0,
			"byteLength":34560,
			"byteOffset":1209868,
			"target":34962
		},
		{
			"buffer":0,
			"byteLength":6480,
			"byteOffset":1244428,
			"target":34962
		},
		{
			"buffer":0,
			"byteLength":6480,
			"byteOffset":1250908,
			"target":34962
		},
		{
			"buffer":0,
			"byteLength":4320,
			"byteOffset":1257388,
			"target":34962
		},
		{
			"buffer":0,
			"byteLength":36912,
			"byteOffset":1261708,
			"target":34962
		},
		{
			"buffer":0,
			"byteLength":36912,
			"byteOffset":1298620,
			"target":34962
		},
		{
			"buffer":0,
			"byteLength":24608,
			"byteOffset":1335532,
			"target":34962
		},
		{
			"buffer":0,
			"byteLength":17052,
			"byteOffset":1360140,
			"target":34962
		},
		{
			"buffer":0,
			"byteLength":17052,
			"byteOffset":1377192,
			"target":34962
		},
		{
			"buffer":0,
			"byteLength":51840,
			"byteOffset":1394244,
			"target":34962
		},
		{
			"buffer":0,
			"byteLength":51840,
			"byteOffset":1446084,
			"target":34962
		},
		{
			"buffer":0,
			"byteLength":34560,
			"byteOffset":1497924,
			"target":34962
		},
		{
			"buffer":0,
			"byteLength":6480,
			"byteOffset":1532484,
			"target":34962
		},
		{
			"buffer":0,
			"byteLength":6480,
			"byteOffset":1538964,
			"target":34962
		},
		{
			"buffer":0,
			"byteLength":4320,
			"byteOffset":1545444,
			"target":34962
		},
		{
			"buffer":0,
			"byteLength":36912,
			"byteOffset":1549764,
			"target":34962
		},
		{
			"buffer":0,
			"byteLength":36912,
			"byteOffset":1586676,
			"target":34962
		},
		{
			"buffer":0,
			"byteLength":24608,
			"byteOffset":1623588,
			"target":34962
		},
		{
			"buffer":0,
			"byteLength":13476,
			"byteOffset":1648196,
			"target":34962
		},
		{
			"buffer":0,
			"byteLength":13476,
			"byteOffset":1661672,
			"target":34962
		},
		{
			"buffer":0,
			"byteLength":8984,
			"byteOffset":1675148,
			"target":34962
		},
		{
			"buffer":0,
			"byteLength":6666,
			"byteOffset":1684132,
			"target":34963
		},
		{
			"buffer":0,
			"byteLength":13476,
			"byteOffset":1690800,
			"target":34962
		},
		{
			"buffer":0,
			"byteLength":13476,
			"byteOffset":1704276,
			"target":34962
		},
		{
			"buffer":0,
			"byteLength":8984,
			"byteOffset":1717752,
			"target":34962
		},
		{
			"buffer":0,
			"byteLength":7668,
			"byteOffset":1726736,
			"target":34962
		},
		{
			"buffer":0,
			"byteLength":7668,
			"byteOffset":1734404,
			"target":34962
		},
		{
			"buffer":0,
			"byteLength":5112,
			"byteOffset":1742072,
			"target":34962
		},
		{
			"buffer":0,
			"byteLength":3762,
			"byteOffset":1747184,
			"target":34963
		},
		{
			"buffer":0,
			"byteLength":264,
			"byteOffset":1750948,
			"target":34962
		},
		{
			"buffer":0,
			"byteLength":264,
			"byteOffset":1751212,
			"target":34962
		},
		{
			"buffer":0,
			"byteLength":176,
			"byteOffset":1751476,
			"target":34962
		},
		{
			"buffer":0,
			"byteLength":84,
			"byteOffset":1751652,
			"target":34963
		},
		{
			"buffer":0,
			"byteLength":528,
			"byteOffset":1751736,
			"target":34962
		},
		{
			"buffer":0,
			"byteLength":528,
			"byteOffset":1752264,
			"target":34962
		},
		{
			"buffer":0,
			"byteLength":352,
			"byteOffset":1752792,
			"target":34962
		},
		{
			"buffer":0,
			"byteLength":144,
			"byteOffset":1753144,
			"target":34963
		},
		{
			"buffer":0,
			"byteLength":1608,
			"byteOffset":1753288,
			"target":34962
		},
		{
			"buffer":0,
			"byteLength":1608,
			"byteOffset":1754896,
			"target":34962
		},
		{
			"buffer":0,
			"byteLength":1072,
			"byteOffset":1756504,
			"target":34962
		},
		{
			"buffer":0,
			"byteLength":594,
			"byteOffset":1757576,
			"target":34963
		},
		{
			"buffer":0,
			"byteLength":288,
			"byteOffset":1758172,
			"target":34962
		},
		{
			"buffer":0,
			"byteLength":288,
			"byteOffset":1758460,
			"target":34962
		},
		{
			"buffer":0,
			"byteLength":192,
			"byteOffset":1758748,
			"target":34962
		},
		{
			"buffer":0,
			"byteLength":72,
			"byteOffset":1758940,
			"target":34963
		},
		{
			"buffer":0,
			"byteLength":288,
			"byteOffset":1759012,
			"target":34962
		},
		{
			"buffer":0,
			"byteLength":288,
			"byteOffset":1759300,
			"target":34962
		},
		{
			"buffer":0,
			"byteLength":192,
			"byteOffset":1759588,
			"target":34962
		},
		{
			"buffer":0,
			"byteLength":288,
			"byteOffset":1759780,
			"target":34962
		},
		{
			"buffer":0,
			"byteLength":288,
			"byteOffset":1760068,
			"target":34962
		},
		{
			"buffer":0,
			"byteLength":192,
			"byteOffset":1760356,
			"target":34962
		},
		{
			"buffer":0,
			"byteLength":288,
			"byteOffset":1760548,
			"target":34962
		},
		{
			"buffer":0,
			"byteLength":288,
			"byteOffset":1760836,
			"target":34962
		},
		{
			"buffer":0,
			"byteLength":192,
			"byteOffset":1761124,
			"target":34962
		},
		{
			"buffer":0,
			"byteLength":288,
			"byteOffset":1761316,
			"target":34962
		},
		{
			"buffer":0,
			"byteLength":288,
			"byteOffset":1761604,
			"target":34962
		},
		{
			"buffer":0,
			"byteLength":192,
			"byteOffset":1761892,
			"target":34962
		},
		{
			"buffer":0,
			"byteLength":288,
			"byteOffset":1762084,
			"target":34962
		},
		{
			"buffer":0,
			"byteLength":288,
			"byteOffset":1762372,
			"target":34962
		},
		{
			"buffer":0,
			"byteLength":192,
			"byteOffset":1762660,
			"target":34962
		},
		{
			"buffer":0,
			"byteLength":288,
			"byteOffset":1762852,
			"target":34962
		},
		{
			"buffer":0,
			"byteLength":288,
			"byteOffset":1763140,
			"target":34962
		},
		{
			"buffer":0,
			"byteLength":192,
			"byteOffset":1763428,
			"target":34962
		},
		{
			"buffer":0,
			"byteLength":288,
			"byteOffset":1763620,
			"target":34962
		},
		{
			"buffer":0,
			"byteLength":288,
			"byteOffset":1763908,
			"target":34962
		},
		{
			"buffer":0,
			"byteLength":192,
			"byteOffset":1764196,
			"target":34962
		},
		{
			"buffer":0,
			"byteLength":288,
			"byteOffset":1764388,
			"target":34962
		},
		{
			"buffer":0,
			"byteLength":288,
			"byteOffset":1764676,
			"target":34962
		},
		{
			"buffer":0,
			"byteLength":192,
			"byteOffset":1764964,
			"target":34962
		},
		{
			"buffer":0,
			"byteLength":288,
			"byteOffset":1765156,
			"target":34962
		},
		{
			"buffer":0,
			"byteLength":288,
			"byteOffset":1765444,
			"target":34962
		},
		{
			"buffer":0,
			"byteLength":192,
			"byteOffset":1765732,
			"target":34962
		},
		{
			"buffer":0,
			"byteLength":288,
			"byteOffset":1765924,
			"target":34962
		},
		{
			"buffer":0,
			"byteLength":288,
			"byteOffset":1766212,
			"target":34962
		},
		{
			"buffer":0,
			"byteLength":192,
			"byteOffset":1766500,
			"target":34962
		},
		{
			"buffer":0,
			"byteLength":336,
			"byteOffset":1766692,
			"target":34962
		},
		{
			"buffer":0,
			"byteLength":336,
			"byteOffset":1767028,
			"target":34962
		},
		{
			"buffer":0,
			"byteLength":224,
			"byteOffset":1767364,
			"target":34962
		},
		{
			"buffer":0,
			"byteLength":132,
			"byteOffset":1767588,
			"target":34963
		},
		{
			"buffer":0,
			"byteLength":288,
			"byteOffset":1767720,
			"target":34962
		},
		{
			"buffer":0,
			"byteLength":288,
			"byteOffset":1768008,
			"target":34962
		},
		{
			"buffer":0,
			"byteLength":192,
			"byteOffset":1768296,
			"target":34962
		},
		{
			"buffer":0,
			"byteLength":168,
			"byteOffset":1768488,
			"target":34962
		},
		{
			"buffer":0,
			"byteLength":168,
			"byteOffset":1768656,
			"target":34962
		},
		{
			"buffer":0,
			"byteLength":112,
			"byteOffset":1768824,
			"target":34962
		},
		{
			"buffer":0,
			"byteLength":72,
			"byteOffset":1768936,
			"target":34963
		},
		{
			"buffer":0,
			"byteLength":192,
			"byteOffset":1769008,
			"target":34962
		},
		{
			"buffer":0,
			"byteLength":192,
			"byteOffset":1769200,
			"target":34962
		},
		{
			"buffer":0,
			"byteLength":128,
			"byteOffset":1769392,
			"target":34962
		},
		{
			"buffer":0,
			"byteLength":48,
			"byteOffset":1769520,
			"target":34963
		},
		{
			"buffer":0,
			"byteLength":192,
			"byteOffset":1769568,
			"target":34962
		},
		{
			"buffer":0,
			"byteLength":192,
			"byteOffset":1769760,
			"target":34962
		},
		{
			"buffer":0,
			"byteLength":128,
			"byteOffset":1769952,
			"target":34962
		},
		{
			"buffer":0,
			"byteLength":192,
			"byteOffset":1770080,
			"target":34962
		},
		{
			"buffer":0,
			"byteLength":192,
			"byteOffset":1770272,
			"target":34962
		},
		{
			"buffer":0,
			"byteLength":128,
			"byteOffset":1770464,
			"target":34962
		},
		{
			"buffer":0,
			"byteLength":192,
			"byteOffset":1770592,
			"target":34962
		},
		{
			"buffer":0,
			"byteLength":192,
			"byteOffset":1770784,
			"target":34962
		},
		{
			"buffer":0,
			"byteLength":128,
			"byteOffset":1770976,
			"target":34962
		},
		{
			"buffer":0,
			"byteLength":48,
			"byteOffset":1771104,
			"target":34962
		},
		{
			"buffer":0,
			"byteLength":48,
			"byteOffset":1771152,
			"target":34962
		},
		{
			"buffer":0,
			"byteLength":32,
			"byteOffset":1771200,
			"target":34962
		},
		{
			"buffer":0,
			"byteLength":6804,
			"byteOffset":1771232,
			"target":34962
		},
		{
			"buffer":0,
			"byteLength":6804,
			"byteOffset":1778036,
			"target":34962
		},
		{
			"buffer":0,
			"byteLength":4536,
			"byteOffset":1784840,
			"target":34962
		},
		{
			"buffer":0,
			"byteLength":3258,
			"byteOffset":1789376,
			"target":34963
		},
		{
			"buffer":0,
			"byteLength":7800,
			"byteOffset":1792636,
			"target":34962
		},
		{
			"buffer":0,
			"byteLength":7800,
			"byteOffset":1800436,
			"target":34962
		},
		{
			"buffer":0,
			"byteLength":5200,
			"byteOffset":1808236,
			"target":34962
		},
		{
			"buffer":0,
			"byteLength":3816,
			"byteOffset":1813436,
			"target":34963
		},
		{
			"buffer":0,
			"byteLength":6288,
			"byteOffset":1817252,
			"target":34962
		},
		{
			"buffer":0,
			"byteLength":6288,
			"byteOffset":1823540,
			"target":34962
		},
		{
			"buffer":0,
			"byteLength":4192,
			"byteOffset":1829828,
			"target":34962
		},
		{
			"buffer":0,
			"byteLength":3108,
			"byteOffset":1834020,
			"target":34963
		},
		{
			"buffer":0,
			"byteLength":20988,
			"byteOffset":1837128,
			"target":34962
		},
		{
			"buffer":0,
			"byteLength":20988,
			"byteOffset":1858116,
			"target":34962
		},
		{
			"buffer":0,
			"byteLength":13992,
			"byteOffset":1879104,
			"target":34962
		},
		{
			"buffer":0,
			"byteLength":10314,
			"byteOffset":1893096,
			"target":34963
		}
	],
	"buffers":[
		{
			"byteLength":1903412,
			"uri":"tutorial.bin"
		}
	]
}
