{
	"asset":{
		"generator":"Khronos glTF Blender I/O v5.0.21",
		"version":"2.0"
	},
	"scene":0,
	"scenes":[
		{
			"name":"Scene",
			"nodes":[
				0,
				1,
				2,
				3,
				4,
				5
			]
		}
	],
	"nodes":[
		{
			"mesh":0,
			"name":"Cube"
		},
		{
			"mesh":1,
			"name":"Cube.001"
		},
		{
			"mesh":2,
			"name":"Circle"
		},
		{
			"mesh":3,
			"name":"Cube.002"
		},
		{
			"mesh":4,
			"name":"Cube.003"
		},
		{
			"mesh":5,
			"name":"Cube.004"
		}
	],
	"materials":[
		{
			"doubleSided":true,
			"name":"Material.002",
			"pbrMetallicRoughness":{
				"baseColorFactor":[
					0.023114457726478577,
					0.023114457726478577,
					0.023114457726478577,
					1
				],
				"metallicFactor":0,
				"roughnessFactor":0.5461538434028625
			}
		},
		{
			"doubleSided":true,
			"name":"Material.001",
			"pbrMetallicRoughness":{
				"baseColorFactor":[
					0.07513018697500229,
					0.07320675253868103,
					0.07320675253868103,
					1
				],
				"roughnessFactor":0.5
			}
		}
	],
	"meshes":[
		{
			"name":"Cube.002",
			"primitives":[
				{
					"attributes":{
						"POSITION":0,
						"NORMAL":1,
						"TEXCOORD_0":2
					},
					"indices":3,
					"material":0
				}
			]
		},
		{
			"name":"Cube.003",
			"primitives":[
				{
					"attributes":{
						"POSITION":4,
						"NORMAL":5,
						"TEXCOORD_0":6
					},
					"indices":7,
					"material":1
				}
			]
		},
		{
			"name":"Circle",
			"primitives":[
				{
					"attributes":{
						"POSITION":8,
						"NORMAL":9,
						"TEXCOORD_0":10
					},
					"indices":11,
					"material":1
				}
			]
		},
		{
			"name":"Cube.004",
			"primitives":[
				{
					"attributes":{
						"POSITION":12,
						"NORMAL":13,
						"TEXCOORD_0":14
					},
					"indices":15,
					"material":1
				}
			]
		},
		{
			"name":"Cube.005",
			"primitives":[
				{
					"attributes":{
						"POSITION":16,
						"NORMAL":17,
						"TEXCOORD_0":18
					},
					"indices":15,
					"material":1
				}
			]
		},
		{
			"name":"Cube.006",
			"primitives":[
				{
					"attributes":{
						"POSITION":19,
						"NORMAL":20,
						"TEXCOORD_0":21
					},
					"indices":22,
					"material":1
				}
			]
		}
	],
	"accessors":[
		{
			"bufferView":0,
			"componentType":5126,
			"count":432,
			"max":[
				0.3291029632091522,
				1.4621610641479492,
				3.5813393592834473
			],
			"min":[
				-0.3291029632091522,
				-1.0137473344802856,
				-1.0783981084823608
			],
			"type":"VEC3"
		},
		{
			"bufferView":1,
			"componentType":5126,
			"count":432,
			"type":"VEC3"
		},
		{
			"bufferView":2,
			"componentType":5126,
			"count":432,
			"type":"VEC2"
		},
		{
			"bufferView":3,
			"componentType":5123,
			"count":798,
			"type":"SCALAR"
		},
		{
			"bufferView":4,
			"componentType":5126,
			"count":106,
			"max":[
				0.3291029632091522,
				1.9895581007003784,
				3.5818324089050293
			],
			"min":[
				0,
				1.4591922760009766,
				-0.6531832218170166
			],
			"type":"VEC3"
		},
		{
			"bufferView":5,
			"componentType":5126,
			"count":106,
			"type":"VEC3"
		},
		{
			"bufferView":6,
			"componentType":5126,
			"count":106,
			"type":"VEC2"
		},
		{
			"bufferView":7,
			"componentType":5123,
			"count":186,
			"type":"SCALAR"
		},
		{
			"bufferView":8,
			"componentType":5126,
			"count":96,
			"max":[
				0.19379185140132904,
				1.9112876653671265,
				3.694319486618042
			],
			"min":[
				-0.19379185140132904,
				1.523703932762146,
				3.586043357849121
			],
			"type":"VEC3"
		},
		{
			"bufferView":9,
			"componentType":5126,
			"count":96,
			"type":"VEC3"
		},
		{
			"bufferView":10,
			"componentType":5126,
			"count":96,
			"type":"VEC2"
		},
		{
			"bufferView":11,
			"componentType":5123,
			"count":192,
			"type":"SCALAR"
		},
		{
			"bufferView":12,
			"componentType":5126,
			"count":24,
			"max":[
				0.09669613093137741,
				2.0653719902038574,
				-0.2975589334964752
			],
			"min":[
				-0.09669613093137741,
				1.8687292337417603,
				-0.49095121026039124
			],
			"type":"VEC3"
		},
		{
			"bufferView":13,
			"componentType":5126,
			"count":24,
			"type":"VEC3"
		},
		{
			"bufferView":14,
			"componentType":5126,
			"count":24,
			"type":"VEC2"
		},
		{
			"bufferView":15,
			"componentType":5123,
			"count":36,
			"type":"SCALAR"
		},
		{
			"bufferView":16,
			"componentType":5126,
			"count":24,
			"max":[
				0.09669613093137741,
				2.0515429973602295,
				3.510016679763794
			],
			"min":[
				-0.09669613093137741,
				1.9575427770614624,
				3.328821897506714
			],
			"type":"VEC3"
		},
		{
			"bufferView":17,
			"componentType":5126,
			"count":24,
			"type":"VEC3"
		},
		{
			"bufferView":18,
			"componentType":5126,
			"count":24,
			"type":"VEC2"
		},
		{
			"bufferView":19,
			"componentType":5126,
			"count":84,
			"max":[
				0.12086758762598038,
				1.3041858673095703,
				1.1738263368606567
			],
			"min":[
				-0.12086758762598038,
				0.7531946897506714,
				0.748659610748291
			],
			"type":"VEC3"
		},
		{
			"bufferView":20,
			"componentType":5126,
			"count":84,
			"type":"VEC3"
		},
		{
			"bufferView":21,
			"componentType":5126,
			"count":84,
			"type":"VEC2"
		},
		{
			"bufferView":22,
			"componentType":5123,
			"count":156,
			"type":"SCALAR"
		}
	],
	"bufferViews":[
		{
			"buffer":0,
			"byteLength":5184,
			"byteOffset":0,
			"target":34962
		},
		{
			"buffer":0,
			"byteLength":5184,
			"byteOffset":5184,
			"target":34962
		},
		{
			"buffer":0,
			"byteLength":3456,
			"byteOffset":10368,
			"target":34962
		},
		{
			"buffer":0,
			"byteLength":1596,
			"byteOffset":13824,
			"target":34963
		},
		{
			"buffer":0,
			"byteLength":1272,
			"byteOffset":15420,
			"target":34962
		},
		{
			"buffer":0,
			"byteLength":1272,
			"byteOffset":16692,
			"target":34962
		},
		{
			"buffer":0,
			"byteLength":848,
			"byteOffset":17964,
			"target":34962
		},
		{
			"buffer":0,
			"byteLength":372,
			"byteOffset":18812,
			"target":34963
		},
		{
			"buffer":0,
			"byteLength":1152,
			"byteOffset":19184,
			"target":34962
		},
		{
			"buffer":0,
			"byteLength":1152,
			"byteOffset":20336,
			"target":34962
		},
		{
			"buffer":0,
			"byteLength":768,
			"byteOffset":21488,
			"target":34962
		},
		{
			"buffer":0,
			"byteLength":384,
			"byteOffset":22256,
			"target":34963
		},
		{
			"buffer":0,
			"byteLength":288,
			"byteOffset":22640,
			"target":34962
		},
		{
			"buffer":0,
			"byteLength":288,
			"byteOffset":22928,
			"target":34962
		},
		{
			"buffer":0,
			"byteLength":192,
			"byteOffset":23216,
			"target":34962
		},
		{
			"buffer":0,
			"byteLength":72,
			"byteOffset":23408,
			"target":34963
		},
		{
			"buffer":0,
			"byteLength":288,
			"byteOffset":23480,
			"target":34962
		},
		{
			"buffer":0,
			"byteLength":288,
			"byteOffset":23768,
			"target":34962
		},
		{
			"buffer":0,
			"byteLength":192,
			"byteOffset":24056,
			"target":34962
		},
		{
			"buffer":0,
			"byteLength":1008,
			"byteOffset":24248,
			"target":34962
		},
		{
			"buffer":0,
			"byteLength":1008,
			"byteOffset":25256,
			"target":34962
		},
		{
			"buffer":0,
			"byteLength":672,
			"byteOffset":26264,
			"target":34962
		},
		{
			"buffer":0,
			"byteLength":312,
			"byteOffset":26936,
			"target":34963
		}
	],
	"buffers":[
		{
			"byteLength":27248,
			"uri":"glug.bin"
		}
	]
}
