{
	"asset":{
		"generator":"Khronos glTF Blender I/O v5.0.21",
		"version":"2.0"
	},
	"scene":0,
	"scenes":[
		{
			"name":"Scene",
			"nodes":[
				0,
				1
			]
		}
	],
	"nodes":[
		{
			"name":"Empty",
			"rotation":[
				0.7071068286895752,
				0,
				0,
				0.7071068286895752
			],
			"scale":[
				0.07371938973665237,
				0.07371938973665237,
				0.07371938973665237
			],
			"translation":[
				-0.0006087422952987254,
				0.36998283863067627,
				88.71692657470703
			]
		},
		{
			"mesh":0,
			"name":"Cube.001",
			"translation":[
				-0.4676665961742401,
				-0.0929403305053711,
				103.34235382080078
			]
		}
	],
	"materials":[
		{
			"doubleSided":true,
			"name":"Material.004",
			"pbrMetallicRoughness":{
				"baseColorFactor":[
					0.479320228099823,
					0.1714411824941635,
					0.0331047847867012,
					1
				],
				"metallicFactor":0,
				"roughnessFactor":0.5
			}
		},
		{
			"doubleSided":true,
			"name":"Material",
			"pbrMetallicRoughness":{
				"baseColorFactor":[
					0.800000011920929,
					0.800000011920929,
					0.800000011920929,
					1
				],
				"roughnessFactor":0.5
			}
		},
		{
			"doubleSided":true,
			"name":"Material.003",
			"pbrMetallicRoughness":{
				"baseColorFactor":[
					0.479320228099823,
					0.1714411824941635,
					0.0331047847867012,
					1
				],
				"metallicFactor":0,
				"roughnessFactor":0.5
			}
		},
		{
			"doubleSided":true,
			"name":"Material.001",
			"pbrMetallicRoughness":{
				"baseColorFactor":[
					0.020288560539484024,
					0.020288560539484024,
					0.020288560539484024,
					1
				],
				"metallicFactor":0,
				"roughnessFactor":0.5
			}
		},
		{
			"doubleSided":true,
			"name":"Material.002",
			"pbrMetallicRoughness":{
				"baseColorFactor":[
					0.020288560539484024,
					0.020288560539484024,
					0.020288560539484024,
					1
				],
				"metallicFactor":0,
				"roughnessFactor":0.5
			}
		}
	],
	"meshes":[
		{
			"name":"Cube.001",
			"primitives":[
				{
					"attributes":{
						"POSITION":0,
						"NORMAL":1,
						"TEXCOORD_0":2
					},
					"indices":3,
					"material":0
				},
				{
					"attributes":{
						"POSITION":4,
						"NORMAL":5,
						"TEXCOORD_0":6
					},
					"indices":7,
					"material":1
				},
				{
					"attributes":{
						"POSITION":8,
						"NORMAL":9,
						"TEXCOORD_0":10
					},
					"indices":11,
					"material":2
				},
				{
					"attributes":{
						"POSITION":12,
						"NORMAL":13,
						"TEXCOORD_0":14
					},
					"indices":15,
					"material":3
				},
				{
					"attributes":{
						"POSITION":16,
						"NORMAL":17,
						"TEXCOORD_0":18
					},
					"indices":19,
					"material":4
				}
			]
		}
	],
	"accessors":[
		{
			"bufferView":0,
			"componentType":5126,
			"count":446,
			"max":[
				0.7125697731971741,
				0.4804607629776001,
				-7.220911979675293
			],
			"min":[
				0.21617873013019562,
				-0.7909222841262817,
				-8.312599182128906
			],
			"type":"VEC3"
		},
		{
			"bufferView":1,
			"componentType":5126,
			"count":446,
			"type":"VEC3"
		},
		{
			"bufferView":2,
			"componentType":5126,
			"count":446,
			"type":"VEC2"
		},
		{
			"bufferView":3,
			"componentType":5123,
			"count":660,
			"type":"SCALAR"
		},
		{
			"bufferView":4,
			"componentType":5126,
			"count":991,
			"max":[
				0.6283062696456909,
				2.709662914276123,
				-7.076664447784424
			],
			"min":[
				0.301182359457016,
				-0.7121021747589111,
				-36.41078186035156
			],
			"type":"VEC3"
		},
		{
			"bufferView":5,
			"componentType":5126,
			"count":991,
			"type":"VEC3"
		},
		{
			"bufferView":6,
			"componentType":5126,
			"count":991,
			"type":"VEC2"
		},
		{
			"bufferView":7,
			"componentType":5123,
			"count":5700,
			"type":"SCALAR"
		},
		{
			"bufferView":8,
			"componentType":5126,
			"count":528,
			"max":[
				2.0925889015197754,
				1.4936774969100952,
				-6.853503704071045
			],
			"min":[
				-1.1638401746749878,
				-1.8202248811721802,
				-7.356036186218262
			],
			"type":"VEC3"
		},
		{
			"bufferView":9,
			"componentType":5126,
			"count":528,
			"type":"VEC3"
		},
		{
			"bufferView":10,
			"componentType":5126,
			"count":528,
			"type":"VEC2"
		},
		{
			"bufferView":11,
			"componentType":5123,
			"count":852,
			"type":"SCALAR"
		},
		{
			"bufferView":12,
			"componentType":5126,
			"count":288,
			"max":[
				0.9819536805152893,
				0.8473526835441589,
				6.328384876251221
			],
			"min":[
				-0.05320509895682335,
				-1.173900842666626,
				-6.92518424987793
			],
			"type":"VEC3"
		},
		{
			"bufferView":13,
			"componentType":5126,
			"count":288,
			"type":"VEC3"
		},
		{
			"bufferView":14,
			"componentType":5126,
			"count":288,
			"type":"VEC2"
		},
		{
			"bufferView":15,
			"componentType":5123,
			"count":552,
			"type":"SCALAR"
		},
		{
			"bufferView":16,
			"componentType":5126,
			"count":288,
			"max":[
				0.9314660429954529,
				0.7487702965736389,
				6.668700218200684
			],
			"min":[
				-0.0027174591086804867,
				-1.075318694114685,
				6.328384876251221
			],
			"type":"VEC3"
		},
		{
			"bufferView":17,
			"componentType":5126,
			"count":288,
			"type":"VEC3"
		},
		{
			"bufferView":18,
			"componentType":5126,
			"count":288,
			"type":"VEC2"
		},
		{
			"bufferView":19,
			"componentType":5123,
			"count":564,
			"type":"SCALAR"
		}
	],
	"bufferViews":[
		{
			"buffer":0,
			"byteLength":5352,
			"byteOffset":0,
			"target":34962
		},
		{
			"buffer":0,
			"byteLength":5352,
			"byteOffset":5352,
			"target":34962
		},
		{
			"buffer":0,
			"byteLength":3568,
			"byteOffset":10704,
			"target":34962
		},
		{
			"buffer":0,
			"byteLength":1320,
			"byteOffset":14272,
			"target":34963
		},
		{
			"buffer":0,
			"byteLength":11892,
			"byteOffset":15592,
			"target":34962
		},
		{
			"buffer":0,
			"byteLength":11892,
			"byteOffset":27484,
			"target":34962
		},
		{
			"buffer":0,
			"byteLength":7928,
			"byteOffset":39376,
			"target":34962
		},
		{
			"buffer":0,
			"byteLength":11400,
			"byteOffset":47304,
			"target":34963
		},
		{
			"buffer":0,
			"byteLength":6336,
			"byteOffset":58704,
			"target":34962
		},
		{
			"buffer":0,
			"byteLength":6336,
			"byteOffset":65040,
			"target":34962
		},
		{
			"buffer":0,
			"byteLength":4224,
			"byteOffset":71376,
			"target":34962
		},
		{
			"buffer":0,
			"byteLength":1704,
			"byteOffset":75600,
			"target":34963
		},
		{
			"buffer":0,
			"byteLength":3456,
			"byteOffset":77304,
			"target":34962
		},
		{
			"buffer":0,
			"byteLength":3456,
			"byteOffset":80760,
			"target":34962
		},
		{
			"buffer":0,
			"byteLength":2304,
			"byteOffset":84216,
			"target":34962
		},
		{
			"buffer":0,
			"byteLength":1104,
			"byteOffset":86520,
			"target":34963
		},
		{
			"buffer":0,
			"byteLength":3456,
			"byteOffset":87624,
			"target":34962
		},
		{
			"buffer":0,
			"byteLength":3456,
			"byteOffset":91080,
			"target":34962
		},
		{
			"buffer":0,
			"byteLength":2304,
			"byteOffset":94536,
			"target":34962
		},
		{
			"buffer":0,
			"byteLength":1128,
			"byteOffset":96840,
			"target":34963
		}
	],
	"buffers":[
		{
			"byteLength":97968,
			"uri":"katana.bin"
		}
	]
}
