{
	"asset":{
		"generator":"Khronos glTF Blender I/O v5.0.21",
		"version":"2.0"
	},
	"extensionsUsed":[
		"KHR_lights_punctual",
		"KHR_materials_clearcoat",
		"KHR_materials_emissive_strength"
	],
	"extensionsRequired":[
		"KHR_lights_punctual"
	],
	"extensions":{
		"KHR_lights_punctual":{
			"lights":[
				{
					"color":[
						0.8188204765319824,
						0.9974614381790161,
						1
					],
					"intensity":683,
					"type":"directional",
					"name":"Sun"
				},
				{
					"color":[
						1,
						0,
						0
					],
					"intensity":1258126.5096490425,
					"type":"point",
					"name":"Point"
				},
				{
					"color":[
						0,
						1,
						0.0490221232175827
					],
					"intensity":34110.94551320891,
					"spot":{
						"innerConeAngle":2.3007041392020255e-05,
						"outerConeAngle":0.38407373428344727
					},
					"type":"spot",
					"name":"Spot"
				},
				{
					"color":[
						1,
						0.20818237960338593,
						0
					],
					"intensity":34110.94551320891,
					"spot":{
						"innerConeAngle":2.3007041392020255e-05,
						"outerConeAngle":0.38407373428344727
					},
					"type":"spot",
					"name":"Spot.001"
				},
				{
					"color":[
						0,
						0.6890323162078857,
						1
					],
					"intensity":10870282.613176452,
					"spot":{
						"innerConeAngle":0.011263401135554574,
						"outerConeAngle":0.30204322934150696
					},
					"type":"spot",
					"name":"Spot.002"
				}
			]
		}
	},
	"scene":0,
	"scenes":[
		{
			"name":"Scene",
			"nodes":[
				60
			]
		}
	],
	"nodes":[
		{
			"extensions":{
				"KHR_lights_punctual":{
					"light":0
				}
			},
			"name":"Sun",
			"scale":[
				7.864809036254883,
				7.864809989929199,
				7.864809513092041
			],
			"translation":[
				0,
				2.6971101760864258e-06,
				-0.02781963348388672
			]
		},
		{
			"camera":0,
			"children":[
				0
			],
			"name":"Camera",
			"rotation":[
				-0.2261674851179123,
				-0.3867393136024475,
				-0.09843408316373825,
				0.8885898590087891
			],
			"translation":[
				-26.48244857788086,
				19.329282760620117,
				24.38687515258789
			]
		},
		{
			"mesh":0,
			"name":"Cube",
			"scale":[
				1,
				0.15281295776367188,
				1
			],
			"translation":[
				-5.6601667404174805,
				0.15281295776367188,
				-6.042593955993652
			]
		},
		{
			"mesh":1,
			"name":"Cube.001",
			"scale":[
				1,
				0.15281295776367188,
				1
			],
			"translation":[
				-2.019911766052246,
				0.15281295776367188,
				-6.042593955993652
			]
		},
		{
			"mesh":2,
			"name":"Cube.002",
			"scale":[
				1,
				0.15281295776367188,
				1
			],
			"translation":[
				2.384103775024414,
				0.15281295776367188,
				-6.042593955993652
			]
		},
		{
			"mesh":3,
			"name":"Cube.003",
			"rotation":[
				0.19134169816970825,
				0.19134171307086945,
				-0.4619397521018982,
				0.8446232080459595
			],
			"scale":[
				1,
				0.15281295776367188,
				1
			],
			"translation":[
				5.8290910720825195,
				0.15281294286251068,
				-6.026345729827881
			]
		},
		{
			"mesh":4,
			"name":"Cube.004",
			"scale":[
				42.6363410949707,
				1,
				42.6363410949707
			],
			"translation":[
				0,
				1.0000027418136597,
				-57.73773193359375
			]
		},
		{
			"mesh":5,
			"name":"Cube.005",
			"rotation":[
				0,
				-0.2720341980457306,
				0,
				0.9622876644134521
			],
			"scale":[
				0.35489702224731445,
				1,
				0.35489702224731445
			],
			"translation":[
				-12.457560539245605,
				0.3000740706920624,
				0.8518427610397339
			]
		},
		{
			"mesh":6,
			"name":"Cube.006",
			"rotation":[
				0,
				-0.08127597719430923,
				0,
				0.9966916441917419
			],
			"scale":[
				0.15031151473522186,
				0.15031151473522186,
				0.15031151473522186
			],
			"translation":[
				-1.4423688650131226,
				0.5809892416000366,
				-6.200477600097656
			]
		},
		{
			"mesh":7,
			"name":"Cylinder",
			"scale":[
				2.9452590942382812,
				2.9452590942382812,
				2.9452590942382812
			],
			"translation":[
				0,
				0.004631295334547758,
				0
			]
		},
		{
			"extras":{
				"bounds":true,
				"isDynamic":false,
				"layer":"world",
				"type":"aabb"
			},
			"name":"Empty",
			"translation":[
				-5.659252166748047,
				1.000421166419983,
				-6.048861980438232
			]
		},
		{
			"extras":{
				"bounds":true,
				"isDynamic":false,
				"layer":"world",
				"type":"aabb"
			},
			"name":"Empty.001",
			"translation":[
				-2.0049872398376465,
				1.000421166419983,
				-6.048861980438232
			]
		},
		{
			"extras":{
				"bounds":true,
				"isDynamic":false,
				"layer":"world",
				"type":"aabb"
			},
			"name":"Empty.002",
			"scale":[
				0.26364779472351074,
				1,
				0.26364779472351074
			],
			"translation":[
				2.3890390396118164,
				1.000421166419983,
				-6.048861980438232
			]
		},
		{
			"extras":{
				"bounds":true,
				"isDynamic":false,
				"layer":"world",
				"type":"aabb"
			},
			"name":"Empty.003",
			"translation":[
				6.383495330810547,
				1.000421166419983,
				-6.048861980438232
			]
		},
		{
			"extras":{
				"bounds":true,
				"layer":"world",
				"type":"aabb",
				"isDynamic":false
			},
			"name":"Empty.004",
			"scale":[
				27.031620025634766,
				0.1165807768702507,
				27.031620025634766
			],
			"translation":[
				-0.08536982536315918,
				-0.15088222920894623,
				-0.09453417360782623
			]
		},
		{
			"mesh":8,
			"name":"Icosphere",
			"scale":[
				0.17361639440059662,
				0.17361639440059662,
				0.17361639440059662
			],
			"translation":[
				0,
				0.002059459686279297,
				-0.007798671722412109
			]
		},
		{
			"mesh":9,
			"name":"Icosphere.001",
			"scale":[
				0.17361639440059662,
				0.17361639440059662,
				0.17361639440059662
			],
			"translation":[
				0,
				0.002059459686279297,
				-0.007798671722412109
			]
		},
		{
			"mesh":10,
			"name":"Icosphere.002",
			"scale":[
				0.17361639440059662,
				0.17361639440059662,
				0.17361639440059662
			],
			"translation":[
				0,
				0.002059459686279297,
				-0.007798671722412109
			]
		},
		{
			"mesh":11,
			"name":"Icosphere.003",
			"scale":[
				0.17361639440059662,
				0.17361639440059662,
				0.17361639440059662
			],
			"translation":[
				0,
				0.002059459686279297,
				-0.007798671722412109
			]
		},
		{
			"mesh":12,
			"name":"Icosphere.004",
			"scale":[
				0.17361639440059662,
				0.17361639440059662,
				0.17361639440059662
			],
			"translation":[
				0,
				0.002059459686279297,
				-0.007798671722412109
			]
		},
		{
			"mesh":13,
			"name":"Icosphere.005",
			"scale":[
				0.17361639440059662,
				0.17361639440059662,
				0.17361639440059662
			],
			"translation":[
				0,
				0.002059459686279297,
				-0.007798671722412109
			]
		},
		{
			"mesh":14,
			"name":"Icosphere.006",
			"scale":[
				0.17361639440059662,
				0.17361639440059662,
				0.17361639440059662
			],
			"translation":[
				0,
				0.002059459686279297,
				-0.007798671722412109
			]
		},
		{
			"mesh":15,
			"name":"Icosphere.007",
			"scale":[
				0.17361639440059662,
				0.17361639440059662,
				0.17361639440059662
			],
			"translation":[
				0,
				0.002059459686279297,
				-0.007798671722412109
			]
		},
		{
			"mesh":16,
			"name":"Icosphere.008",
			"scale":[
				0.17361639440059662,
				0.17361639440059662,
				0.17361639440059662
			],
			"translation":[
				0,
				0.002059459686279297,
				-0.007798671722412109
			]
		},
		{
			"mesh":17,
			"name":"Icosphere.009",
			"scale":[
				0.17361639440059662,
				0.17361639440059662,
				0.17361639440059662
			],
			"translation":[
				0,
				0.002059459686279297,
				-0.007798671722412109
			]
		},
		{
			"mesh":18,
			"name":"Icosphere.010",
			"scale":[
				0.17361639440059662,
				0.17361639440059662,
				0.17361639440059662
			],
			"translation":[
				0,
				0.002059459686279297,
				-0.007798671722412109
			]
		},
		{
			"mesh":19,
			"name":"Icosphere.011",
			"scale":[
				0.17361639440059662,
				0.17361639440059662,
				0.17361639440059662
			],
			"translation":[
				0,
				0.002059459686279297,
				-0.007798671722412109
			]
		},
		{
			"mesh":20,
			"name":"Icosphere.012",
			"scale":[
				0.17361639440059662,
				0.17361639440059662,
				0.17361639440059662
			],
			"translation":[
				0,
				0.002059459686279297,
				-0.007798671722412109
			]
		},
		{
			"mesh":21,
			"name":"Icosphere.013",
			"scale":[
				0.17361639440059662,
				0.17361639440059662,
				0.17361639440059662
			],
			"translation":[
				0,
				0.002059459686279297,
				-0.007798671722412109
			]
		},
		{
			"mesh":22,
			"name":"Icosphere.014",
			"scale":[
				0.17361639440059662,
				0.17361639440059662,
				0.17361639440059662
			],
			"translation":[
				0,
				0.002059459686279297,
				-0.007798671722412109
			]
		},
		{
			"mesh":23,
			"name":"Icosphere.015",
			"scale":[
				0.17361639440059662,
				0.17361639440059662,
				0.17361639440059662
			],
			"translation":[
				0,
				0.002059459686279297,
				-0.007798671722412109
			]
		},
		{
			"children":[
				15,
				16,
				17,
				18,
				19,
				20,
				21,
				22,
				23,
				24,
				25,
				26,
				27,
				28,
				29,
				30
			],
			"name":"krogle",
			"translation":[
				-0.6965836882591248,
				0.48032423853874207,
				-3.3702619075775146
			]
		},
		{
			"mesh":24,
			"name":"Plane",
			"scale":[
				363.85711669921875,
				363.85711669921875,
				363.85711669921875
			]
		},
		{
			"mesh":25,
			"name":"Plane.002",
			"scale":[
				134.17039489746094,
				134.17039489746094,
				134.17039489746094
			],
			"translation":[
				0,
				305.8498229980469,
				0
			]
		},
		{
			"mesh":26,
			"name":"Plant.001",
			"rotation":[
				0.7071068286895752,
				0,
				0,
				0.7071068286895752
			],
			"scale":[
				3.393738269805908,
				3.393738269805908,
				3.393738269805908
			],
			"translation":[
				0,
				3.216874599456787,
				-10.004495620727539
			]
		},
		{
			"mesh":27,
			"name":"Plane.001",
			"rotation":[
				0.5,
				0.5,
				-0.5,
				0.4999999701976776
			],
			"scale":[
				0.24845990538597107,
				0.24845990538597107,
				0.24845990538597107
			],
			"translation":[
				0.0025403499603271484,
				-0.007489442825317383,
				-0.050867870450019836
			]
		},
		{
			"mesh":28,
			"name":"Plane.003",
			"rotation":[
				0.5,
				0.5,
				-0.5,
				0.4999999701976776
			],
			"scale":[
				0.24845990538597107,
				0.24845990538597107,
				0.24845990538597107
			],
			"translation":[
				0.0025403499603271484,
				-0.007489442825317383,
				-0.050867870450019836
			]
		},
		{
			"mesh":29,
			"name":"Plane.004",
			"rotation":[
				0.5,
				0.5,
				-0.5,
				0.4999999701976776
			],
			"scale":[
				0.24845990538597107,
				0.24845990538597107,
				0.24845990538597107
			],
			"translation":[
				0.0025403499603271484,
				-0.007489442825317383,
				-0.050867870450019836
			]
		},
		{
			"mesh":30,
			"name":"Plane.005",
			"rotation":[
				0.5,
				0.5,
				-0.5,
				0.4999999701976776
			],
			"scale":[
				0.24845990538597107,
				0.24845990538597107,
				0.24845990538597107
			],
			"translation":[
				0.0025403499603271484,
				-0.007489442825317383,
				-0.050867870450019836
			]
		},
		{
			"mesh":31,
			"name":"Plane.006",
			"rotation":[
				0.5,
				0.5,
				-0.5,
				0.4999999701976776
			],
			"scale":[
				0.24845990538597107,
				0.24845990538597107,
				0.24845990538597107
			],
			"translation":[
				0.0025403499603271484,
				-0.007489442825317383,
				-0.050867870450019836
			]
		},
		{
			"mesh":32,
			"name":"Plane.007",
			"rotation":[
				0.5,
				0.5,
				-0.5,
				0.4999999701976776
			],
			"scale":[
				0.24845990538597107,
				0.24845990538597107,
				0.24845990538597107
			],
			"translation":[
				0.0025403499603271484,
				-0.007489442825317383,
				-0.050867870450019836
			]
		},
		{
			"children":[
				35,
				36,
				37,
				38,
				39,
				40
			],
			"name":"ploscice",
			"translation":[
				-2.9676167964935303,
				1.1667098999023438,
				0
			]
		},
		{
			"extensions":{
				"KHR_lights_punctual":{
					"light":1
				}
			},
			"name":"Point",
			"rotation":[
				-0.7071068286895752,
				0,
				0,
				0.7071068286895752
			],
			"scale":[
				0.969547688961029,
				1,
				0.5972412824630737
			],
			"translation":[
				-7.092321872711182,
				280.46923828125,
				-14.586296081542969
			]
		},
		{
			"extensions":{
				"KHR_lights_punctual":{
					"light":1
				}
			},
			"name":"Point.001",
			"rotation":[
				-0.7071068286895752,
				0,
				0,
				0.7071068286895752
			],
			"scale":[
				0.9968001842498779,
				1,
				0.5972412824630737
			],
			"translation":[
				5.8664655685424805,
				222.0810089111328,
				-14.586296081542969
			]
		},
		{
			"extensions":{
				"KHR_lights_punctual":{
					"light":1
				}
			},
			"name":"Point.002",
			"rotation":[
				-0.7071068286895752,
				0,
				0,
				0.7071068286895752
			],
			"scale":[
				1.1169934272766113,
				1,
				0.5972412824630737
			],
			"translation":[
				-28.150108337402344,
				249.55047607421875,
				-14.586296081542969
			]
		},
		{
			"extensions":{
				"KHR_lights_punctual":{
					"light":1
				}
			},
			"name":"Point.003",
			"rotation":[
				-0.7071068286895752,
				0,
				0,
				0.7071068286895752
			],
			"scale":[
				1.1169934272766113,
				1,
				0.5972412824630737
			],
			"translation":[
				24.189586639404297,
				249.55047607421875,
				-14.586296081542969
			]
		},
		{
			"extensions":{
				"KHR_lights_punctual":{
					"light":1
				}
			},
			"name":"Point.004",
			"rotation":[
				-0.7071068286895752,
				0,
				0,
				0.7071068286895752
			],
			"scale":[
				0.969547688961029,
				1,
				0.5972412824630737
			],
			"translation":[
				-31.979196548461914,
				279.1067199707031,
				-14.586296081542969
			]
		},
		{
			"extensions":{
				"KHR_lights_punctual":{
					"light":1
				}
			},
			"name":"Point.005",
			"rotation":[
				-0.7071068286895752,
				0,
				0,
				0.7071068286895752
			],
			"scale":[
				0.969547688961029,
				1,
				0.5972412824630737
			],
			"translation":[
				16.424760818481445,
				278.1124267578125,
				-14.586296081542969
			]
		},
		{
			"extensions":{
				"KHR_lights_punctual":{
					"light":1
				}
			},
			"name":"Point.006",
			"rotation":[
				-0.7071068286895752,
				0,
				0,
				0.7071068286895752
			],
			"scale":[
				1.1169934272766113,
				1,
				0.5972412824630737
			],
			"translation":[
				-3.3160877227783203,
				249.55047607421875,
				-14.586296081542969
			]
		},
		{
			"extensions":{
				"KHR_lights_punctual":{
					"light":1
				}
			},
			"name":"Point.007",
			"rotation":[
				-0.7071068286895752,
				0,
				0,
				0.7071068286895752
			],
			"scale":[
				1.1169934272766113,
				1,
				0.5972412824630737
			],
			"translation":[
				-28.150108337402344,
				189.19590759277344,
				-14.586296081542969
			]
		},
		{
			"extensions":{
				"KHR_lights_punctual":{
					"light":1
				}
			},
			"name":"Point.008",
			"rotation":[
				-0.7071068286895752,
				0,
				0,
				0.7071068286895752
			],
			"scale":[
				1.1169934272766113,
				1,
				0.5972412824630737
			],
			"translation":[
				24.189586639404297,
				189.19590759277344,
				-14.586296081542969
			]
		},
		{
			"extensions":{
				"KHR_lights_punctual":{
					"light":1
				}
			},
			"name":"Point.009",
			"rotation":[
				-0.7071068286895752,
				0,
				0,
				0.7071068286895752
			],
			"scale":[
				0.9968001842498779,
				1,
				0.5972412824630737
			],
			"translation":[
				-19.719942092895508,
				220.7184600830078,
				-14.586296081542969
			]
		},
		{
			"extensions":{
				"KHR_lights_punctual":{
					"light":1
				}
			},
			"name":"Point.010",
			"rotation":[
				-0.7071068286895752,
				0,
				0,
				0.7071068286895752
			],
			"scale":[
				0.9968001842498779,
				1,
				0.5972412824630737
			],
			"translation":[
				30.04457664489746,
				219.72415161132812,
				-14.586296081542969
			]
		},
		{
			"extensions":{
				"KHR_lights_punctual":{
					"light":1
				}
			},
			"name":"Point.011",
			"rotation":[
				-0.7071068286895752,
				0,
				0,
				0.7071068286895752
			],
			"scale":[
				1.1169934272766113,
				1,
				0.5972412824630737
			],
			"translation":[
				-3.3160877227783203,
				189.19590759277344,
				-14.586296081542969
			]
		},
		{
			"extensions":{
				"KHR_lights_punctual":{
					"light":2
				}
			},
			"name":"Spot",
			"rotation":[
				-0.7071068286895752,
				0,
				0,
				0.7071068286895752
			],
			"translation":[
				-2.0790905952453613,
				5.496946334838867,
				-6.043969631195068
			]
		},
		{
			"extensions":{
				"KHR_lights_punctual":{
					"light":3
				}
			},
			"name":"Spot.001",
			"rotation":[
				-0.6940695643424988,
				-0.13515715301036835,
				0.13515713810920715,
				0.6940695643424988
			],
			"translation":[
				-8.095104217529297,
				5.496946334838867,
				-5.789420127868652
			]
		},
		{
			"extensions":{
				"KHR_lights_punctual":{
					"light":4
				}
			},
			"name":"Spot.002",
			"rotation":[
				-0.7065232396125793,
				-0.028720464557409286,
				0.028720464557409286,
				0.7065232992172241
			],
			"translation":[
				5.657022476196289,
				7.80091667175293,
				-6.031158924102783
			]
		},
		{
			"mesh":33,
			"name":"Suzanne",
			"rotation":[
				-0.37030473351478577,
				-0.23308169841766357,
				-0.09654560685157776,
				0.8939946889877319
			],
			"scale":[
				0.31927305459976196,
				0.31927311420440674,
				0.31927311420440674
			],
			"translation":[
				-5.177813529968262,
				0.4276255965232849,
				-6.500825881958008
			]
		},
		{
			"mesh":34,
			"name":"Suzanne.001",
			"rotation":[
				-0.38161811232566833,
				0.06888812780380249,
				0.02853439189493656,
				0.9213076829910278
			],
			"scale":[
				0.450083464384079,
				0.45008355379104614,
				0.45008352398872375
			],
			"translation":[
				-2.2981598377227783,
				0.6143041253089905,
				-6.65485954284668
			]
		},
		{
			"mesh":35,
			"name":"Text",
			"rotation":[
				0.7028127908706665,
				-0.07780824601650238,
				0.07780823856592178,
				0.702812910079956
			],
			"translation":[
				1.5992385149002075,
				0.8046343922615051,
				-6.28424072265625
			]
		},
		{
			"children":[
				1,
				2,
				3,
				4,
				5,
				6,
				7,
				8,
				9,
				10,
				11,
				12,
				13,
				14,
				31,
				32,
				33,
				34,
				41,
				42,
				43,
				44,
				45,
				46,
				47,
				48,
				49,
				50,
				51,
				52,
				53,
				54,
				55,
				56,
				57,
				58,
				59
			],
			"name":"Soba"
		}
	],
	"cameras":[
		{
			"name":"Camera",
			"perspective":{
				"aspectRatio":1.7777777777777777,
				"yfov":0.39959652046304894,
				"zfar":1000,
				"znear":0.10000000149011612
			},
			"type":"perspective"
		}
	],
	"materials":[
		{
			"doubleSided":true,
			"extensions":{
				"KHR_materials_clearcoat":{
					"clearcoatFactor":1
				}
			},
			"name":"Material.010",
			"pbrMetallicRoughness":{
				"baseColorTexture":{
					"index":0
				},
				"metallicFactor":0,
				"roughnessFactor":0.5
			}
		},
		{
			"doubleSided":true,
			"name":"Material.001",
			"pbrMetallicRoughness":{
				"baseColorFactor":[
					0.010220009833574295,
					0,
					0,
					1
				],
				"metallicFactor":0,
				"roughnessFactor":0.1550387591123581
			}
		},
		{
			"doubleSided":true,
			"name":"Material.003",
			"pbrMetallicRoughness":{
				"baseColorFactor":[
					0.800000011920929,
					0.800000011920929,
					0.800000011920929,
					1
				],
				"metallicFactor":0,
				"roughnessFactor":0.5
			}
		},
		{
			"doubleSided":true,
			"emissiveFactor":[
				1,
				0.00806388072669506,
				0
			],
			"extensions":{
				"KHR_materials_emissive_strength":{
					"emissiveStrength":100
				}
			},
			"name":"Material.007",
			"pbrMetallicRoughness":{
				"baseColorFactor":[
					0.8000074625015259,
					0.0002825904230121523,
					0,
					1
				],
				"metallicFactor":0,
				"roughnessFactor":0.5
			}
		},
		{
			"doubleSided":true,
			"extensions":{
				"KHR_materials_clearcoat":{
					"clearcoatFactor":1
				}
			},
			"name":"Material.009",
			"pbrMetallicRoughness":{
				"baseColorFactor":[
					0,
					0,
					0,
					1
				],
				"metallicFactor":0
			}
		},
		{
			"doubleSided":true,
			"name":"Material.011",
			"pbrMetallicRoughness":{
				"baseColorFactor":[
					0.800000011920929,
					0.800000011920929,
					0.800000011920929,
					1
				],
				"metallicFactor":0,
				"roughnessFactor":0
			}
		},
		{
			"doubleSided":true,
			"name":"Material.015",
			"pbrMetallicRoughness":{
				"baseColorFactor":[
					0.800000011920929,
					0.800000011920929,
					0.800000011920929,
					1
				],
				"metallicFactor":0.3333333432674408,
				"roughnessFactor":0
			}
		},
		{
			"doubleSided":true,
			"name":"Material.019",
			"pbrMetallicRoughness":{
				"baseColorFactor":[
					0.800000011920929,
					0.800000011920929,
					0.800000011920929,
					1
				],
				"metallicFactor":0.6666659712791443,
				"roughnessFactor":0
			}
		},
		{
			"doubleSided":true,
			"name":"Material.023",
			"pbrMetallicRoughness":{
				"baseColorFactor":[
					0.800000011920929,
					0.800000011920929,
					0.800000011920929,
					1
				],
				"roughnessFactor":0
			}
		},
		{
			"doubleSided":true,
			"name":"Material.012",
			"pbrMetallicRoughness":{
				"baseColorFactor":[
					0.800000011920929,
					0.800000011920929,
					0.800000011920929,
					1
				],
				"metallicFactor":0,
				"roughnessFactor":0.33333298563957214
			}
		},
		{
			"doubleSided":true,
			"name":"Material.016",
			"pbrMetallicRoughness":{
				"baseColorFactor":[
					0.800000011920929,
					0.800000011920929,
					0.800000011920929,
					1
				],
				"metallicFactor":0.3333333432674408,
				"roughnessFactor":0.33333298563957214
			}
		},
		{
			"doubleSided":true,
			"name":"Material.020",
			"pbrMetallicRoughness":{
				"baseColorFactor":[
					0.800000011920929,
					0.800000011920929,
					0.800000011920929,
					1
				],
				"metallicFactor":0.6666659712791443,
				"roughnessFactor":0.33333298563957214
			}
		},
		{
			"doubleSided":true,
			"name":"Material.024",
			"pbrMetallicRoughness":{
				"baseColorFactor":[
					0.800000011920929,
					0.800000011920929,
					0.800000011920929,
					1
				],
				"roughnessFactor":0.33333298563957214
			}
		},
		{
			"doubleSided":true,
			"name":"Material.013",
			"pbrMetallicRoughness":{
				"baseColorFactor":[
					0.800000011920929,
					0.800000011920929,
					0.800000011920929,
					1
				],
				"metallicFactor":0,
				"roughnessFactor":0.6666659712791443
			}
		},
		{
			"doubleSided":true,
			"name":"Material.017",
			"pbrMetallicRoughness":{
				"baseColorFactor":[
					0.800000011920929,
					0.800000011920929,
					0.800000011920929,
					1
				],
				"metallicFactor":0.3333333432674408,
				"roughnessFactor":0.6666659712791443
			}
		},
		{
			"doubleSided":true,
			"name":"Material.021",
			"pbrMetallicRoughness":{
				"baseColorFactor":[
					0.800000011920929,
					0.800000011920929,
					0.800000011920929,
					1
				],
				"metallicFactor":0.6666659712791443,
				"roughnessFactor":0.6666659712791443
			}
		},
		{
			"doubleSided":true,
			"name":"Material.025",
			"pbrMetallicRoughness":{
				"baseColorFactor":[
					0.800000011920929,
					0.800000011920929,
					0.800000011920929,
					1
				],
				"roughnessFactor":0.6666659712791443
			}
		},
		{
			"doubleSided":true,
			"name":"Material.014",
			"pbrMetallicRoughness":{
				"baseColorFactor":[
					0.800000011920929,
					0.800000011920929,
					0.800000011920929,
					1
				],
				"metallicFactor":0
			}
		},
		{
			"doubleSided":true,
			"name":"Material.018",
			"pbrMetallicRoughness":{
				"baseColorFactor":[
					0.800000011920929,
					0.800000011920929,
					0.800000011920929,
					1
				],
				"metallicFactor":0.3333333432674408
			}
		},
		{
			"doubleSided":true,
			"name":"Material.022",
			"pbrMetallicRoughness":{
				"baseColorFactor":[
					0.800000011920929,
					0.800000011920929,
					0.800000011920929,
					1
				],
				"metallicFactor":0.6666659712791443
			}
		},
		{
			"doubleSided":true,
			"name":"Material.004",
			"pbrMetallicRoughness":{
				"baseColorFactor":[
					0.800000011920929,
					0.800000011920929,
					0.800000011920929,
					1
				]
			}
		},
		{
			"doubleSided":true,
			"name":"Material",
			"pbrMetallicRoughness":{
				"baseColorFactor":[
					0.001554909162223339,
					0.0015508634969592094,
					0.0015272552845999599,
					1
				],
				"metallicFactor":0,
				"roughnessFactor":0.8701754212379456
			}
		},
		{
			"doubleSided":true,
			"name":"Material.002",
			"pbrMetallicRoughness":{
				"baseColorFactor":[
					0.800000011920929,
					0.800000011920929,
					0.800000011920929,
					1
				],
				"metallicFactor":0,
				"roughnessFactor":0.5
			}
		},
		{
			"doubleSided":true,
			"name":"Material.008",
			"pbrMetallicRoughness":{
				"baseColorTexture":{
					"index":1
				},
				"metallicFactor":0
			}
		},
		{
			"doubleSided":true,
			"name":"Material.027",
			"pbrMetallicRoughness":{
				"baseColorFactor":[
					0.800000011920929,
					0.800000011920929,
					0.800000011920929,
					1
				],
				"roughnessFactor":0
			}
		},
		{
			"doubleSided":true,
			"name":"Material.028",
			"pbrMetallicRoughness":{
				"baseColorFactor":[
					0.800000011920929,
					0.800000011920929,
					0.800000011920929,
					1
				],
				"roughnessFactor":0.05813952535390854
			}
		},
		{
			"doubleSided":true,
			"name":"Material.029",
			"pbrMetallicRoughness":{
				"baseColorFactor":[
					0.800000011920929,
					0.800000011920929,
					0.800000011920929,
					1
				],
				"roughnessFactor":0.15633073449134827
			}
		},
		{
			"doubleSided":true,
			"name":"Material.030",
			"pbrMetallicRoughness":{
				"baseColorFactor":[
					0.800000011920929,
					0.800000011920929,
					0.800000011920929,
					1
				],
				"roughnessFactor":0.3087855279445648
			}
		},
		{
			"doubleSided":true,
			"name":"Material.031",
			"pbrMetallicRoughness":{
				"baseColorFactor":[
					0.800000011920929,
					0.800000011920929,
					0.800000011920929,
					1
				],
				"roughnessFactor":0.5
			}
		},
		{
			"doubleSided":true,
			"name":"Material.032",
			"pbrMetallicRoughness":{
				"baseColorFactor":[
					0.800000011920929,
					0.800000011920929,
					0.800000011920929,
					1
				],
				"roughnessFactor":0.9005168080329895
			}
		},
		{
			"doubleSided":true,
			"name":"Material.005",
			"pbrMetallicRoughness":{
				"baseColorFactor":[
					0.800000011920929,
					0.800000011920929,
					0.800000011920929,
					1
				],
				"metallicFactor":0,
				"roughnessFactor":0.7886598110198975
			}
		},
		{
			"doubleSided":true,
			"name":"Material.006",
			"pbrMetallicRoughness":{
				"baseColorFactor":[
					0.800000011920929,
					0.800000011920929,
					0.800000011920929,
					1
				],
				"metallicFactor":0.7963917255401611,
				"roughnessFactor":0.3041236996650696
			}
		},
		{
			"doubleSided":true,
			"name":"Material.026",
			"pbrMetallicRoughness":{
				"baseColorFactor":[
					0.800000011920929,
					0.800000011920929,
					0.800000011920929,
					1
				],
				"metallicFactor":0.9638242721557617,
				"roughnessFactor":0.02713179588317871
			}
		}
	],
	"meshes":[
		{
			"name":"Cube",
			"primitives":[
				{
					"attributes":{
						"POSITION":0,
						"NORMAL":1,
						"TEXCOORD_0":2
					},
					"indices":3,
					"material":0
				}
			]
		},
		{
			"name":"Cube.002",
			"primitives":[
				{
					"attributes":{
						"POSITION":4,
						"NORMAL":5,
						"TEXCOORD_0":6
					},
					"indices":3,
					"material":0
				}
			]
		},
		{
			"name":"Cube.003",
			"primitives":[
				{
					"attributes":{
						"POSITION":7,
						"NORMAL":8,
						"TEXCOORD_0":9
					},
					"indices":3,
					"material":0
				}
			]
		},
		{
			"name":"Cube.004",
			"primitives":[
				{
					"attributes":{
						"POSITION":10,
						"NORMAL":11,
						"TEXCOORD_0":12
					},
					"indices":3,
					"material":0
				}
			]
		},
		{
			"name":"Cube.001",
			"primitives":[
				{
					"attributes":{
						"POSITION":13,
						"NORMAL":14,
						"TEXCOORD_0":15
					},
					"indices":3,
					"material":1
				}
			]
		},
		{
			"name":"Cube.005",
			"primitives":[
				{
					"attributes":{
						"POSITION":16,
						"NORMAL":17,
						"TEXCOORD_0":18
					},
					"indices":19,
					"material":2
				}
			]
		},
		{
			"name":"Cube.006",
			"primitives":[
				{
					"attributes":{
						"POSITION":20,
						"NORMAL":21,
						"TEXCOORD_0":22
					},
					"indices":3,
					"material":3
				}
			]
		},
		{
			"name":"Cylinder",
			"primitives":[
				{
					"attributes":{
						"POSITION":23,
						"NORMAL":24,
						"TEXCOORD_0":25
					},
					"indices":26,
					"material":4
				}
			]
		},
		{
			"name":"Icosphere.001",
			"primitives":[
				{
					"attributes":{
						"POSITION":27,
						"NORMAL":28,
						"TEXCOORD_0":29
					},
					"indices":30,
					"material":5
				}
			]
		},
		{
			"name":"Icosphere.002",
			"primitives":[
				{
					"attributes":{
						"POSITION":31,
						"NORMAL":32,
						"TEXCOORD_0":33
					},
					"indices":34,
					"material":6
				}
			]
		},
		{
			"name":"Icosphere.003",
			"primitives":[
				{
					"attributes":{
						"POSITION":35,
						"NORMAL":36,
						"TEXCOORD_0":37
					},
					"indices":34,
					"material":7
				}
			]
		},
		{
			"name":"Icosphere.004",
			"primitives":[
				{
					"attributes":{
						"POSITION":38,
						"NORMAL":39,
						"TEXCOORD_0":40
					},
					"indices":34,
					"material":8
				}
			]
		},
		{
			"name":"Icosphere.005",
			"primitives":[
				{
					"attributes":{
						"POSITION":41,
						"NORMAL":42,
						"TEXCOORD_0":43
					},
					"indices":34,
					"material":9
				}
			]
		},
		{
			"name":"Icosphere.006",
			"primitives":[
				{
					"attributes":{
						"POSITION":44,
						"NORMAL":45,
						"TEXCOORD_0":46
					},
					"indices":34,
					"material":10
				}
			]
		},
		{
			"name":"Icosphere.007",
			"primitives":[
				{
					"attributes":{
						"POSITION":47,
						"NORMAL":48,
						"TEXCOORD_0":49
					},
					"indices":34,
					"material":11
				}
			]
		},
		{
			"name":"Icosphere.008",
			"primitives":[
				{
					"attributes":{
						"POSITION":50,
						"NORMAL":51,
						"TEXCOORD_0":52
					},
					"indices":34,
					"material":12
				}
			]
		},
		{
			"name":"Icosphere.009",
			"primitives":[
				{
					"attributes":{
						"POSITION":53,
						"NORMAL":54,
						"TEXCOORD_0":55
					},
					"indices":34,
					"material":13
				}
			]
		},
		{
			"name":"Icosphere.010",
			"primitives":[
				{
					"attributes":{
						"POSITION":56,
						"NORMAL":57,
						"TEXCOORD_0":58
					},
					"indices":34,
					"material":14
				}
			]
		},
		{
			"name":"Icosphere.011",
			"primitives":[
				{
					"attributes":{
						"POSITION":59,
						"NORMAL":60,
						"TEXCOORD_0":61
					},
					"indices":34,
					"material":15
				}
			]
		},
		{
			"name":"Icosphere.012",
			"primitives":[
				{
					"attributes":{
						"POSITION":62,
						"NORMAL":63,
						"TEXCOORD_0":64
					},
					"indices":34,
					"material":16
				}
			]
		},
		{
			"name":"Icosphere.013",
			"primitives":[
				{
					"attributes":{
						"POSITION":65,
						"NORMAL":66,
						"TEXCOORD_0":67
					},
					"indices":34,
					"material":17
				}
			]
		},
		{
			"name":"Icosphere.014",
			"primitives":[
				{
					"attributes":{
						"POSITION":68,
						"NORMAL":69,
						"TEXCOORD_0":70
					},
					"indices":34,
					"material":18
				}
			]
		},
		{
			"name":"Icosphere.015",
			"primitives":[
				{
					"attributes":{
						"POSITION":71,
						"NORMAL":72,
						"TEXCOORD_0":73
					},
					"indices":34,
					"material":19
				}
			]
		},
		{
			"name":"Icosphere.016",
			"primitives":[
				{
					"attributes":{
						"POSITION":74,
						"NORMAL":75,
						"TEXCOORD_0":76
					},
					"indices":34,
					"material":20
				}
			]
		},
		{
			"name":"Plane",
			"primitives":[
				{
					"attributes":{
						"POSITION":77,
						"NORMAL":78,
						"TEXCOORD_0":79
					},
					"indices":80,
					"material":21
				}
			]
		},
		{
			"name":"Plane.002",
			"primitives":[
				{
					"attributes":{
						"POSITION":81,
						"NORMAL":82,
						"TEXCOORD_0":83
					},
					"indices":84,
					"material":22
				}
			]
		},
		{
			"name":"SCREENx",
			"primitives":[
				{
					"attributes":{
						"POSITION":85,
						"NORMAL":86,
						"TEXCOORD_0":87
					},
					"indices":80,
					"material":23
				}
			]
		},
		{
			"name":"Plane.001",
			"primitives":[
				{
					"attributes":{
						"POSITION":88,
						"NORMAL":89,
						"TEXCOORD_0":90
					},
					"indices":80,
					"material":24
				}
			]
		},
		{
			"name":"Plane.003",
			"primitives":[
				{
					"attributes":{
						"POSITION":91,
						"NORMAL":92,
						"TEXCOORD_0":93
					},
					"indices":84,
					"material":25
				}
			]
		},
		{
			"name":"Plane.004",
			"primitives":[
				{
					"attributes":{
						"POSITION":94,
						"NORMAL":95,
						"TEXCOORD_0":96
					},
					"indices":84,
					"material":26
				}
			]
		},
		{
			"name":"Plane.005",
			"primitives":[
				{
					"attributes":{
						"POSITION":97,
						"NORMAL":98,
						"TEXCOORD_0":99
					},
					"indices":84,
					"material":27
				}
			]
		},
		{
			"name":"Plane.006",
			"primitives":[
				{
					"attributes":{
						"POSITION":100,
						"NORMAL":101,
						"TEXCOORD_0":102
					},
					"indices":84,
					"material":28
				}
			]
		},
		{
			"name":"Plane.007",
			"primitives":[
				{
					"attributes":{
						"POSITION":103,
						"NORMAL":104,
						"TEXCOORD_0":105
					},
					"indices":84,
					"material":29
				}
			]
		},
		{
			"name":"Suzanne",
			"primitives":[
				{
					"attributes":{
						"POSITION":106,
						"NORMAL":107,
						"TEXCOORD_0":108
					},
					"indices":109,
					"material":30
				}
			]
		},
		{
			"name":"Suzanne.001",
			"primitives":[
				{
					"attributes":{
						"POSITION":110,
						"NORMAL":111,
						"TEXCOORD_0":112
					},
					"indices":109,
					"material":31
				}
			]
		},
		{
			"name":"Text.001",
			"primitives":[
				{
					"attributes":{
						"POSITION":113,
						"NORMAL":114,
						"TEXCOORD_0":115
					},
					"indices":116,
					"material":32
				}
			]
		}
	],
	"textures":[
		{
			"sampler":0,
			"source":0
		},
		{
			"sampler":1,
			"source":1
		}
	],
	"images":[
		{
			"mimeType":"image/png",
			"name":"barve",
			"uri":"barve.png"
		},
		{
			"mimeType":"image/png",
			"name":"Bliss_(Windows_XP)",
			"uri":"Bliss_%28Windows_XP%29.png"
		}
	],
	"accessors":[
		{
			"bufferView":0,
			"componentType":5126,
			"count":24,
			"max":[
				1,
				1,
				1
			],
			"min":[
				-1,
				-1,
				-1
			],
			"type":"VEC3"
		},
		{
			"bufferView":1,
			"componentType":5126,
			"count":24,
			"type":"VEC3"
		},
		{
			"bufferView":2,
			"componentType":5126,
			"count":24,
			"type":"VEC2"
		},
		{
			"bufferView":3,
			"componentType":5123,
			"count":36,
			"type":"SCALAR"
		},
		{
			"bufferView":4,
			"componentType":5126,
			"count":24,
			"max":[
				1,
				1.818333625793457,
				1
			],
			"min":[
				-1,
				-1,
				-1
			],
			"type":"VEC3"
		},
		{
			"bufferView":5,
			"componentType":5126,
			"count":24,
			"type":"VEC3"
		},
		{
			"bufferView":6,
			"componentType":5126,
			"count":24,
			"type":"VEC2"
		},
		{
			"bufferView":7,
			"componentType":5126,
			"count":24,
			"max":[
				1,
				3.9874379634857178,
				1
			],
			"min":[
				-1,
				-1,
				-1
			],
			"type":"VEC3"
		},
		{
			"bufferView":8,
			"componentType":5126,
			"count":24,
			"type":"VEC3"
		},
		{
			"bufferView":9,
			"componentType":5126,
			"count":24,
			"type":"VEC2"
		},
		{
			"bufferView":10,
			"componentType":5126,
			"count":24,
			"max":[
				1,
				10.591286659240723,
				1
			],
			"min":[
				-1,
				-1,
				-1
			],
			"type":"VEC3"
		},
		{
			"bufferView":11,
			"componentType":5126,
			"count":24,
			"type":"VEC3"
		},
		{
			"bufferView":12,
			"componentType":5126,
			"count":24,
			"type":"VEC2"
		},
		{
			"bufferView":13,
			"componentType":5126,
			"count":24,
			"max":[
				1,
				301,
				1
			],
			"min":[
				-1,
				-1,
				-1
			],
			"type":"VEC3"
		},
		{
			"bufferView":14,
			"componentType":5126,
			"count":24,
			"type":"VEC3"
		},
		{
			"bufferView":15,
			"componentType":5126,
			"count":24,
			"type":"VEC2"
		},
		{
			"bufferView":16,
			"componentType":5126,
			"count":1920,
			"max":[
				46.42616653442383,
				4.583114147186279,
				7.034262657165527
			],
			"min":[
				-7.034262657165527,
				-1,
				-7.034262657165527
			],
			"type":"VEC3"
		},
		{
			"bufferView":17,
			"componentType":5126,
			"count":1920,
			"type":"VEC3"
		},
		{
			"bufferView":18,
			"componentType":5126,
			"count":1920,
			"type":"VEC2"
		},
		{
			"bufferView":19,
			"componentType":5123,
			"count":4248,
			"type":"SCALAR"
		},
		{
			"bufferView":20,
			"componentType":5126,
			"count":24,
			"max":[
				1,
				1,
				1
			],
			"min":[
				-1,
				-1,
				-1
			],
			"type":"VEC3"
		},
		{
			"bufferView":21,
			"componentType":5126,
			"count":24,
			"type":"VEC3"
		},
		{
			"bufferView":22,
			"componentType":5126,
			"count":24,
			"type":"VEC2"
		},
		{
			"bufferView":23,
			"componentType":5126,
			"count":32,
			"max":[
				1,
				0,
				1
			],
			"min":[
				-1,
				0,
				-1
			],
			"type":"VEC3"
		},
		{
			"bufferView":24,
			"componentType":5126,
			"count":32,
			"type":"VEC3"
		},
		{
			"bufferView":25,
			"componentType":5126,
			"count":32,
			"type":"VEC2"
		},
		{
			"bufferView":26,
			"componentType":5123,
			"count":90,
			"type":"SCALAR"
		},
		{
			"bufferView":27,
			"componentType":5126,
			"count":63,
			"max":[
				0.9510578513145447,
				1,
				0.9999999403953552
			],
			"min":[
				-0.9510578513145447,
				-1,
				-0.9999999403953552
			],
			"type":"VEC3"
		},
		{
			"bufferView":28,
			"componentType":5126,
			"count":63,
			"type":"VEC3"
		},
		{
			"bufferView":29,
			"componentType":5126,
			"count":63,
			"type":"VEC2"
		},
		{
			"bufferView":30,
			"componentType":5123,
			"count":240,
			"type":"SCALAR"
		},
		{
			"bufferView":31,
			"componentType":5126,
			"count":63,
			"max":[
				0.9510578513145447,
				4.400000095367432,
				0.9999999403953552
			],
			"min":[
				-0.9510578513145447,
				2.4000000953674316,
				-0.9999999403953552
			],
			"type":"VEC3"
		},
		{
			"bufferView":32,
			"componentType":5126,
			"count":63,
			"type":"VEC3"
		},
		{
			"bufferView":33,
			"componentType":5126,
			"count":63,
			"type":"VEC2"
		},
		{
			"bufferView":34,
			"componentType":5123,
			"count":240,
			"type":"SCALAR"
		},
		{
			"bufferView":35,
			"componentType":5126,
			"count":63,
			"max":[
				0.9510578513145447,
				7.800000190734863,
				0.9999999403953552
			],
			"min":[
				-0.9510578513145447,
				5.800000190734863,
				-0.9999999403953552
			],
			"type":"VEC3"
		},
		{
			"bufferView":36,
			"componentType":5126,
			"count":63,
			"type":"VEC3"
		},
		{
			"bufferView":37,
			"componentType":5126,
			"count":63,
			"type":"VEC2"
		},
		{
			"bufferView":38,
			"componentType":5126,
			"count":63,
			"max":[
				0.9510578513145447,
				11.200000762939453,
				0.9999999403953552
			],
			"min":[
				-0.9510578513145447,
				9.200000762939453,
				-0.9999999403953552
			],
			"type":"VEC3"
		},
		{
			"bufferView":39,
			"componentType":5126,
			"count":63,
			"type":"VEC3"
		},
		{
			"bufferView":40,
			"componentType":5126,
			"count":63,
			"type":"VEC2"
		},
		{
			"bufferView":41,
			"componentType":5126,
			"count":63,
			"max":[
				4.184654235839844,
				1,
				0.9999999403953552
			],
			"min":[
				2.282538652420044,
				-1,
				-0.9999999403953552
			],
			"type":"VEC3"
		},
		{
			"bufferView":42,
			"componentType":5126,
			"count":63,
			"type":"VEC3"
		},
		{
			"bufferView":43,
			"componentType":5126,
			"count":63,
			"type":"VEC2"
		},
		{
			"bufferView":44,
			"componentType":5126,
			"count":63,
			"max":[
				4.184654235839844,
				4.400000095367432,
				0.9999999403953552
			],
			"min":[
				2.282538652420044,
				2.4000000953674316,
				-0.9999999403953552
			],
			"type":"VEC3"
		},
		{
			"bufferView":45,
			"componentType":5126,
			"count":63,
			"type":"VEC3"
		},
		{
			"bufferView":46,
			"componentType":5126,
			"count":63,
			"type":"VEC2"
		},
		{
			"bufferView":47,
			"componentType":5126,
			"count":63,
			"max":[
				4.184654235839844,
				7.800000190734863,
				0.9999999403953552
			],
			"min":[
				2.282538652420044,
				5.800000190734863,
				-0.9999999403953552
			],
			"type":"VEC3"
		},
		{
			"bufferView":48,
			"componentType":5126,
			"count":63,
			"type":"VEC3"
		},
		{
			"bufferView":49,
			"componentType":5126,
			"count":63,
			"type":"VEC2"
		},
		{
			"bufferView":50,
			"componentType":5126,
			"count":63,
			"max":[
				4.184654235839844,
				11.200000762939453,
				0.9999999403953552
			],
			"min":[
				2.282538652420044,
				9.200000762939453,
				-0.9999999403953552
			],
			"type":"VEC3"
		},
		{
			"bufferView":51,
			"componentType":5126,
			"count":63,
			"type":"VEC3"
		},
		{
			"bufferView":52,
			"componentType":5126,
			"count":63,
			"type":"VEC2"
		},
		{
			"bufferView":53,
			"componentType":5126,
			"count":63,
			"max":[
				7.418251037597656,
				1,
				0.9999999403953552
			],
			"min":[
				5.516135215759277,
				-1,
				-0.9999999403953552
			],
			"type":"VEC3"
		},
		{
			"bufferView":54,
			"componentType":5126,
			"count":63,
			"type":"VEC3"
		},
		{
			"bufferView":55,
			"componentType":5126,
			"count":63,
			"type":"VEC2"
		},
		{
			"bufferView":56,
			"componentType":5126,
			"count":63,
			"max":[
				7.418251037597656,
				4.400000095367432,
				0.9999999403953552
			],
			"min":[
				5.516135215759277,
				2.4000000953674316,
				-0.9999999403953552
			],
			"type":"VEC3"
		},
		{
			"bufferView":57,
			"componentType":5126,
			"count":63,
			"type":"VEC3"
		},
		{
			"bufferView":58,
			"componentType":5126,
			"count":63,
			"type":"VEC2"
		},
		{
			"bufferView":59,
			"componentType":5126,
			"count":63,
			"max":[
				7.418251037597656,
				7.800000190734863,
				0.9999999403953552
			],
			"min":[
				5.516135215759277,
				5.800000190734863,
				-0.9999999403953552
			],
			"type":"VEC3"
		},
		{
			"bufferView":60,
			"componentType":5126,
			"count":63,
			"type":"VEC3"
		},
		{
			"bufferView":61,
			"componentType":5126,
			"count":63,
			"type":"VEC2"
		},
		{
			"bufferView":62,
			"componentType":5126,
			"count":63,
			"max":[
				7.418251037597656,
				11.200000762939453,
				0.9999999403953552
			],
			"min":[
				5.516135215759277,
				9.200000762939453,
				-0.9999999403953552
			],
			"type":"VEC3"
		},
		{
			"bufferView":63,
			"componentType":5126,
			"count":63,
			"type":"VEC3"
		},
		{
			"bufferView":64,
			"componentType":5126,
			"count":63,
			"type":"VEC2"
		},
		{
			"bufferView":65,
			"componentType":5126,
			"count":63,
			"max":[
				10.651846885681152,
				1,
				0.9999999403953552
			],
			"min":[
				8.74973201751709,
				-1,
				-0.9999999403953552
			],
			"type":"VEC3"
		},
		{
			"bufferView":66,
			"componentType":5126,
			"count":63,
			"type":"VEC3"
		},
		{
			"bufferView":67,
			"componentType":5126,
			"count":63,
			"type":"VEC2"
		},
		{
			"bufferView":68,
			"componentType":5126,
			"count":63,
			"max":[
				10.651846885681152,
				4.400000095367432,
				0.9999999403953552
			],
			"min":[
				8.74973201751709,
				2.4000000953674316,
				-0.9999999403953552
			],
			"type":"VEC3"
		},
		{
			"bufferView":69,
			"componentType":5126,
			"count":63,
			"type":"VEC3"
		},
		{
			"bufferView":70,
			"componentType":5126,
			"count":63,
			"type":"VEC2"
		},
		{
			"bufferView":71,
			"componentType":5126,
			"count":63,
			"max":[
				10.651846885681152,
				7.800000190734863,
				0.9999999403953552
			],
			"min":[
				8.74973201751709,
				5.800000190734863,
				-0.9999999403953552
			],
			"type":"VEC3"
		},
		{
			"bufferView":72,
			"componentType":5126,
			"count":63,
			"type":"VEC3"
		},
		{
			"bufferView":73,
			"componentType":5126,
			"count":63,
			"type":"VEC2"
		},
		{
			"bufferView":74,
			"componentType":5126,
			"count":63,
			"max":[
				10.651846885681152,
				11.200000762939453,
				0.9999999403953552
			],
			"min":[
				8.74973201751709,
				9.200000762939453,
				-0.9999999403953552
			],
			"type":"VEC3"
		},
		{
			"bufferView":75,
			"componentType":5126,
			"count":63,
			"type":"VEC3"
		},
		{
			"bufferView":76,
			"componentType":5126,
			"count":63,
			"type":"VEC2"
		},
		{
			"bufferView":77,
			"componentType":5126,
			"count":4,
			"max":[
				1,
				0,
				1
			],
			"min":[
				-1,
				0,
				-1
			],
			"type":"VEC3"
		},
		{
			"bufferView":78,
			"componentType":5126,
			"count":4,
			"type":"VEC3"
		},
		{
			"bufferView":79,
			"componentType":5126,
			"count":4,
			"type":"VEC2"
		},
		{
			"bufferView":80,
			"componentType":5123,
			"count":6,
			"type":"SCALAR"
		},
		{
			"bufferView":81,
			"componentType":5126,
			"count":4,
			"max":[
				1,
				0,
				1
			],
			"min":[
				-1,
				0,
				-1
			],
			"type":"VEC3"
		},
		{
			"bufferView":82,
			"componentType":5126,
			"count":4,
			"type":"VEC3"
		},
		{
			"bufferView":83,
			"componentType":5126,
			"count":4,
			"type":"VEC2"
		},
		{
			"bufferView":84,
			"componentType":5123,
			"count":6,
			"type":"SCALAR"
		},
		{
			"bufferView":85,
			"componentType":5126,
			"count":4,
			"max":[
				1,
				0,
				1
			],
			"min":[
				-1,
				0,
				-1
			],
			"type":"VEC3"
		},
		{
			"bufferView":86,
			"componentType":5126,
			"count":4,
			"type":"VEC3"
		},
		{
			"bufferView":87,
			"componentType":5126,
			"count":4,
			"type":"VEC2"
		},
		{
			"bufferView":88,
			"componentType":5126,
			"count":4,
			"max":[
				1,
				0,
				1
			],
			"min":[
				-1,
				0,
				-1
			],
			"type":"VEC3"
		},
		{
			"bufferView":89,
			"componentType":5126,
			"count":4,
			"type":"VEC3"
		},
		{
			"bufferView":90,
			"componentType":5126,
			"count":4,
			"type":"VEC2"
		},
		{
			"bufferView":91,
			"componentType":5126,
			"count":4,
			"max":[
				3.2599997520446777,
				0,
				1
			],
			"min":[
				1.2599997520446777,
				0,
				-1
			],
			"type":"VEC3"
		},
		{
			"bufferView":92,
			"componentType":5126,
			"count":4,
			"type":"VEC3"
		},
		{
			"bufferView":93,
			"componentType":5126,
			"count":4,
			"type":"VEC2"
		},
		{
			"bufferView":94,
			"componentType":5126,
			"count":4,
			"max":[
				5.5199995040893555,
				0,
				1
			],
			"min":[
				3.5199995040893555,
				0,
				-1
			],
			"type":"VEC3"
		},
		{
			"bufferView":95,
			"componentType":5126,
			"count":4,
			"type":"VEC3"
		},
		{
			"bufferView":96,
			"componentType":5126,
			"count":4,
			"type":"VEC2"
		},
		{
			"bufferView":97,
			"componentType":5126,
			"count":4,
			"max":[
				7.779999256134033,
				0,
				1
			],
			"min":[
				5.779999256134033,
				0,
				-1
			],
			"type":"VEC3"
		},
		{
			"bufferView":98,
			"componentType":5126,
			"count":4,
			"type":"VEC3"
		},
		{
			"bufferView":99,
			"componentType":5126,
			"count":4,
			"type":"VEC2"
		},
		{
			"bufferView":100,
			"componentType":5126,
			"count":4,
			"max":[
				10.039999008178711,
				0,
				1
			],
			"min":[
				8.039999008178711,
				0,
				-1
			],
			"type":"VEC3"
		},
		{
			"bufferView":101,
			"componentType":5126,
			"count":4,
			"type":"VEC3"
		},
		{
			"bufferView":102,
			"componentType":5126,
			"count":4,
			"type":"VEC2"
		},
		{
			"bufferView":103,
			"componentType":5126,
			"count":4,
			"max":[
				12.299999237060547,
				0,
				1
			],
			"min":[
				10.299999237060547,
				0,
				-1
			],
			"type":"VEC3"
		},
		{
			"bufferView":104,
			"componentType":5126,
			"count":4,
			"type":"VEC3"
		},
		{
			"bufferView":105,
			"componentType":5126,
			"count":4,
			"type":"VEC2"
		},
		{
			"bufferView":106,
			"componentType":5126,
			"count":1966,
			"max":[
				1.3671875,
				0.984375,
				0.8515625
			],
			"min":[
				-1.3671875,
				-0.984375,
				-0.8515625
			],
			"type":"VEC3"
		},
		{
			"bufferView":107,
			"componentType":5126,
			"count":1966,
			"type":"VEC3"
		},
		{
			"bufferView":108,
			"componentType":5126,
			"count":1966,
			"type":"VEC2"
		},
		{
			"bufferView":109,
			"componentType":5123,
			"count":2904,
			"type":"SCALAR"
		},
		{
			"bufferView":110,
			"componentType":5126,
			"count":1966,
			"max":[
				1.3671875,
				0.984375,
				0.8515625
			],
			"min":[
				-1.3671875,
				-0.984375,
				-0.8515625
			],
			"type":"VEC3"
		},
		{
			"bufferView":111,
			"componentType":5126,
			"count":1966,
			"type":"VEC3"
		},
		{
			"bufferView":112,
			"componentType":5126,
			"count":1966,
			"type":"VEC2"
		},
		{
			"bufferView":113,
			"componentType":5126,
			"count":4128,
			"max":[
				1.947338581085205,
				0.08999999612569809,
				0.04902664199471474
			],
			"min":[
				0.030000008642673492,
				-0.08999999612569809,
				-0.722000002861023
			],
			"type":"VEC3"
		},
		{
			"bufferView":114,
			"componentType":5126,
			"count":4128,
			"type":"VEC3"
		},
		{
			"bufferView":115,
			"componentType":5126,
			"count":4128,
			"type":"VEC2"
		},
		{
			"bufferView":116,
			"componentType":5123,
			"count":20736,
			"type":"SCALAR"
		}
	],
	"bufferViews":[
		{
			"buffer":0,
			"byteLength":288,
			"byteOffset":0,
			"target":34962
		},
		{
			"buffer":0,
			"byteLength":288,
			"byteOffset":288,
			"target":34962
		},
		{
			"buffer":0,
			"byteLength":192,
			"byteOffset":576,
			"target":34962
		},
		{
			"buffer":0,
			"byteLength":72,
			"byteOffset":768,
			"target":34963
		},
		{
			"buffer":0,
			"byteLength":288,
			"byteOffset":840,
			"target":34962
		},
		{
			"buffer":0,
			"byteLength":288,
			"byteOffset":1128,
			"target":34962
		},
		{
			"buffer":0,
			"byteLength":192,
			"byteOffset":1416,
			"target":34962
		},
		{
			"buffer":0,
			"byteLength":288,
			"byteOffset":1608,
			"target":34962
		},
		{
			"buffer":0,
			"byteLength":288,
			"byteOffset":1896,
			"target":34962
		},
		{
			"buffer":0,
			"byteLength":192,
			"byteOffset":2184,
			"target":34962
		},
		{
			"buffer":0,
			"byteLength":288,
			"byteOffset":2376,
			"target":34962
		},
		{
			"buffer":0,
			"byteLength":288,
			"byteOffset":2664,
			"target":34962
		},
		{
			"buffer":0,
			"byteLength":192,
			"byteOffset":2952,
			"target":34962
		},
		{
			"buffer":0,
			"byteLength":288,
			"byteOffset":3144,
			"target":34962
		},
		{
			"buffer":0,
			"byteLength":288,
			"byteOffset":3432,
			"target":34962
		},
		{
			"buffer":0,
			"byteLength":192,
			"byteOffset":3720,
			"target":34962
		},
		{
			"buffer":0,
			"byteLength":23040,
			"byteOffset":3912,
			"target":34962
		},
		{
			"buffer":0,
			"byteLength":23040,
			"byteOffset":26952,
			"target":34962
		},
		{
			"buffer":0,
			"byteLength":15360,
			"byteOffset":49992,
			"target":34962
		},
		{
			"buffer":0,
			"byteLength":8496,
			"byteOffset":65352,
			"target":34963
		},
		{
			"buffer":0,
			"byteLength":288,
			"byteOffset":73848,
			"target":34962
		},
		{
			"buffer":0,
			"byteLength":288,
			"byteOffset":74136,
			"target":34962
		},
		{
			"buffer":0,
			"byteLength":192,
			"byteOffset":74424,
			"target":34962
		},
		{
			"buffer":0,
			"byteLength":384,
			"byteOffset":74616,
			"target":34962
		},
		{
			"buffer":0,
			"byteLength":384,
			"byteOffset":75000,
			"target":34962
		},
		{
			"buffer":0,
			"byteLength":256,
			"byteOffset":75384,
			"target":34962
		},
		{
			"buffer":0,
			"byteLength":180,
			"byteOffset":75640,
			"target":34963
		},
		{
			"buffer":0,
			"byteLength":756,
			"byteOffset":75820,
			"target":34962
		},
		{
			"buffer":0,
			"byteLength":756,
			"byteOffset":76576,
			"target":34962
		},
		{
			"buffer":0,
			"byteLength":504,
			"byteOffset":77332,
			"target":34962
		},
		{
			"buffer":0,
			"byteLength":480,
			"byteOffset":77836,
			"target":34963
		},
		{
			"buffer":0,
			"byteLength":756,
			"byteOffset":78316,
			"target":34962
		},
		{
			"buffer":0,
			"byteLength":756,
			"byteOffset":79072,
			"target":34962
		},
		{
			"buffer":0,
			"byteLength":504,
			"byteOffset":79828,
			"target":34962
		},
		{
			"buffer":0,
			"byteLength":480,
			"byteOffset":80332,
			"target":34963
		},
		{
			"buffer":0,
			"byteLength":756,
			"byteOffset":80812,
			"target":34962
		},
		{
			"buffer":0,
			"byteLength":756,
			"byteOffset":81568,
			"target":34962
		},
		{
			"buffer":0,
			"byteLength":504,
			"byteOffset":82324,
			"target":34962
		},
		{
			"buffer":0,
			"byteLength":756,
			"byteOffset":82828,
			"target":34962
		},
		{
			"buffer":0,
			"byteLength":756,
			"byteOffset":83584,
			"target":34962
		},
		{
			"buffer":0,
			"byteLength":504,
			"byteOffset":84340,
			"target":34962
		},
		{
			"buffer":0,
			"byteLength":756,
			"byteOffset":84844,
			"target":34962
		},
		{
			"buffer":0,
			"byteLength":756,
			"byteOffset":85600,
			"target":34962
		},
		{
			"buffer":0,
			"byteLength":504,
			"byteOffset":86356,
			"target":34962
		},
		{
			"buffer":0,
			"byteLength":756,
			"byteOffset":86860,
			"target":34962
		},
		{
			"buffer":0,
			"byteLength":756,
			"byteOffset":87616,
			"target":34962
		},
		{
			"buffer":0,
			"byteLength":504,
			"byteOffset":88372,
			"target":34962
		},
		{
			"buffer":0,
			"byteLength":756,
			"byteOffset":88876,
			"target":34962
		},
		{
			"buffer":0,
			"byteLength":756,
			"byteOffset":89632,
			"target":34962
		},
		{
			"buffer":0,
			"byteLength":504,
			"byteOffset":90388,
			"target":34962
		},
		{
			"buffer":0,
			"byteLength":756,
			"byteOffset":90892,
			"target":34962
		},
		{
			"buffer":0,
			"byteLength":756,
			"byteOffset":91648,
			"target":34962
		},
		{
			"buffer":0,
			"byteLength":504,
			"byteOffset":92404,
			"target":34962
		},
		{
			"buffer":0,
			"byteLength":756,
			"byteOffset":92908,
			"target":34962
		},
		{
			"buffer":0,
			"byteLength":756,
			"byteOffset":93664,
			"target":34962
		},
		{
			"buffer":0,
			"byteLength":504,
			"byteOffset":94420,
			"target":34962
		},
		{
			"buffer":0,
			"byteLength":756,
			"byteOffset":94924,
			"target":34962
		},
		{
			"buffer":0,
			"byteLength":756,
			"byteOffset":95680,
			"target":34962
		},
		{
			"buffer":0,
			"byteLength":504,
			"byteOffset":96436,
			"target":34962
		},
		{
			"buffer":0,
			"byteLength":756,
			"byteOffset":96940,
			"target":34962
		},
		{
			"buffer":0,
			"byteLength":756,
			"byteOffset":97696,
			"target":34962
		},
		{
			"buffer":0,
			"byteLength":504,
			"byteOffset":98452,
			"target":34962
		},
		{
			"buffer":0,
			"byteLength":756,
			"byteOffset":98956,
			"target":34962
		},
		{
			"buffer":0,
			"byteLength":756,
			"byteOffset":99712,
			"target":34962
		},
		{
			"buffer":0,
			"byteLength":504,
			"byteOffset":100468,
			"target":34962
		},
		{
			"buffer":0,
			"byteLength":756,
			"byteOffset":100972,
			"target":34962
		},
		{
			"buffer":0,
			"byteLength":756,
			"byteOffset":101728,
			"target":34962
		},
		{
			"buffer":0,
			"byteLength":504,
			"byteOffset":102484,
			"target":34962
		},
		{
			"buffer":0,
			"byteLength":756,
			"byteOffset":102988,
			"target":34962
		},
		{
			"buffer":0,
			"byteLength":756,
			"byteOffset":103744,
			"target":34962
		},
		{
			"buffer":0,
			"byteLength":504,
			"byteOffset":104500,
			"target":34962
		},
		{
			"buffer":0,
			"byteLength":756,
			"byteOffset":105004,
			"target":34962
		},
		{
			"buffer":0,
			"byteLength":756,
			"byteOffset":105760,
			"target":34962
		},
		{
			"buffer":0,
			"byteLength":504,
			"byteOffset":106516,
			"target":34962
		},
		{
			"buffer":0,
			"byteLength":756,
			"byteOffset":107020,
			"target":34962
		},
		{
			"buffer":0,
			"byteLength":756,
			"byteOffset":107776,
			"target":34962
		},
		{
			"buffer":0,
			"byteLength":504,
			"byteOffset":108532,
			"target":34962
		},
		{
			"buffer":0,
			"byteLength":48,
			"byteOffset":109036,
			"target":34962
		},
		{
			"buffer":0,
			"byteLength":48,
			"byteOffset":109084,
			"target":34962
		},
		{
			"buffer":0,
			"byteLength":32,
			"byteOffset":109132,
			"target":34962
		},
		{
			"buffer":0,
			"byteLength":12,
			"byteOffset":109164,
			"target":34963
		},
		{
			"buffer":0,
			"byteLength":48,
			"byteOffset":109176,
			"target":34962
		},
		{
			"buffer":0,
			"byteLength":48,
			"byteOffset":109224,
			"target":34962
		},
		{
			"buffer":0,
			"byteLength":32,
			"byteOffset":109272,
			"target":34962
		},
		{
			"buffer":0,
			"byteLength":12,
			"byteOffset":109304,
			"target":34963
		},
		{
			"buffer":0,
			"byteLength":48,
			"byteOffset":109316,
			"target":34962
		},
		{
			"buffer":0,
			"byteLength":48,
			"byteOffset":109364,
			"target":34962
		},
		{
			"buffer":0,
			"byteLength":32,
			"byteOffset":109412,
			"target":34962
		},
		{
			"buffer":0,
			"byteLength":48,
			"byteOffset":109444,
			"target":34962
		},
		{
			"buffer":0,
			"byteLength":48,
			"byteOffset":109492,
			"target":34962
		},
		{
			"buffer":0,
			"byteLength":32,
			"byteOffset":109540,
			"target":34962
		},
		{
			"buffer":0,
			"byteLength":48,
			"byteOffset":109572,
			"target":34962
		},
		{
			"buffer":0,
			"byteLength":48,
			"byteOffset":109620,
			"target":34962
		},
		{
			"buffer":0,
			"byteLength":32,
			"byteOffset":109668,
			"target":34962
		},
		{
			"buffer":0,
			"byteLength":48,
			"byteOffset":109700,
			"target":34962
		},
		{
			"buffer":0,
			"byteLength":48,
			"byteOffset":109748,
			"target":34962
		},
		{
			"buffer":0,
			"byteLength":32,
			"byteOffset":109796,
			"target":34962
		},
		{
			"buffer":0,
			"byteLength":48,
			"byteOffset":109828,
			"target":34962
		},
		{
			"buffer":0,
			"byteLength":48,
			"byteOffset":109876,
			"target":34962
		},
		{
			"buffer":0,
			"byteLength":32,
			"byteOffset":109924,
			"target":34962
		},
		{
			"buffer":0,
			"byteLength":48,
			"byteOffset":109956,
			"target":34962
		},
		{
			"buffer":0,
			"byteLength":48,
			"byteOffset":110004,
			"target":34962
		},
		{
			"buffer":0,
			"byteLength":32,
			"byteOffset":110052,
			"target":34962
		},
		{
			"buffer":0,
			"byteLength":48,
			"byteOffset":110084,
			"target":34962
		},
		{
			"buffer":0,
			"byteLength":48,
			"byteOffset":110132,
			"target":34962
		},
		{
			"buffer":0,
			"byteLength":32,
			"byteOffset":110180,
			"target":34962
		},
		{
			"buffer":0,
			"byteLength":23592,
			"byteOffset":110212,
			"target":34962
		},
		{
			"buffer":0,
			"byteLength":23592,
			"byteOffset":133804,
			"target":34962
		},
		{
			"buffer":0,
			"byteLength":15728,
			"byteOffset":157396,
			"target":34962
		},
		{
			"buffer":0,
			"byteLength":5808,
			"byteOffset":173124,
			"target":34963
		},
		{
			"buffer":0,
			"byteLength":23592,
			"byteOffset":178932,
			"target":34962
		},
		{
			"buffer":0,
			"byteLength":23592,
			"byteOffset":202524,
			"target":34962
		},
		{
			"buffer":0,
			"byteLength":15728,
			"byteOffset":226116,
			"target":34962
		},
		{
			"buffer":0,
			"byteLength":49536,
			"byteOffset":241844,
			"target":34962
		},
		{
			"buffer":0,
			"byteLength":49536,
			"byteOffset":291380,
			"target":34962
		},
		{
			"buffer":0,
			"byteLength":33024,
			"byteOffset":340916,
			"target":34962
		},
		{
			"buffer":0,
			"byteLength":41472,
			"byteOffset":373940,
			"target":34963
		}
	],
	"samplers":[
		{
			"magFilter":9728,
			"minFilter":9984
		},
		{
			"magFilter":9729,
			"minFilter":9987
		}
	],
	"buffers":[
		{
			"byteLength":415412,
			"uri":"soba.bin"
		}
	]
}
