{
	"asset":{
		"generator":"Khronos glTF Blender I/O v5.0.21",
		"version":"2.0"
	},
	"scene":0,
	"scenes":[
		{
			"name":"Scene",
			"nodes":[
				1
			]
		}
	],
	"nodes":[
		{
			"mesh":0,
			"name":"Katana_Mesh"
		},
		{
			"children":[
				0
			],
			"name":"Scene"
		}
	],
	"materials":[
		{
			"name":"lambert1",
			"pbrMetallicRoughness":{
				"baseColorTexture":{
					"index":0
				},
				"metallicFactor":0,
				"roughnessFactor":0.8199999928474426
			}
		}
	],
	"meshes":[
		{
			"name":"Mesh_0",
			"primitives":[
				{
					"attributes":{
						"POSITION":0,
						"NORMAL":1,
						"TEXCOORD_0":2
					},
					"indices":3,
					"material":0
				}
			]
		}
	],
	"textures":[
		{
			"sampler":0,
			"source":0
		}
	],
	"images":[
		{
			"mimeType":"image/png",
			"name":"baseColor",
			"uri":"baseColor.png"
		}
	],
	"accessors":[
		{
			"bufferView":0,
			"componentType":5126,
			"count":460,
			"max":[
				0.22144632041454315,
				5.648019313812256,
				0.4896787405014038
			],
			"min":[
				-0.22144566476345062,
				-1.9833484888076782,
				-0.7821103930473328
			],
			"type":"VEC3"
		},
		{
			"bufferView":1,
			"componentType":5126,
			"count":460,
			"type":"VEC3"
		},
		{
			"bufferView":2,
			"componentType":5126,
			"count":460,
			"type":"VEC2"
		},
		{
			"bufferView":3,
			"componentType":5123,
			"count":996,
			"type":"SCALAR"
		}
	],
	"bufferViews":[
		{
			"buffer":0,
			"byteLength":5520,
			"byteOffset":0,
			"target":34962
		},
		{
			"buffer":0,
			"byteLength":5520,
			"byteOffset":5520,
			"target":34962
		},
		{
			"buffer":0,
			"byteLength":3680,
			"byteOffset":11040,
			"target":34962
		},
		{
			"buffer":0,
			"byteLength":1992,
			"byteOffset":14720,
			"target":34963
		}
	],
	"samplers":[
		{
			"magFilter":9729,
			"minFilter":9987
		}
	],
	"buffers":[
		{
			"byteLength":16712,
			"uri":"katana.bin"
		}
	]
}
